<?xml version="1.0" encoding="UTF-8"?>
<svg width="128" height="128" version="1.1" viewBox="0 0 33.866666 33.866668" xmlns="http://www.w3.org/2000/svg">
 <g transform="translate(0 -263.13)">
  <path d="m15.868 277.83c3.4075-3.4075 6.815-6.815 10.223-10.223-2.2028 1e-5 -4.4057 3e-5 -6.6085 4e-5 1.4456-1.4456 2.8912-2.8912 4.3368-4.3368 3.3042-1e-5 6.6085-3e-5 9.9127-4e-5 1.3e-5 3.3043 2.7e-5 6.6086 4e-5 9.9128-1.4456 1.4456-2.8912 2.8912-4.3368 4.3368-1.4e-5 -2.2029-2.8e-5 -4.4057-4.2e-5 -6.6086-3.4075 3.4075-6.815 6.815-10.223 10.223-1.1014-1.1014-2.2028-2.2028-3.3043-3.3043z" fill="#75a0cb" stroke-linejoin="round" stroke-width=".14566"/>
  <path d="m0 285.23v11.769h10.099c1.915-1.915 3.8299-3.8299 5.7449-5.7449-3.6447-3.6447-7.2895-7.2895-10.934-10.934-1.6366 1.6366-3.2732 3.2732-4.9098 4.9098z" fill-opacity=".99111"/>
 </g>
</svg>
