<?xml version="1.0" encoding="UTF-8" standalone="no"?>
<svg
   xmlns:dc="http://purl.org/dc/elements/1.1/"
   xmlns:cc="http://creativecommons.org/ns#"
   xmlns:rdf="http://www.w3.org/1999/02/22-rdf-syntax-ns#"
   xmlns:svg="http://www.w3.org/2000/svg"
   xmlns="http://www.w3.org/2000/svg"
   xmlns:sodipodi="http://sodipodi.sourceforge.net/DTD/sodipodi-0.dtd"
   xmlns:inkscape="http://www.inkscape.org/namespaces/inkscape"
   version="1.1"
   width="128"
   height="128"
   viewBox="0 0 128.00 128.00"
   enable-background="new 0 0 128.00 128.00"
   xml:space="preserve"
   id="svg4487"
   sodipodi:docname="cad.draw.tools.svg"
   inkscape:version="0.92.1 r15371"><metadata
     id="metadata4493"><rdf:RDF><cc:Work
         rdf:about=""><dc:format>image/svg+xml</dc:format><dc:type
           rdf:resource="http://purl.org/dc/dcmitype/StillImage" /><dc:title></dc:title></cc:Work></rdf:RDF></metadata><defs
     id="defs4491" /><sodipodi:namedview
     pagecolor="#ffffff"
     bordercolor="#666666"
     borderopacity="1"
     objecttolerance="10"
     gridtolerance="10"
     guidetolerance="10"
     inkscape:pageopacity="0"
     inkscape:pageshadow="2"
     inkscape:window-width="1920"
     inkscape:window-height="1137"
     id="namedview4489"
     showgrid="false"
     inkscape:zoom="7.5625"
     inkscape:cx="64"
     inkscape:cy="64"
     inkscape:window-x="-8"
     inkscape:window-y="-8"
     inkscape:window-maximized="1"
     inkscape:current-layer="svg4487" /><path
     fill="#000000"
     fill-opacity="1"
     stroke-width="0.2"
     stroke-linejoin="round"
     d="M 25.5384,78.5544C 29.1383,78.5544 32.5534,79.3457 35.6192,80.7639L 54.7263,61.6568L 47.5501,54.4806L 40.751,61.2797L 33.9519,54.4806L 36.7763,51.6561C 31.0317,49.411 26.7227,44.8475 19.8912,38.0161C 5.8098,23.9347 -2.24124,9.15522 3.39132,3.52267C 9.02389,-2.10991 21.3994,3.53733 35.4808,17.6188C 42.3123,24.4502 49.2797,31.1631 51.5247,36.9077L 54.3492,34.0833L 61.1483,40.8824L 54.3492,47.6814L 61.5254,54.8577L 80.6326,35.7505C 79.2144,32.6847 78.4231,29.2696 78.4231,25.6698C 78.4231,12.3937 89.1855,1.63129 102.462,1.63132C 105.562,1.63132 108.525,2.21822 111.246,3.28699L 92.8461,21.6869L 106.444,35.2852L 124.844,16.8852C 125.913,19.6063 126.5,22.5695 126.5,25.6698C 126.5,38.9459 115.738,49.7082 102.462,49.7082C 99.8713,49.7082 97.3767,49.2985 95.0391,48.5404L 75.1236,68.4559L 103.105,96.4374L 104.805,94.7377L 121.34,111.273L 111.142,121.472L 94.6064,104.936L 96.3061,103.237L 68.3245,75.255L 48.4091,95.1704C 49.1672,97.508 49.5769,100.003 49.5769,102.593C 49.5769,115.869 38.8145,126.631 25.5384,126.631C 22.4382,126.631 19.475,126.044 16.7539,124.976L 35.1538,106.576L 21.5556,92.9775L 3.15567,111.377C 2.08689,108.656 1.49998,105.693 1.49998,102.593C 1.49998,89.3168 12.2624,78.5544 25.5384,78.5544 Z "
     id="path4485"
     style="fill-opacity:1;fill:#000000" /></svg>