<?xml version="1.0" encoding="UTF-8" standalone="no"?>
<svg
   xmlns:dc="http://purl.org/dc/elements/1.1/"
   xmlns:cc="http://creativecommons.org/ns#"
   xmlns:rdf="http://www.w3.org/1999/02/22-rdf-syntax-ns#"
   xmlns:svg="http://www.w3.org/2000/svg"
   xmlns="http://www.w3.org/2000/svg"
   xmlns:sodipodi="http://sodipodi.sourceforge.net/DTD/sodipodi-0.dtd"
   xmlns:inkscape="http://www.inkscape.org/namespaces/inkscape"
   version="1.1"
   width="128"
   height="128"
   viewBox="0 0 128.00 128.00"
   enable-background="new 0 0 128.00 128.00"
   xml:space="preserve"
   id="svg12"
   sodipodi:docname="cad.draw.measure.winkeldp.svg"
   inkscape:version="0.92.1 r15371"><metadata
     id="metadata18"><rdf:RDF><cc:Work
         rdf:about=""><dc:format>image/svg+xml</dc:format><dc:type
           rdf:resource="http://purl.org/dc/dcmitype/StillImage" /></cc:Work></rdf:RDF></metadata><defs
     id="defs16" /><sodipodi:namedview
     pagecolor="#ffffff"
     bordercolor="#666666"
     borderopacity="1"
     objecttolerance="10"
     gridtolerance="10"
     guidetolerance="10"
     inkscape:pageopacity="0"
     inkscape:pageshadow="2"
     inkscape:window-width="1920"
     inkscape:window-height="1017"
     id="namedview14"
     showgrid="false"
     inkscape:zoom="1.84375"
     inkscape:cx="64"
     inkscape:cy="64"
     inkscape:window-x="-8"
     inkscape:window-y="-8"
     inkscape:window-maximized="1"
     inkscape:current-layer="svg12" /><path
     d="m 66.031746,113.77778 v 0 c -2.104787,-4.71975 -4.949739,-9.18045 -8.387047,-13.03873 l 5.39266,0.4419 0.346921,0.0427 C 59.503137,84.408686 43.59101,68.497168 26.775772,64.615721 l 0.04358,0.347428 0.4416,5.392153 c -3.858895,-3.437308 -8.319085,-6.282261 -13.03873,-8.387048 5.312203,-2.185143 11.036648,-3.500597 16.757435,-4.017371 l -3.458539,4.284647 -0.212826,0.288305 c 17.531632,4.046222 34.121651,20.636038 38.167873,38.167465 l 0.287797,-0.21232 4.285054,-3.45884 c -0.516673,5.72119 -1.832025,11.44564 -4.01727,16.75764 z"
     id="path2"
     inkscape:connector-curvature="0"
     style="fill:#75a0cb;fill-opacity:1;stroke-width:0.20317461;stroke-linejoin:round" /><path
     d="M 128,115.80952 H 12.190476 V 0"
     id="path4"
     inkscape:connector-curvature="0"
     style="fill:none;stroke:#000000;stroke-width:4.06349182;stroke-linejoin:miter;stroke-opacity:1" /><path
     d="M 2.78155e-7,110.88457 H 8.2815693 v -8.2814 h 8.8336557 v 8.2814 h 8.281601 v 8.83403 H 17.115225 V 128 H 8.2815794 v -8.2814 H 5.8944598e-6 Z"
     id="path6"
     inkscape:connector-curvature="0"
     style="fill:#75a0cb;fill-opacity:1;stroke-width:0.20317461;stroke-linejoin:round" /><path
     d="m 72.126984,110.88457 h 8.2816 v -8.2814 h 8.833626 v 8.2814 h 8.2816 v 8.83403 h -8.2816 V 128 h -8.833626 v -8.2814 h -8.2816 z"
     id="path8"
     inkscape:connector-curvature="0"
     style="fill:#75a0cb;fill-opacity:1;stroke-width:0.20317461;stroke-linejoin:round" /><path
     d="M 2.78155e-7,38.75779 H 8.2815693 v -8.2816 h 8.8336557 v 8.2816 h 8.281601 v 8.833626 h -8.281601 v 8.2816 H 8.2815794 v -8.2816 H 5.8944598e-6 Z"
     id="path10"
     inkscape:connector-curvature="0"
     style="fill:#75a0cb;fill-opacity:1;stroke-width:0.20317461;stroke-linejoin:round" /></svg>