<?xml version="1.0" encoding="UTF-8" standalone="no"?>
<svg
   xmlns:dc="http://purl.org/dc/elements/1.1/"
   xmlns:cc="http://creativecommons.org/ns#"
   xmlns:rdf="http://www.w3.org/1999/02/22-rdf-syntax-ns#"
   xmlns:svg="http://www.w3.org/2000/svg"
   xmlns="http://www.w3.org/2000/svg"
   xmlns:sodipodi="http://sodipodi.sourceforge.net/DTD/sodipodi-0.dtd"
   xmlns:inkscape="http://www.inkscape.org/namespaces/inkscape"
   version="1.1"
   width="128"
   height="128"
   viewBox="0 0 128.00 128.00"
   enable-background="new 0 0 128.00 128.00"
   xml:space="preserve"
   id="svg5687"
   sodipodi:docname="cad.view.magnifyadd.svg"
   inkscape:version="0.92.1 r15371"><metadata
     id="metadata5693"><rdf:RDF><cc:Work
         rdf:about=""><dc:format>image/svg+xml</dc:format><dc:type
           rdf:resource="http://purl.org/dc/dcmitype/StillImage" /></cc:Work></rdf:RDF></metadata><defs
     id="defs5691" /><sodipodi:namedview
     pagecolor="#ffffff"
     bordercolor="#666666"
     borderopacity="1"
     objecttolerance="10"
     gridtolerance="10"
     guidetolerance="10"
     inkscape:pageopacity="0"
     inkscape:pageshadow="2"
     inkscape:window-width="1920"
     inkscape:window-height="1017"
     id="namedview5689"
     showgrid="false"
     inkscape:zoom="1.84375"
     inkscape:cx="-28.20339"
     inkscape:cy="64"
     inkscape:window-x="-8"
     inkscape:window-y="-8"
     inkscape:window-maximized="1"
     inkscape:current-layer="svg5687" /><path
     d="M 79.729843,0 C 53.070746,0 31.459681,21.61104 31.459681,48.270107 c 0,9.130622 2.534769,17.668648 6.939517,24.949569 L 3.3931494,108.22367 c -4.5241889,4.52438 -4.5242095,11.85866 0,16.38304 4.5242013,4.52439 11.8588836,4.52439 16.3830646,0 L 54.629036,89.753931 c 7.431639,4.251247 15.970278,6.786283 25.100807,6.786283 C 106.38914,96.540213 128,74.929277 128,48.270107 128,21.61104 106.38914,0 79.729843,0 Z m 0,15.447563 c 18.128103,0 32.822577,14.694461 32.822577,32.822544 0,18.128186 -14.694474,32.82456 -32.822577,32.82456 -18.128207,0 -32.824597,-14.696374 -32.824597,-32.82456 0,-18.128186 14.69639,-32.822544 32.824597,-32.822544 z"
     id="path5699"
     inkscape:connector-curvature="0"
     style="stroke-width:1.03225744" /><path
     d="M 73.936933,27.031505 H 85.521862 V 42.478197 H 100.96847 V 54.06301 H 85.521862 V 69.509599 H 73.936933 V 54.06301 H 58.490327 V 42.478197 h 15.446606 z"
     id="path5685"
     style="fill:#75a0cb;fill-opacity:1;stroke-width:1.03225744"
     inkscape:connector-curvature="0" /></svg>