<?xml version="1.0" encoding="UTF-8" standalone="no"?>
<svg
   xmlns:dc="http://purl.org/dc/elements/1.1/"
   xmlns:cc="http://creativecommons.org/ns#"
   xmlns:rdf="http://www.w3.org/1999/02/22-rdf-syntax-ns#"
   xmlns:svg="http://www.w3.org/2000/svg"
   xmlns="http://www.w3.org/2000/svg"
   xmlns:sodipodi="http://sodipodi.sourceforge.net/DTD/sodipodi-0.dtd"
   xmlns:inkscape="http://www.inkscape.org/namespaces/inkscape"
   version="1.1"
   width="128"
   height="128"
   viewBox="0 0 128.00 128.00"
   enable-background="new 0 0 128.00 128.00"
   xml:space="preserve"
   id="svg11784"
   sodipodi:docname="cad.draw.image.svg"
   inkscape:version="0.92.1 r15371"><metadata
     id="metadata11790"><rdf:RDF><cc:Work
         rdf:about=""><dc:format>image/svg+xml</dc:format><dc:type
           rdf:resource="http://purl.org/dc/dcmitype/StillImage" /><dc:title></dc:title></cc:Work></rdf:RDF></metadata><defs
     id="defs11788" /><sodipodi:namedview
     pagecolor="#ffffff"
     bordercolor="#666666"
     borderopacity="1"
     objecttolerance="10"
     gridtolerance="10"
     guidetolerance="10"
     inkscape:pageopacity="0"
     inkscape:pageshadow="2"
     inkscape:window-width="742"
     inkscape:window-height="749"
     id="namedview11786"
     showgrid="false"
     inkscape:zoom="1.84375"
     inkscape:cx="64"
     inkscape:cy="64"
     inkscape:window-x="0"
     inkscape:window-y="0"
     inkscape:window-maximized="0"
     inkscape:current-layer="svg11784" /><path
     fill="#75a0cb"
     fill-opacity="1"
     stroke-width="0.2"
     stroke-linejoin="round"
     d="M 21.3333,103.619L 39.873,83.3016L 49.5238,92.9524L 88.1269,54.3492L 102.603,68.8254L 112.762,57.9048L 112.762,103.619L 21.3333,103.619 Z "
     id="path11778"
     style="fill:#75a0cb;fill-opacity:1" /><path
     fill="#75a0cb"
     fill-opacity="1"
     stroke-width="0.2"
     stroke-linejoin="round"
     d="M 39.873,30.2222C 39.873,40.8822 31.2314,49.5238 20.5714,49.5238C 18.9052,49.5238 16.7804,49.1589 15.2381,48.7619L 15.2381,24.3809L 38.6029,24.3809C 38.9999,25.9232 39.873,28.556 39.873,30.2222 Z "
     id="path11780"
     style="fill:#75a0cb;fill-opacity:1" /><path
     fill="#000000"
     fill-opacity="1"
     stroke-width="0.2"
     stroke-linejoin="round"
     d="M -5.08626e-006,9.14286L 128,9.14286L 128,118.857L -5.08626e-006,118.857L -5.08626e-006,9.14286 Z M 9.14285,18.2857L 9.14285,109.714L 118.857,109.714L 118.857,18.2857L 9.14285,18.2857 Z "
     id="path11782" /></svg>