<?xml version="1.0" encoding="UTF-8" standalone="no"?>
<svg
   xmlns:dc="http://purl.org/dc/elements/1.1/"
   xmlns:cc="http://creativecommons.org/ns#"
   xmlns:rdf="http://www.w3.org/1999/02/22-rdf-syntax-ns#"
   xmlns:svg="http://www.w3.org/2000/svg"
   xmlns="http://www.w3.org/2000/svg"
   xmlns:sodipodi="http://sodipodi.sourceforge.net/DTD/sodipodi-0.dtd"
   xmlns:inkscape="http://www.inkscape.org/namespaces/inkscape"
   version="1.1"
   width="128"
   height="128"
   viewBox="0 0 128.00 128.00"
   enable-background="new 0 0 128.00 128.00"
   xml:space="preserve"
   id="svg10103"
   sodipodi:docname="cad.draw.spline.svg"
   inkscape:version="0.92.1 r15371"><metadata
     id="metadata10109"><rdf:RDF><cc:Work
         rdf:about=""><dc:format>image/svg+xml</dc:format><dc:type
           rdf:resource="http://purl.org/dc/dcmitype/StillImage" /><dc:title></dc:title></cc:Work></rdf:RDF></metadata><defs
     id="defs10107" /><sodipodi:namedview
     pagecolor="#ffffff"
     bordercolor="#666666"
     borderopacity="1"
     objecttolerance="10"
     gridtolerance="10"
     guidetolerance="10"
     inkscape:pageopacity="0"
     inkscape:pageshadow="2"
     inkscape:window-width="1167"
     inkscape:window-height="656"
     id="namedview10105"
     showgrid="false"
     inkscape:zoom="1.84375"
     inkscape:cx="50.983051"
     inkscape:cy="64"
     inkscape:window-x="127"
     inkscape:window-y="415"
     inkscape:window-maximized="0"
     inkscape:current-layer="svg10103" /><path
     fill="none"
     stroke-width="4"
     stroke-linejoin="round"
     stroke="#75a0cb"
     stroke-opacity="1"
     d="M 68,96C 67.6667,89.6667 67.3333,83.3333 62,78C 56.6667,72.6667 46.3333,68.3333 38.1667,68.1667C 30,68 24,72 19.3333,77.3333C 14.6667,82.6667 11.3333,89.3333 13.6667,96.3333C 16,103.333 24,110.667 30.6667,115.5C 37.3333,120.333 42.6667,122.667 51.6667,122.167C 60.6667,121.667 73.3333,118.333 80.6667,111.167C 88,104 90,93 94.1667,83.1667C 98.3333,73.3333 104.667,64.6667 111,56"
     id="path10093"
     style="stroke:#75a0cb;stroke-opacity:1" /><g
     id="g10101"
     style="fill:#000000;fill-opacity:1"><path
       fill="#000000"
       fill-opacity="1"
       stroke-width="0.2"
       stroke-linejoin="round"
       d="M 86.0544,18.7638L 111.42,41.7227L 56.3179,102.599L 30.9528,79.6396L 86.0544,18.7638 Z "
       id="path10095"
       style="fill:#000000;fill-opacity:1" /><path
       fill="#000000"
       fill-opacity="1"
       stroke-width="0.2"
       stroke-linejoin="round"
       d="M 115.769,36.6609L 90.6585,13.9325L 100.399,3.17102C 103.986,-0.791245 110.105,-1.09592 114.067,2.49051L 124.829,12.2312C 128.791,15.8177 129.096,21.9371 125.509,25.8994L 115.769,36.6609 Z "
       id="path10097"
       style="fill:#000000;fill-opacity:1" /><path
       fill="#000000"
       fill-opacity="1"
       stroke-width="0.2"
       stroke-linejoin="round"
       d="M 26.5365,112.559L 24,110.263L 29.3349,89.7113L 46.4566,105.209L 26.5365,112.559 Z "
       id="path10099"
       style="fill:#000000;fill-opacity:1" /></g></svg>