<?xml version="1.0" encoding="UTF-8" standalone="no"?>
<svg
   xmlns:dc="http://purl.org/dc/elements/1.1/"
   xmlns:cc="http://creativecommons.org/ns#"
   xmlns:rdf="http://www.w3.org/1999/02/22-rdf-syntax-ns#"
   xmlns:svg="http://www.w3.org/2000/svg"
   xmlns="http://www.w3.org/2000/svg"
   xmlns:sodipodi="http://sodipodi.sourceforge.net/DTD/sodipodi-0.dtd"
   xmlns:inkscape="http://www.inkscape.org/namespaces/inkscape"
   version="1.1"
   width="128"
   height="128"
   viewBox="0 0 128.00 128.00"
   enable-background="new 0 0 128.00 128.00"
   xml:space="preserve"
   id="svg10"
   sodipodi:docname="cad.draw.arc.zpr.svg"
   inkscape:version="0.92.1 r15371"><metadata
     id="metadata16"><rdf:RDF><cc:Work
         rdf:about=""><dc:format>image/svg+xml</dc:format><dc:type
           rdf:resource="http://purl.org/dc/dcmitype/StillImage" /></cc:Work></rdf:RDF></metadata><defs
     id="defs14" /><sodipodi:namedview
     pagecolor="#ffffff"
     bordercolor="#666666"
     borderopacity="1"
     objecttolerance="10"
     gridtolerance="10"
     guidetolerance="10"
     inkscape:pageopacity="0"
     inkscape:pageshadow="2"
     inkscape:window-width="1920"
     inkscape:window-height="1017"
     id="namedview12"
     showgrid="false"
     inkscape:zoom="1.84375"
     inkscape:cx="64"
     inkscape:cy="64"
     inkscape:window-x="-8"
     inkscape:window-y="-8"
     inkscape:window-maximized="1"
     inkscape:current-layer="svg10" /><path
     fill="none"
     stroke-width="4"
     stroke-linejoin="round"
     stroke="#000000"
     stroke-opacity="1"
     d="M 107.824,21.5679C 118.456,32.5469 125,47.5093 125,64C 125,97.6894 97.6894,125 64,125C 50.433,125 37.9005,120.571 27.7695,113.08"
     id="path2" /><line
     fill="none"
     stroke-width="4"
     stroke-linejoin="round"
     stroke="#75a0cb"
     stroke-opacity="1"
     x1="65"
     y1="64.1887"
     x2="127.625"
     y2="63.8113"
     id="line4"
     style="stroke:#75a0cb;stroke-opacity:1" /><path
     fill="#75a0cb"
     fill-opacity="1"
     stroke-width="0.2"
     stroke-linejoin="round"
     d="M 16,108.152L 24.1522,108.152L 24.1522,100L 32.8478,100L 32.8478,108.152L 41,108.152L 41,116.848L 32.8478,116.848L 32.8478,125L 24.1522,125L 24.1522,116.848L 16,116.848L 16,108.152 Z "
     id="path6"
     style="fill:#75a0cb;fill-opacity:1" /><path
     fill="#75a0cb"
     fill-opacity="1"
     stroke-width="0.2"
     stroke-linejoin="round"
     d="M 96,18.1522L 104.152,18.1522L 104.152,10L 112.848,10L 112.848,18.1522L 121,18.1522L 121,26.8478L 112.848,26.8478L 112.848,35L 104.152,35L 104.152,26.8478L 96,26.8478L 96,18.1522 Z "
     id="path8"
     style="fill:#75a0cb;fill-opacity:1" /></svg>