<?xml version="1.0" encoding="UTF-8" standalone="no"?>
<svg
   xmlns:dc="http://purl.org/dc/elements/1.1/"
   xmlns:cc="http://creativecommons.org/ns#"
   xmlns:rdf="http://www.w3.org/1999/02/22-rdf-syntax-ns#"
   xmlns:svg="http://www.w3.org/2000/svg"
   xmlns="http://www.w3.org/2000/svg"
   xmlns:sodipodi="http://sodipodi.sourceforge.net/DTD/sodipodi-0.dtd"
   xmlns:inkscape="http://www.inkscape.org/namespaces/inkscape"
   version="1.1"
   width="128"
   height="128"
   viewBox="0 0 128.00 128.00"
   enable-background="new 0 0 128.00 128.00"
   xml:space="preserve"
   id="svg10"
   sodipodi:docname="cad.draw.tools.runden.svg"
   inkscape:version="0.92.1 r15371"><metadata
     id="metadata16"><rdf:RDF><cc:Work
         rdf:about=""><dc:format>image/svg+xml</dc:format><dc:type
           rdf:resource="http://purl.org/dc/dcmitype/StillImage" /></cc:Work></rdf:RDF></metadata><defs
     id="defs14" /><sodipodi:namedview
     pagecolor="#ffffff"
     bordercolor="#666666"
     borderopacity="1"
     objecttolerance="10"
     gridtolerance="10"
     guidetolerance="10"
     inkscape:pageopacity="0"
     inkscape:pageshadow="2"
     inkscape:window-width="1920"
     inkscape:window-height="1017"
     id="namedview12"
     showgrid="false"
     inkscape:zoom="1.84375"
     inkscape:cx="64"
     inkscape:cy="64"
     inkscape:window-x="-8"
     inkscape:window-y="-8"
     inkscape:window-maximized="1"
     inkscape:current-layer="svg10" /><line
     x1="2.0317585"
     y1="128"
     x2="2.0317585"
     y2="62.899509"
     id="line2"
     style="fill:none;stroke:#000000;stroke-width:4.06349182;stroke-linejoin:miter;stroke-opacity:1" /><path
     d="M 1.2700298e-5,51.386317 V 40.550305 H 4.0635046 v 10.836012 z m 0,-13.545041 V 27.005366 H 4.0635046 v 10.83591 z m 0,-13.544939 V 13.460325 H 4.0635046 v 10.836012 z m 0,-13.544939 V -4.9660492e-7 H 4.148137 V 4.0634893 H 2.0317587 L 4.0635046,2.0317434 V 10.751398 Z M 6.8571248,-4.9660492e-7 H 17.693158 V 4.0634893 H 6.8571248 Z m 13.5449602,0 H 31.238097 V 4.0634893 H 20.402085 Z m 13.545041,0 h 10.83591 V 4.0634893 h -10.83591 z m 13.544939,0 H 58.328077 V 4.0634893 H 47.492065 Z m 13.544939,0 h 4.994844 V 4.0634893 H 61.037004 Z M 1.2700298e-5,64.931256 V 62.89951 54.095244 H 4.0635046 v 8.804266 2.031746 z"
     id="path4"
     inkscape:connector-curvature="0"
     style="fill:#000000;fill-opacity:1;stroke-width:1.01587296;stroke-linejoin:round" /><line
     x1="64.000099"
     y1="2.0317435"
     x2="128"
     y2="2.0317435"
     id="line6"
     style="fill:none;stroke:#000000;stroke-width:4.06349182;stroke-linejoin:miter;stroke-opacity:1" /><path
     d="m 2.0317485,55.873022 c 0,-17.947123 0,-35.894145 10.3280765,-44.867757 C 22.687799,2.0317535 43.343951,2.0317535 64.000001,2.0317535"
     id="path8"
     inkscape:connector-curvature="0"
     style="fill:none;stroke:#75a0cb;stroke-width:4.06349182;stroke-linejoin:miter;stroke-opacity:1" /></svg>