<?xml version="1.0" encoding="UTF-8" standalone="no"?>
<svg
   xmlns:dc="http://purl.org/dc/elements/1.1/"
   xmlns:cc="http://creativecommons.org/ns#"
   xmlns:rdf="http://www.w3.org/1999/02/22-rdf-syntax-ns#"
   xmlns:svg="http://www.w3.org/2000/svg"
   xmlns="http://www.w3.org/2000/svg"
   xmlns:sodipodi="http://sodipodi.sourceforge.net/DTD/sodipodi-0.dtd"
   xmlns:inkscape="http://www.inkscape.org/namespaces/inkscape"
   version="1.1"
   width="128"
   height="128"
   viewBox="0 0 128.00 128.00"
   enable-background="new 0 0 128.00 128.00"
   xml:space="preserve"
   id="svg7926"
   sodipodi:docname="cad.change.move.svg"
   inkscape:version="0.92.1 r15371"><metadata
     id="metadata7932"><rdf:RDF><cc:Work
         rdf:about=""><dc:format>image/svg+xml</dc:format><dc:type
           rdf:resource="http://purl.org/dc/dcmitype/StillImage" /></cc:Work></rdf:RDF></metadata><defs
     id="defs7930" /><sodipodi:namedview
     pagecolor="#ffffff"
     bordercolor="#666666"
     borderopacity="1"
     objecttolerance="10"
     gridtolerance="10"
     guidetolerance="10"
     inkscape:pageopacity="0"
     inkscape:pageshadow="2"
     inkscape:window-width="1920"
     inkscape:window-height="1017"
     id="namedview7928"
     showgrid="false"
     inkscape:zoom="1.84375"
     inkscape:cx="-28.20339"
     inkscape:cy="64"
     inkscape:window-x="-8"
     inkscape:window-y="-8"
     inkscape:window-maximized="1"
     inkscape:current-layer="svg7926" /><path
     d="m 9.424728,79.374062 v 1.885056 H 7.539785 v 33.929312 h 1.884943 v 1.88472 h 56.548749 v -1.88472 H 67.85842 V 81.259118 h -1.884943 v -1.885056 z m 65.973466,35.814368 v 9.42472 h -9.424717 v -1.88472 H 9.424728 v 1.88472 H 0 v -9.42472 H 1.8849658 V 81.259118 H 0 v -9.424829 h 9.424728 v 1.884943 h 56.548749 v -1.884943 h 9.424717 v 9.424829 H 73.513251 V 115.18843 Z M 1.8849658,73.719232 v 5.65483 H 7.539785 v -5.65483 z m 65.9734542,0 v 5.65483 h 5.654831 v -5.65483 z M 1.8849658,117.07315 v 5.65528 H 7.539785 v -5.65528 z m 65.9734542,0 v 5.65528 h 5.654831 v -5.65528 z"
     id="path7922"
     inkscape:connector-curvature="0"
     style="fill:#000000;fill-opacity:1;stroke-width:0.22383843;stroke-linejoin:round" /><path
     d="m 62.026758,10.926622 v 1.885056 h -1.884943 v 33.929204 h 1.884943 v 1.884944 H 118.57528 V 46.740882 H 120.46 V 12.811678 h -1.88472 V 10.926622 Z M 128,46.740882 v 9.424717 h -9.42472 V 54.280656 H 62.026758 v 1.884943 h -9.424717 v -9.424717 h 1.884943 V 12.811678 H 52.602041 V 3.3868489 h 9.424717 V 5.2717923 H 118.57528 V 3.3868489 H 128 v 9.4248291 h -1.88472 V 46.740882 Z M 54.486984,5.2717923 v 5.6548297 h 5.654831 V 5.2717923 Z m 65.973016,0 v 5.6548297 h 5.65528 V 5.2717923 Z M 54.486984,48.625826 v 5.65483 h 5.654831 v -5.65483 z m 65.973016,0 v 5.65483 h 5.65528 v -5.65483 z"
     id="path7924"
     inkscape:connector-curvature="0"
     style="fill:#75a0cb;fill-opacity:1;stroke-width:0.22383843;stroke-linejoin:round" /></svg>