<?xml version="1.0" encoding="UTF-8" standalone="no"?>
<svg
   xmlns:dc="http://purl.org/dc/elements/1.1/"
   xmlns:cc="http://creativecommons.org/ns#"
   xmlns:rdf="http://www.w3.org/1999/02/22-rdf-syntax-ns#"
   xmlns:svg="http://www.w3.org/2000/svg"
   xmlns="http://www.w3.org/2000/svg"
   xmlns:sodipodi="http://sodipodi.sourceforge.net/DTD/sodipodi-0.dtd"
   xmlns:inkscape="http://www.inkscape.org/namespaces/inkscape"
   version="1.1"
   width="128"
   height="128"
   viewBox="0 0 128.00 128.00"
   enable-background="new 0 0 128.00 128.00"
   xml:space="preserve"
   id="svg8481"
   sodipodi:docname="cad.change.mirror.svg"
   inkscape:version="0.92.1 r15371"><metadata
     id="metadata8487"><rdf:RDF><cc:Work
         rdf:about=""><dc:format>image/svg+xml</dc:format><dc:type
           rdf:resource="http://purl.org/dc/dcmitype/StillImage" /></cc:Work></rdf:RDF></metadata><defs
     id="defs8485" /><sodipodi:namedview
     pagecolor="#ffffff"
     bordercolor="#666666"
     borderopacity="1"
     objecttolerance="10"
     gridtolerance="10"
     guidetolerance="10"
     inkscape:pageopacity="0"
     inkscape:pageshadow="2"
     inkscape:window-width="1920"
     inkscape:window-height="1017"
     id="namedview8483"
     showgrid="false"
     inkscape:zoom="1.84375"
     inkscape:cx="-28.20339"
     inkscape:cy="64"
     inkscape:window-x="-8"
     inkscape:window-y="-8"
     inkscape:window-maximized="1"
     inkscape:current-layer="svg8481" /><path
     d="M -4.9999999e-7,93.692129 6.0237974,91.803503 46.192521,22.973991 45.248208,19.962067 55.287886,16.81429 l 3.147677,10.039678 -3.011823,0.944313 0.06606,70.549254 1.004009,-0.314737 3.147677,10.039682 -10.039679,3.14737 -1.25905,-4.01603 -39.1712403,-5.36044 -6.0237969,1.88883 z M 11.29879,94.560182 l 0.629475,2.008016 34.525863,4.612582 3.011823,-0.94462 -0.06606,-70.549253 -1.003908,0.314839 z m 44.499382,-69.084554 -1.888626,-6.023847 -6.023847,1.888626 1.888626,6.023847 z M 10.549926,99.205589 8.6612785,93.181842 2.6374816,95.070469 4.5261181,101.09391 Z m 44.56544,1.465101 -6.023847,1.88782 1.888626,6.02405 6.023847,-1.88883 z"
     id="path8477"
     inkscape:connector-curvature="0"
     style="fill:#000000;fill-opacity:1;stroke-width:0.20201373;stroke-linejoin:round" /><path
     d="m 128,93.657888 -6.02405,-1.888627 -40.168409,-68.829511 0.944313,-3.011924 -10.039678,-3.147677 -3.147778,10.039678 3.011924,0.944314 -0.06606,70.549254 -1.004008,-0.314737 -3.147677,10.039472 10.039678,3.14738 1.259051,-4.01503 39.171274,-5.36144 6.02405,1.88883 z m -11.29863,0.868154 -0.62927,2.007915 -34.526168,4.612483 -3.011924,-0.94442 0.06616,-70.549253 1.003907,0.314737 z m -44.499482,-69.084655 1.888627,-6.023747 6.023847,1.888627 -1.888626,6.023746 z m 45.247942,73.730061 1.88883,-6.023847 6.02405,1.888626 -1.88883,6.023343 z m -44.565135,1.464902 6.023746,1.88883 -1.888626,6.02304 -6.023747,-1.88883 z"
     id="path8479"
     inkscape:connector-curvature="0"
     style="fill:#75a0cb;fill-opacity:1;stroke-width:0.20201373;stroke-linejoin:round" /></svg>