<?xml version="1.0" encoding="utf-8"?>
<!-- Generator: Adobe Illustrator 21.0.0, SVG Export Plug-In . SVG Version: 6.00 Build 0)  -->
<svg version="1.1" id="Ebene_1" xmlns="http://www.w3.org/2000/svg" xmlns:xlink="http://www.w3.org/1999/xlink" x="0px" y="0px"
	 viewBox="0 0 128 128" style="enable-background:new 0 0 128 128;" xml:space="preserve">
<path d="M79.7,0C106.4,0,128,21.6,128,48.3s-21.6,48.3-48.3,48.3c-9.1,0-17.7-2.5-25.1-6.8l-34.9,34.9c-4.5,4.5-11.9,4.5-16.4,0
	c-4.5-4.5-4.5-11.9,0-16.4l35-35c-4.4-7.3-6.9-15.8-6.9-25C31.5,21.6,53.1,0,79.7,0z M79.7,15.4c-18.1,0-32.8,14.7-32.8,32.8
	c0,18.1,14.7,32.8,32.8,32.8s32.8-14.7,32.8-32.8C112.6,30.1,97.9,15.4,79.7,15.4L79.7,15.4z"/>
<path d="M65,29.2h20.4l11.2,11.2v25.7H65L65,29.2L65,29.2z M68.5,32.7v29.9h24.6V44.1H81.7V32.7L68.5,32.7L68.5,32.7z M85.2,33.8
	v6.8H92L85.2,33.8L85.2,33.8z"/>
</svg>
