<?xml version="1.0" encoding="UTF-8" standalone="no"?>
<svg
   xmlns:dc="http://purl.org/dc/elements/1.1/"
   xmlns:cc="http://creativecommons.org/ns#"
   xmlns:rdf="http://www.w3.org/1999/02/22-rdf-syntax-ns#"
   xmlns:svg="http://www.w3.org/2000/svg"
   xmlns="http://www.w3.org/2000/svg"
   xmlns:sodipodi="http://sodipodi.sourceforge.net/DTD/sodipodi-0.dtd"
   xmlns:inkscape="http://www.inkscape.org/namespaces/inkscape"
   version="1.1"
   width="128"
   height="128"
   viewBox="0 0 128.00 128.00"
   enable-background="new 0 0 128.00 128.00"
   xml:space="preserve"
   id="svg8"
   sodipodi:docname="cad.draw.text.p.svg"
   inkscape:version="0.92.1 r15371"><metadata
     id="metadata14"><rdf:RDF><cc:Work
         rdf:about=""><dc:format>image/svg+xml</dc:format><dc:type
           rdf:resource="http://purl.org/dc/dcmitype/StillImage" /></cc:Work></rdf:RDF></metadata><defs
     id="defs12" /><sodipodi:namedview
     pagecolor="#ffffff"
     bordercolor="#666666"
     borderopacity="1"
     objecttolerance="10"
     gridtolerance="10"
     guidetolerance="10"
     inkscape:pageopacity="0"
     inkscape:pageshadow="2"
     inkscape:window-width="1920"
     inkscape:window-height="1017"
     id="namedview10"
     showgrid="false"
     inkscape:zoom="1.84375"
     inkscape:cx="64"
     inkscape:cy="64"
     inkscape:window-x="-8"
     inkscape:window-y="-8"
     inkscape:window-maximized="1"
     inkscape:current-layer="svg8" /><g
     aria-label="Text"
     style="font-size:12.27539825px;stroke-width:1.02294993;fill:#75a0cb;fill-opacity:1"
     id="text4"><path
       d="M 36.555684,24.317676 H 21.345579 V 71.417564 H 15.173363 V 24.317676 H -2.4400651e-6 V 18.733289 H 36.555684 Z"
       style="font-size:75.24225616px;font-family:'Segoe UI';letter-spacing:0em;fill:#75a0cb;fill-opacity:1;stroke-width:0.20458998;stroke-linejoin:round"
       id="path4491" /><path
       d="M 66.865676,54.113315 H 40.303102 q 0.146957,6.282435 3.380023,9.699197 3.233066,3.416763 8.890931,3.416763 6.355913,0 11.683124,-4.18829 v 5.657865 q -4.959817,3.60046 -13.11596,3.60046 -7.972446,0 -12.52813,-5.106775 -4.555683,-5.143513 -4.555683,-14.438577 0,-8.780713 4.959816,-14.29162 4.996557,-5.547647 12.381173,-5.547647 7.384615,0 11.425948,4.77612 4.041332,4.77612 4.041332,13.262917 z m -6.172217,-5.106774 q -0.03674,-5.216993 -2.535017,-8.119404 -2.461539,-2.902411 -6.870265,-2.902411 -4.261768,0 -7.237658,3.049369 -2.97589,3.049369 -3.673938,7.972446 z"
       style="font-size:75.24225616px;font-family:'Segoe UI';letter-spacing:0em;fill:#75a0cb;fill-opacity:1;stroke-width:0.20458998;stroke-linejoin:round"
       id="path4493" /><path
       d="M 103.49484,33.796436 90.856487,52.827437 103.2744,71.417564 H 96.257177 L 88.872561,59.220089 q -0.698049,-1.138921 -1.653273,-2.865672 h -0.146957 q -0.183697,0.330655 -1.726751,2.865672 L 77.814006,71.417564 H 70.870263 L 83.692308,52.974394 71.421354,33.796436 h 7.017222 l 7.274398,12.858784 q 0.808266,1.432836 1.579793,2.939151 h 0.146958 l 9.405282,-15.797935 z"
       style="font-size:75.24225616px;font-family:'Segoe UI';letter-spacing:0em;fill:#75a0cb;fill-opacity:1;stroke-width:0.20458998;stroke-linejoin:round"
       id="path4495" /><path
       d="m 128,71.050171 q -2.13088,1.17566 -5.62112,1.17566 -9.8829,0 -9.8829,-11.021815 V 38.93995 h -6.46613 v -5.143514 h 6.46613 v -9.184845 l 6.02526,-1.947188 V 33.796436 H 128 v 5.143514 h -9.47876 v 21.198624 q 0,3.784156 1.28588,5.400689 1.28588,1.616533 4.26177,1.616533 2.27784,0 3.93111,-1.249139 z"
       style="font-size:75.24225616px;font-family:'Segoe UI';letter-spacing:0em;fill:#75a0cb;fill-opacity:1;stroke-width:0.20458998;stroke-linejoin:round"
       id="path4497" /></g><path
     d="M 0.53958267,92.03205 H 8.8788751 v -8.33909 h 8.8951629 v 8.33909 h 8.339292 v 8.89557 h -8.339292 v 8.33909 H 8.8788751 v -8.33909 H 0.53959287 Z"
     id="path6"
     inkscape:connector-curvature="0"
     style="fill:#75a0cb;fill-opacity:1;stroke-width:0.20458998;stroke-linejoin:round" /></svg>