<?xml version="1.0" encoding="UTF-8" standalone="no"?>
<svg
   xmlns:dc="http://purl.org/dc/elements/1.1/"
   xmlns:cc="http://creativecommons.org/ns#"
   xmlns:rdf="http://www.w3.org/1999/02/22-rdf-syntax-ns#"
   xmlns:svg="http://www.w3.org/2000/svg"
   xmlns="http://www.w3.org/2000/svg"
   xmlns:sodipodi="http://sodipodi.sourceforge.net/DTD/sodipodi-0.dtd"
   xmlns:inkscape="http://www.inkscape.org/namespaces/inkscape"
   version="1.1"
   width="128"
   height="128"
   viewBox="0 0 128.00 128.00"
   enable-background="new 0 0 128.00 128.00"
   xml:space="preserve"
   id="svg19558"
   sodipodi:docname="cad.edit.paste.svg"
   inkscape:version="0.92.1 r15371"><metadata
     id="metadata19564"><rdf:RDF><cc:Work
         rdf:about=""><dc:format>image/svg+xml</dc:format><dc:type
           rdf:resource="http://purl.org/dc/dcmitype/StillImage" /><dc:title></dc:title></cc:Work></rdf:RDF></metadata><defs
     id="defs19562" /><sodipodi:namedview
     pagecolor="#ffffff"
     bordercolor="#666666"
     borderopacity="1"
     objecttolerance="10"
     gridtolerance="10"
     guidetolerance="10"
     inkscape:pageopacity="0"
     inkscape:pageshadow="2"
     inkscape:window-width="1170"
     inkscape:window-height="863"
     id="namedview19560"
     showgrid="false"
     inkscape:zoom="1.84375"
     inkscape:cx="64"
     inkscape:cy="64"
     inkscape:window-x="53"
     inkscape:window-y="239"
     inkscape:window-maximized="0"
     inkscape:current-layer="svg19558" /><path
     d="m 52.093407,128 c -4.932064,0 -8.930236,-3.99848 -8.930236,-8.93054 v -8.92952 h -23.8143 c -4.932064,0 -8.930236,-3.99848 -8.930236,-8.93055 V 20.837376 c 0,-4.931963 3.998172,-8.930134 8.930236,-8.930134 l 10.418896,-6.1e-4 c 0,0 2.976102,-0.354743 2.976102,-4.4647724 C 32.743869,3.3318301 37.563983,0 41.674003,0 l 23.813589,3.6571e-4 c 4.107987,0 8.927594,4.81492359 8.931048,8.92357149 l -6.09e-4,-1.4748141 c 0.0033,4.1034769 2.97732,4.4579149 2.97732,4.4579149 l 10.418592,2.04e-4 c 4.932064,0 8.930235,3.998171 8.930235,8.930134 v 20.837081 l 20.837192,20.837284 v 56.557719 c 0,4.93206 -3.99746,8.93054 -8.92953,8.93054 z m -7.12e-4,-86.325239 v 77.395719 l 56.558125,-0.001 V 77.395501 L 75.907605,77.395196 75.907199,41.674558 Z M 108.65082,68.465367 84.837231,44.651371 84.837435,68.465164 Z M 35.720885,23.814087 h 35.720942 c 0,0 -2.977321,-3.331454 -2.977321,-7.441474 0,-4.110121 -3.33186,-7.4418898 -7.44188,-7.4418898 H 46.138968 c -4.110121,0 -7.44188,3.3317688 -7.44188,7.4418898 0,4.11002 -2.976203,7.441474 -2.976203,7.441474 z"
     id="path19556"
     inkscape:connector-curvature="0"
     style="fill:#000000;fill-opacity:1;stroke-width:0.20317462;stroke-linejoin:round" /></svg>