<?xml version="1.0" encoding="UTF-8" standalone="no"?>
<svg
   xmlns:dc="http://purl.org/dc/elements/1.1/"
   xmlns:cc="http://creativecommons.org/ns#"
   xmlns:rdf="http://www.w3.org/1999/02/22-rdf-syntax-ns#"
   xmlns:svg="http://www.w3.org/2000/svg"
   xmlns="http://www.w3.org/2000/svg"
   xmlns:sodipodi="http://sodipodi.sourceforge.net/DTD/sodipodi-0.dtd"
   xmlns:inkscape="http://www.inkscape.org/namespaces/inkscape"
   version="1.1"
   width="128"
   height="128"
   viewBox="0 0 128.00 128.00"
   enable-background="new 0 0 128.00 128.00"
   xml:space="preserve"
   id="svg10658"
   sodipodi:docname="cad.draw.text.svg"
   inkscape:version="0.92.1 r15371"><metadata
     id="metadata10664"><rdf:RDF><cc:Work
         rdf:about=""><dc:format>image/svg+xml</dc:format><dc:type
           rdf:resource="http://purl.org/dc/dcmitype/StillImage" /><dc:title></dc:title></cc:Work></rdf:RDF></metadata><defs
     id="defs10662" /><sodipodi:namedview
     pagecolor="#ffffff"
     bordercolor="#666666"
     borderopacity="1"
     objecttolerance="10"
     gridtolerance="10"
     guidetolerance="10"
     inkscape:pageopacity="0"
     inkscape:pageshadow="2"
     inkscape:window-width="786"
     inkscape:window-height="811"
     id="namedview10660"
     showgrid="false"
     inkscape:zoom="1.84375"
     inkscape:cx="-31.186441"
     inkscape:cy="64.360202"
     inkscape:window-x="0"
     inkscape:window-y="0"
     inkscape:window-maximized="0"
     inkscape:current-layer="svg10658" /><g
     aria-label="Text"
     transform="matrix(1.0000000000000000 0.0000000000000000 0.0000000000000000 1.0000000000000000 0.00 89.00)"
     style="fill:#75a0cb;fill-opacity:1;stroke:none;stroke-opacity:1"
     id="text10656"><path
       d="M 37.208077,-46.0432 H 22.339212 V 0 H 16.30547 V -46.0432 H 1.4725204 v -5.4591 H 37.208077 Z"
       style="font-size:73.55419159px;font-family:'Segoe UI';letter-spacing:0em;fill:#75a0cb;fill-opacity:1;stroke:none;stroke-width:0.2;stroke-linejoin:round;stroke-opacity:1"
       id="path11769" /><path
       d="M 66.838061,-16.916027 H 40.87142 q 0.143661,6.141487 3.304193,9.4815945 3.160531,3.3401074 8.691462,3.3401074 6.213318,0 11.421012,-4.0943251 v 5.5309304 q -4.848543,3.51968298 -12.821703,3.51968298 -7.793583,0 -12.24706,-4.99220348 -4.453476,-5.0281185 -4.453476,-14.1146467 0,-8.583717 4.848543,-13.970987 4.884458,-5.423185 12.103399,-5.423185 7.218942,0 11.169607,4.668967 3.950664,4.668968 3.950664,12.965363 z m -6.033742,-4.992204 q -0.03592,-5.099949 -2.478144,-7.937244 -2.406314,-2.837296 -6.71613,-2.837296 -4.166155,0 -7.075281,2.980956 -2.909126,2.980956 -3.591513,7.793584 z"
       style="font-size:73.55419159px;font-family:'Segoe UI';letter-spacing:0em;fill:#75a0cb;fill-opacity:1;stroke:none;stroke-width:0.2;stroke-linejoin:round;stroke-opacity:1"
       id="path11771" /><path
       d="M 102.64545,-36.777096 90.290641,-18.173057 102.42996,0 h -6.859794 l -7.218942,-11.923824 q -0.682388,-1.113369 -1.616181,-2.80138 h -0.143661 q -0.179575,0.323236 -1.688011,2.80138 L 77.540769,0 h -6.78796 L 83.28719,-18.029397 71.291536,-36.777096 h 6.85979 l 7.111197,12.570297 q 0.790132,1.40069 1.54435,2.87321 h 0.143661 l 9.194274,-15.443507 z"
       style="font-size:73.55419159px;font-family:'Segoe UI';letter-spacing:0em;fill:#75a0cb;fill-opacity:1;stroke:none;stroke-width:0.2;stroke-linejoin:round;stroke-opacity:1"
       id="path11773" /><path
       d="m 126.60084,-0.35915133 q -2.08308,1.14928425 -5.49502,1.14928425 -9.66117,0 -9.66117,-10.77453982 V -31.748977 h -6.32106 v -5.028119 h 6.32106 v -8.978783 l 5.89008,-1.903502 v 10.882285 h 9.26611 v 5.028119 h -9.26611 v 20.723031 q 0,3.6992589 1.25703,5.2795248 1.25703,1.5802658 4.16616,1.5802658 2.22674,0 3.84292,-1.2211145 z"
       style="font-size:73.55419159px;font-family:'Segoe UI';letter-spacing:0em;fill:#75a0cb;fill-opacity:1;stroke:none;stroke-width:0.2;stroke-linejoin:round;stroke-opacity:1"
       id="path11775" /></g></svg>