<?xml version="1.0" encoding="UTF-8" standalone="no"?>
<svg
   xmlns:dc="http://purl.org/dc/elements/1.1/"
   xmlns:cc="http://creativecommons.org/ns#"
   xmlns:rdf="http://www.w3.org/1999/02/22-rdf-syntax-ns#"
   xmlns:svg="http://www.w3.org/2000/svg"
   xmlns="http://www.w3.org/2000/svg"
   version="1.1"
   viewBox="0, 0, 400,400"
   height="400"
   width="400"
   id="svg">
  <defs
     id="defs7" />
  <path
     id="path0"
     d="M 49.785,49.452 -0.04,98.828 -0.02,249.414 0,400 H 149.802 299.605 L 349.802,349.807 400,299.614 V 149.807 0 L 249.805,0.038 99.609,0.076 49.785,49.452 m 279.512,7.579 -38.275,38.282 h -88.871 -88.87 V 57.031 18.75 H 240.427 367.572 L 329.297,57.031 M 93.75,64.063 v 31.25 H 62.308 L 30.867,95.312 62.109,64.063 c 17.184,-17.188 31.333,-31.25 31.442,-31.25 0.109,0 0.199,14.062 0.199,31.25 m 287.5,95.312 V 285.938 H 342.969 304.688 V 196.95 107.963 l 38.016,-37.575 c 20.91,-20.667 38.136,-37.575 38.282,-37.575 0.145,0 0.264,56.953 0.264,126.562 m -38.871,-74.801 -28.316,28.325 v 81.832 81.832 h 28.515 28.516 V 166.406 c 0,-60.586 -0.09,-110.156 -0.2,-110.156 -0.109,0 -12.941,12.746 -28.515,28.324 M 93.75,202.933 v 88.87 L 55.469,330.078 17.187,368.353 V 241.729 c 0,-69.644 0.235,-126.859 0.521,-127.146 0.287,-0.286 17.513,-0.52 38.282,-0.52 h 37.76 v 88.87 M 285.156,200 v 85.938 H 199.219 113.281 V 200 114.063 h 85.938 85.937 V 200 m 0,143.359 v 37.891 l -127.148,-0.027 -127.149,-0.027 38.077,-37.864 38.077,-37.863 h 89.072 89.071 v 37.89 m 81.25,-37.691 c 0,0.109 -13.886,14.082 -30.859,31.051 l -30.859,30.852 V 336.52 305.469 h 30.859 c 16.973,0 30.859,0.089 30.859,0.199 m -52.343,24.207 v 15.031 l 14.843,-14.828 c 8.164,-8.155 14.844,-14.92 14.844,-15.031 0,-0.112 -6.68,-0.203 -14.844,-0.203 h -14.843 v 15.031"
     style="fill:#000000;fill-rule:evenodd;stroke:none" />
  <metadata
     id="metadata820">
    <rdf:RDF>
      <cc:Work
         rdf:about="">
        <dc:title></dc:title>
      </cc:Work>
    </rdf:RDF>
  </metadata>
</svg>
