<?xml version="1.0" encoding="UTF-8" standalone="no"?>
<svg
   xmlns:dc="http://purl.org/dc/elements/1.1/"
   xmlns:cc="http://creativecommons.org/ns#"
   xmlns:rdf="http://www.w3.org/1999/02/22-rdf-syntax-ns#"
   xmlns:svg="http://www.w3.org/2000/svg"
   xmlns="http://www.w3.org/2000/svg"
   xmlns:sodipodi="http://sodipodi.sourceforge.net/DTD/sodipodi-0.dtd"
   xmlns:inkscape="http://www.inkscape.org/namespaces/inkscape"
   version="1.1"
   width="128"
   height="128"
   viewBox="0 0 128.00 128.00"
   enable-background="new 0 0 128.00 128.00"
   xml:space="preserve"
   id="svg14"
   sodipodi:docname="cad.draw.image.lzr.svg"
   inkscape:version="0.92.1 r15371"><metadata
     id="metadata20"><rdf:RDF><cc:Work
         rdf:about=""><dc:format>image/svg+xml</dc:format><dc:type
           rdf:resource="http://purl.org/dc/dcmitype/StillImage" /></cc:Work></rdf:RDF></metadata><defs
     id="defs18" /><sodipodi:namedview
     pagecolor="#ffffff"
     bordercolor="#666666"
     borderopacity="1"
     objecttolerance="10"
     gridtolerance="10"
     guidetolerance="10"
     inkscape:pageopacity="0"
     inkscape:pageshadow="2"
     inkscape:window-width="1920"
     inkscape:window-height="1017"
     id="namedview16"
     showgrid="false"
     inkscape:zoom="1.84375"
     inkscape:cx="64"
     inkscape:cy="64"
     inkscape:window-x="-8"
     inkscape:window-y="-8"
     inkscape:window-maximized="1"
     inkscape:current-layer="svg14" /><path
     d="M 21.664048,103.808 40.060029,83.648097 49.636017,93.224084 87.939868,54.920134 102.30375,69.284115 112.384,58.448171 V 103.808 Z"
     id="path2"
     inkscape:connector-curvature="0"
     style="fill:#75a0cb;fill-opacity:1;stroke-width:0.19844961;stroke-linejoin:round" /><path
     d="m 40.060029,30.980165 c 0,10.577364 -8.574611,19.151975 -19.151975,19.151975 -1.653284,0 -3.761613,-0.362072 -5.291957,-0.755994 v -24.192 h 23.183678 c 0.393922,1.530344 1.260254,4.142735 1.260254,5.796019 z"
     id="path4"
     inkscape:connector-curvature="0"
     style="fill:#75a0cb;fill-opacity:1;stroke-width:0.19844961;stroke-linejoin:round" /><path
     d="M 8.9302303,17.293492 H 119.06977 V 111.69836 H 8.9302303 Z m 7.8671387,7.867138 v 78.67118 H 111.20223 V 25.16063 Z"
     id="path6"
     inkscape:connector-curvature="0"
     style="fill:#000000;fill-opacity:1;stroke-width:0.19844961;stroke-linejoin:round" /><path
     d="M 0.49612229,103.34462 H 8.5850967 v -8.088809 h 8.6282223 v 8.088809 h 8.089005 v 8.62859 h -8.089005 v 8.08881 H 8.5851066 v -8.08881 H 0.49612778 Z"
     id="path8"
     inkscape:connector-curvature="0"
     style="fill:#75a0cb;fill-opacity:1;stroke:#ffffff;stroke-width:0.99224806;stroke-linejoin:round;stroke-opacity:1" /><path
     d="m 102.69767,103.34462 h 8.08881 v -8.088809 h 8.62859 v 8.088809 h 8.08881 v 8.62859 h -8.08881 v 8.08881 h -8.62859 v -8.08881 h -8.08881 z"
     id="path10"
     inkscape:connector-curvature="0"
     style="fill:#75a0cb;fill-opacity:1;stroke:#ffffff;stroke-width:0.99224806;stroke-linejoin:round;stroke-opacity:1" /><path
     d="M 0.49612229,16.026986 H 8.5850967 V 7.9379811 h 8.6282223 v 8.0890049 h 8.089005 v 8.628192 h -8.089005 v 8.089005 H 8.5851066 V 24.655178 H 0.49612778 Z"
     id="path12"
     inkscape:connector-curvature="0"
     style="fill:#75a0cb;fill-opacity:1;stroke:#ffffff;stroke-width:0.99224806;stroke-linejoin:round;stroke-opacity:1" /></svg>