<?xml version="1.0" encoding="UTF-8" standalone="no"?>
<svg
   xmlns:dc="http://purl.org/dc/elements/1.1/"
   xmlns:cc="http://creativecommons.org/ns#"
   xmlns:rdf="http://www.w3.org/1999/02/22-rdf-syntax-ns#"
   xmlns:svg="http://www.w3.org/2000/svg"
   xmlns="http://www.w3.org/2000/svg"
   version="1.1"
   viewBox="0, 0, 400,400"
   height="400"
   width="400"
   id="svg">
  <defs
     id="defs7" />
  <path
     id="path0"
     d="M 50.206,50.694 0.021,101.172 0.01,250.586 0,400 h 150.54 150.541 l 49.418,-49.805 49.418,-49.804 0.041,-150.196 L 400,0 250.195,0.108 100.391,0.215 50.206,50.694 M 357.801,28.696 c -32.18,32.815 -66.169,66.544 -67.176,66.663 -0.645,0.076 -40.635,0.097 -88.867,0.046 L 114.063,95.313 V 57.552 c 0,-20.768 0.234,-37.995 0.52,-38.281 0.287,-0.287 57.323,-0.521 126.746,-0.521 h 126.226 l -9.754,9.946 M 124.219,57.422 v 28.516 l 81.449,-0.001 h 81.449 L 315.625,57.422 344.133,28.906 H 234.176 124.219 v 28.516 m -28.906,6.641 v 31.25 H 63.871 L 32.429,95.312 63.672,64.063 c 17.183,-17.188 31.332,-31.25 31.442,-31.25 0.109,0 0.199,14.062 0.199,31.25 M 381.25,159.766 V 286.719 H 342.969 304.688 V 197.87 109.022 l 38.075,-38.105 c 20.941,-20.957 38.168,-38.104 38.281,-38.104 0.113,0 0.206,57.128 0.206,126.953 M 70.703,71.094 55.875,85.938 H 70.906 85.938 V 71.094 c 0,-8.164 -0.092,-14.844 -0.204,-14.844 -0.111,0 -6.875,6.68 -15.031,14.844 m 24.61,132.62 v 88.87 L 57.031,330.859 18.75,369.135 V 241.989 114.844 h 38.281 38.282 v 88.87 m 190.625,-2.933 v 85.938 H 200 114.063 V 200.781 114.844 H 200 285.938 v 85.937 m -0.188,143.555 -0.203,38.086 -126.456,0.198 -126.455,0.197 37.784,-38.24 37.783,-38.24 88.875,-0.044 88.874,-0.043 -0.202,38.086 m 81.438,-37.887 c 0,0.109 -14.063,14.258 -31.25,31.442 l -31.25,31.242 V 337.692 306.25 h 31.25 c 17.187,0 31.25,0.09 31.25,0.199"
     style="fill:#000000;fill-rule:evenodd;stroke:none" />
  <metadata
     id="metadata820">
    <rdf:RDF>
      <cc:Work
         rdf:about="">
        <dc:title></dc:title>
      </cc:Work>
    </rdf:RDF>
  </metadata>
</svg>
