<?xml version="1.0" encoding="UTF-8" standalone="no"?>
<svg
   xmlns:dc="http://purl.org/dc/elements/1.1/"
   xmlns:cc="http://creativecommons.org/ns#"
   xmlns:rdf="http://www.w3.org/1999/02/22-rdf-syntax-ns#"
   xmlns:svg="http://www.w3.org/2000/svg"
   xmlns="http://www.w3.org/2000/svg"
   xmlns:sodipodi="http://sodipodi.sourceforge.net/DTD/sodipodi-0.dtd"
   xmlns:inkscape="http://www.inkscape.org/namespaces/inkscape"
   version="1.1"
   width="128"
   height="128"
   viewBox="0 0 128.00 128.00"
   enable-background="new 0 0 128.00 128.00"
   xml:space="preserve"
   id="svg12"
   sodipodi:docname="cad.draw.text.zp.svg"
   inkscape:version="0.92.1 r15371"><metadata
     id="metadata18"><rdf:RDF><cc:Work
         rdf:about=""><dc:format>image/svg+xml</dc:format><dc:type
           rdf:resource="http://purl.org/dc/dcmitype/StillImage" /></cc:Work></rdf:RDF></metadata><defs
     id="defs16" /><sodipodi:namedview
     pagecolor="#ffffff"
     bordercolor="#666666"
     borderopacity="1"
     objecttolerance="10"
     gridtolerance="10"
     guidetolerance="10"
     inkscape:pageopacity="0"
     inkscape:pageshadow="2"
     inkscape:window-width="1920"
     inkscape:window-height="1017"
     id="namedview14"
     showgrid="false"
     inkscape:zoom="1.84375"
     inkscape:cx="64"
     inkscape:cy="64"
     inkscape:window-x="-8"
     inkscape:window-y="-8"
     inkscape:window-maximized="1"
     inkscape:current-layer="svg12" /><line
     x1="14.380311"
     y1="114.0243"
     x2="116.17635"
     y2="12.227847"
     id="line2"
     style="fill:none;stroke:#000000;stroke-width:4.11257267;stroke-linejoin:round;stroke-opacity:1" /><g
     aria-label="Text"
     transform="rotate(-45)"
     style="font-size:12.33771801px;stroke-width:1.02814317;fill:#75a0cb;fill-opacity:1"
     id="text6"><path
       d="m -19.254998,50.977384 h -11.449928 v 35.456057 h -4.646347 V 50.977384 h -11.422271 v -4.203838 h 27.518546 z"
       style="font-size:56.64118958px;font-family:'Segoe UI';letter-spacing:0em;fill:#75a0cb;fill-opacity:1;stroke-width:0.20562863;stroke-linejoin:round"
       id="path4495" /><path
       d="M 3.5618876,73.407074 H -16.434001 q 0.110627,4.729318 2.544428,7.301403 2.433801,2.572085 6.6929534,2.572085 4.7846318,0 8.7948722,-3.152878 v 4.259152 q -3.7336721,2.710369 -9.8734886,2.710369 -6.001532,0 -9.430979,-3.844299 -3.429447,-3.871957 -3.429447,-10.869135 0,-6.609982 3.733672,-10.758507 3.761329,-4.176182 9.3203518,-4.176182 5.559023,0 8.60127444,3.595388 3.04225136,3.595388 3.04225136,9.984116 z m -4.6463476,-3.8443 q -0.027657,-3.92727 -1.9083213,-6.112159 -1.8530076,-2.18489 -5.1718273,-2.18489 -3.2081924,0 -5.4483954,2.295517 -2.240204,2.295517 -2.765683,6.001532 z"
       style="font-size:56.64118958px;font-family:'Segoe UI';letter-spacing:0em;fill:#75a0cb;fill-opacity:1;stroke-width:0.20562863;stroke-linejoin:round"
       id="path4497" /><path
       d="m 31.135746,58.112846 -9.51395,14.326239 9.348009,13.994356 h -5.282454 l -5.559023,-9.182068 q -0.52548,-0.857361 -1.244558,-2.157232 h -0.110627 q -0.138284,0.248911 -1.299871,2.157232 l -5.669651,9.182068 H 6.5764804 L 16.228714,72.549712 6.9913329,58.112846 h 5.2824551 l 5.476052,9.679891 q 0.60845,1.078617 1.189244,2.212547 h 0.110627 L 26.12986,58.112846 Z"
       style="font-size:56.64118958px;font-family:'Segoe UI';letter-spacing:0em;fill:#75a0cb;fill-opacity:1;stroke-width:0.20562863;stroke-linejoin:round"
       id="path4499" /><path
       d="m 49.582853,86.156873 q -1.604097,0.885018 -4.231495,0.885018 -7.439688,0 -7.439688,-8.297049 V 61.984803 h -4.867602 v -3.871957 h 4.867602 v -6.914207 l 4.53572,-1.465812 v 8.380019 h 7.135463 v 3.871957 H 42.44739 v 15.957991 q 0,2.848654 0.967989,4.065554 0.967989,1.216901 3.208193,1.216901 1.714723,0 2.959281,-0.940332 z"
       style="font-size:56.64118958px;font-family:'Segoe UI';letter-spacing:0em;fill:#75a0cb;fill-opacity:1;stroke-width:0.20562863;stroke-linejoin:round"
       id="path4501" /></g><path
     d="M 0.51024858,110.57179 H 8.8918776 v -8.38142 h 8.9403214 v 8.38142 h 8.381629 v 8.94074 h -8.381629 v 8.38142 H 8.8918776 v -8.38142 H 0.51025878 Z"
     id="path8"
     inkscape:connector-curvature="0"
     style="fill:#75a0cb;fill-opacity:1;stroke-width:0.20562863;stroke-linejoin:round" /><path
     d="m 102.29642,8.7858299 h 8.38142 V 0.40420131 h 8.94073 V 8.7858299 H 128 v 8.9403221 h -8.38143 v 8.381628 h -8.94073 v -8.381628 h -8.38142 z"
     id="path10"
     inkscape:connector-curvature="0"
     style="fill:#75a0cb;fill-opacity:1;stroke-width:0.20562863;stroke-linejoin:round" /></svg>