<?xml version="1.0" encoding="UTF-8" standalone="no"?>
<svg
   xmlns:dc="http://purl.org/dc/elements/1.1/"
   xmlns:cc="http://creativecommons.org/ns#"
   xmlns:rdf="http://www.w3.org/1999/02/22-rdf-syntax-ns#"
   xmlns:svg="http://www.w3.org/2000/svg"
   xmlns="http://www.w3.org/2000/svg"
   xmlns:sodipodi="http://sodipodi.sourceforge.net/DTD/sodipodi-0.dtd"
   xmlns:inkscape="http://www.inkscape.org/namespaces/inkscape"
   version="1.1"
   width="128"
   height="128"
   viewBox="0 0 128.00 128.00"
   enable-background="new 0 0 128.00 128.00"
   xml:space="preserve"
   id="svg6"
   sodipodi:docname="cad.draw.measure.winkel.svg"
   inkscape:version="0.92.1 r15371"><metadata
     id="metadata12"><rdf:RDF><cc:Work
         rdf:about=""><dc:format>image/svg+xml</dc:format><dc:type
           rdf:resource="http://purl.org/dc/dcmitype/StillImage" /></cc:Work></rdf:RDF></metadata><defs
     id="defs10" /><sodipodi:namedview
     pagecolor="#ffffff"
     bordercolor="#666666"
     borderopacity="1"
     objecttolerance="10"
     gridtolerance="10"
     guidetolerance="10"
     inkscape:pageopacity="0"
     inkscape:pageshadow="2"
     inkscape:window-width="1920"
     inkscape:window-height="1017"
     id="namedview8"
     showgrid="false"
     inkscape:zoom="1.84375"
     inkscape:cx="64"
     inkscape:cy="64"
     inkscape:window-x="-8"
     inkscape:window-y="-8"
     inkscape:window-maximized="1"
     inkscape:current-layer="svg6" /><path
     d="m 60.689655,123.58621 v 0 c -2.286234,-5.12662 -5.376441,-9.97187 -9.110069,-14.16277 l 5.857545,0.48 0.376828,0.0463 C 53.598234,91.685403 36.314372,74.402093 18.049545,70.186037 l 0.04734,0.37749 0.479669,5.856883 C 14.384995,72.686782 9.5403048,69.596575 4.4137948,67.310341 10.183947,64.936824 16.401878,63.507968 22.615726,62.946644 l -3.756579,4.654014 -0.231173,0.313159 c 19.042869,4.395145 37.063173,22.415007 41.458207,41.457763 l 0.312607,-0.23062 4.654455,-3.75702 c -0.561213,6.2144 -1.989958,12.43234 -4.363586,18.20227 z"
     id="path2"
     inkscape:connector-curvature="0"
     style="fill:#75a0cb;fill-opacity:1;stroke-width:0.22068965;stroke-linejoin:round" /><path
     d="M 128,125.7931 H 2.2068968 V 7.2282486e-6"
     id="path4"
     inkscape:connector-curvature="0"
     style="fill:none;stroke:#000000;stroke-width:4.41379309;stroke-linejoin:miter;stroke-opacity:1" /></svg>