<?xml version="1.0" encoding="UTF-8" standalone="no"?>
<svg
   xmlns:dc="http://purl.org/dc/elements/1.1/"
   xmlns:cc="http://creativecommons.org/ns#"
   xmlns:rdf="http://www.w3.org/1999/02/22-rdf-syntax-ns#"
   xmlns:svg="http://www.w3.org/2000/svg"
   xmlns="http://www.w3.org/2000/svg"
   version="1.1"
   viewBox="0, 0, 400,400"
   height="400"
   width="400"
   id="svg">
  <defs
     id="defs1416" />
  <path
     id="path0"
     d="m 50.189995,51.185243 -50.10799975,50.586007 -0.041,149.414 -0.04099999781,149.414 H 150.32301 h 150.322 l 49.678,-50.152 49.677,-50.152 V 150.44725 0.59924306 H 250.14901 100.298 L 50.189995,51.185243 m 279.107015,6.445 -38.275,38.281 -88.48,0.001 h -88.479 v -38.282 -38.281 h 126.754 126.755 l -38.275,38.281 m -233.984015,7.032 v 31.25 h -31.442 l -31.442,-0.001 31.243,-31.249 c 17.183,-17.188 31.332,-31.25 31.442,-31.25 0.109,0 0.199,14.062 0.199,31.25 M 380.88901,286.34125 c -0.29,0.763 -8.673,0.977 -38.286,0.977 h -37.915 v -88.864 -88.865 l 38.085,-38.092007 38.086,-38.092 0.201,125.980007 c 0.11,69.289 0.033,126.419 -0.171,126.956 M 70.499995,71.115243 c -7.838,7.846 -14.25,14.525 -14.25,14.843 0,0.318 6.68,0.579 14.844,0.579 h 14.844 v -14.844 c 0,-8.164 -0.268,-14.844 -0.594,-14.844 -0.327,0 -7.007,6.419 -14.844,14.266 m 24.62,132.609007 0.199,88.672 -38.285,38.278 -38.284,38.278 v -126.624 c 0,-69.644 0.238,-126.863 0.528,-127.153 0.291,-0.291 17.429,-0.437 38.086,-0.326 l 37.558,0.203 0.198,88.672 m 190.427015,-2.734 v 85.937 h -85.547 -85.547 l -0.201,-85.156 c -0.111,-46.836 -0.033,-85.597 0.172,-86.136 0.297,-0.78 17.86,-0.94 85.748,-0.782 l 85.375,0.199 v 85.938 m -257.422015,33.984 c 0,60.586 0.265,110.156 0.59,110.156 0.324,0 13.332,-12.746 28.906,-28.324 l 28.317,-28.324 v -81.832 -81.832 h -28.907 -28.906 v 110.156 m 257.813015,109.375 v 38.281 H 159.18301 32.427995 l 38.275,-38.281 38.275015,-38.281 h 88.48 88.48 v 38.281 m 81.25,-38.082 c 0,0.109 -14.063,14.258 -31.25,31.441 l -31.25,31.243 v -31.442 -31.441 h 31.25 c 17.187,0 31.25,0.089 31.25,0.199"
     style="fill:#000000;fill-rule:evenodd;stroke:none" />
  <metadata
     id="metadata1964">
    <rdf:RDF>
      <cc:Work
         rdf:about="">
        <dc:title></dc:title>
      </cc:Work>
    </rdf:RDF>
  </metadata>
</svg>
