<?xml version="1.0" encoding="UTF-8" standalone="no"?>
<svg
   xmlns:dc="http://purl.org/dc/elements/1.1/"
   xmlns:cc="http://creativecommons.org/ns#"
   xmlns:rdf="http://www.w3.org/1999/02/22-rdf-syntax-ns#"
   xmlns:svg="http://www.w3.org/2000/svg"
   xmlns="http://www.w3.org/2000/svg"
   xmlns:sodipodi="http://sodipodi.sourceforge.net/DTD/sodipodi-0.dtd"
   xmlns:inkscape="http://www.inkscape.org/namespaces/inkscape"
   version="1.1"
   width="128"
   height="128"
   viewBox="0 0 128.00 128.00"
   enable-background="new 0 0 128.00 128.00"
   xml:space="preserve"
   id="svg6"
   sodipodi:docname="cad.draw.zprofile.svg"
   inkscape:version="0.92.1 r15371"><metadata
     id="metadata12"><rdf:RDF><cc:Work
         rdf:about=""><dc:format>image/svg+xml</dc:format><dc:type
           rdf:resource="http://purl.org/dc/dcmitype/StillImage" /><dc:title /></cc:Work></rdf:RDF></metadata><defs
     id="defs10" /><sodipodi:namedview
     pagecolor="#ffffff"
     bordercolor="#666666"
     borderopacity="1"
     objecttolerance="10"
     gridtolerance="10"
     guidetolerance="10"
     inkscape:pageopacity="0"
     inkscape:pageshadow="2"
     inkscape:window-width="1920"
     inkscape:window-height="1137"
     id="namedview8"
     showgrid="false"
     inkscape:zoom="2.6074563"
     inkscape:cx="-12.025724"
     inkscape:cy="91.493582"
     inkscape:window-x="-8"
     inkscape:window-y="-8"
     inkscape:window-maximized="1"
     inkscape:current-layer="svg6" /><path
     d="m 117.68362,124.80652 v 0 c -2.18672,-4.90347 -5.14242,-9.53783 -8.71354,-13.54631 l 5.60259,0.45911 0.36042,0.0443 C 110.90086,94.294284 94.369315,77.763263 76.8995,73.730719 l 0.04528,0.361059 0.458791,5.601951 C 73.394456,76.122614 68.760638,73.166914 63.85727,70.980193 69.376265,68.709988 75.323551,67.343326 81.266929,66.806434 l -3.593067,4.451439 -0.22111,0.299529 c 18.213991,4.203837 35.449928,21.43935 39.653658,39.653208 l 0.299,-0.22058 4.45186,-3.59349 c -0.53678,5.94391 -1.90334,11.8912 -4.17365,17.40998 z"
     id="path2"
     inkscape:connector-curvature="0"
     style="fill:#75a0cb;fill-opacity:1;stroke-width:0.21108371;stroke-linejoin:round" /><path
     style="fill:none;stroke:#000000;stroke-width:3.1177032;stroke-linejoin:miter;stroke-opacity:1"
     d="M 124.935,126.44115 H 62.493852 V 3.9025497e-6"
     id="path4"
     inkscape:connector-curvature="0" /><path
     inkscape:connector-curvature="0"
     style="fill:none;stroke:#000000;stroke-width:3.11770368;stroke-linejoin:miter;stroke-opacity:1"
     d="M 62.441148,128 V 1.5588518 H 0"
     id="path4-9" /><path
     d="m 60.776603,56.901707 v 0 c -4.90349,-2.18672 -9.537849,-5.14243 -13.546339,-8.71356 l 0.45911,5.6026 0.0443,0.36042 c -17.46941,-4.03223 -34.00047,-20.5637 -38.03302,-38.03351 l 0.36106,0.0452 5.60196,0.45879 C 12.092554,12.612517 9.136844,7.9786962 6.950114,3.0753158 4.679904,8.5943154 3.313244,14.541617 2.776344,20.485007 l 4.45145,-3.59307 0.29953,-0.22111 c 4.20385,18.214 21.4394,35.44988 39.65334,39.65362 l -0.22058,0.299 -3.5935,4.45187 c 5.94392,-0.53678 11.891219,-1.90334 17.410019,-4.17366 z"
     id="path2-3"
     inkscape:connector-curvature="0"
     style="fill:#75a0cb;fill-opacity:1;stroke-width:0.2110842;stroke-linejoin:round" /></svg>