<?xml version="1.0" encoding="UTF-8" standalone="no"?>
<svg
   xmlns:dc="http://purl.org/dc/elements/1.1/"
   xmlns:cc="http://creativecommons.org/ns#"
   xmlns:rdf="http://www.w3.org/1999/02/22-rdf-syntax-ns#"
   xmlns:svg="http://www.w3.org/2000/svg"
   xmlns="http://www.w3.org/2000/svg"
   xmlns:sodipodi="http://sodipodi.sourceforge.net/DTD/sodipodi-0.dtd"
   xmlns:inkscape="http://www.inkscape.org/namespaces/inkscape"
   version="1.1"
   width="128"
   height="128"
   viewBox="0 0 128.00 128.00"
   enable-background="new 0 0 128.00 128.00"
   xml:space="preserve"
   id="svg6"
   sodipodi:docname="cad.draw.cprofile.svg"
   inkscape:version="0.92.1 r15371"><metadata
     id="metadata12"><rdf:RDF><cc:Work
         rdf:about=""><dc:format>image/svg+xml</dc:format><dc:type
           rdf:resource="http://purl.org/dc/dcmitype/StillImage" /><dc:title /></cc:Work></rdf:RDF></metadata><defs
     id="defs10" /><sodipodi:namedview
     pagecolor="#ffffff"
     bordercolor="#666666"
     borderopacity="1"
     objecttolerance="10"
     gridtolerance="10"
     guidetolerance="10"
     inkscape:pageopacity="0"
     inkscape:pageshadow="2"
     inkscape:window-width="1920"
     inkscape:window-height="1137"
     id="namedview8"
     showgrid="false"
     inkscape:zoom="5.2149125"
     inkscape:cx="61.39612"
     inkscape:cy="80.177702"
     inkscape:window-x="-8"
     inkscape:window-y="-8"
     inkscape:window-maximized="1"
     inkscape:current-layer="svg6" /><path
     d="m 58.24014,123.58621 v 0 c -2.186721,-4.90347 -5.142421,-9.53783 -8.713535,-13.54631 l 5.602584,0.45911 0.360426,0.0443 C 51.457387,93.073947 34.925838,76.542926 17.456023,72.510382 l 0.04528,0.361059 0.458791,5.601951 C 13.950979,74.902277 9.3171636,71.946577 4.4137948,69.759856 9.9327901,67.489651 15.880074,66.122989 21.823452,65.586097 l -3.593067,4.451439 -0.22111,0.299529 c 18.213991,4.203837 35.449927,21.43935 39.653659,39.653235 l 0.299,-0.22058 4.451861,-3.59349 c -0.536785,5.94391 -1.903341,11.8912 -4.173653,17.40998 z"
     id="path2"
     inkscape:connector-curvature="0"
     style="fill:#75a0cb;fill-opacity:1;stroke-width:0.21108371;stroke-linejoin:round" /><path
     style="fill:none;stroke:#000000;stroke-width:4.41379309;stroke-linejoin:miter;stroke-opacity:1"
     d="M 128,125.7931 H 2.2068968 V 7.2282486e-6"
     id="path4" /><path
     inkscape:connector-curvature="0"
     style="fill:none;stroke:#000000;stroke-width:4.41379309;stroke-linejoin:miter;stroke-opacity:1"
     d="M 0,125.7931 H 125.7931 V 1.9056497e-5"
     id="path4-9" /><path
     d="m 69.736932,123.586 v 0 c 2.186723,-4.90349 5.142432,-9.53785 8.713557,-13.54634 l -5.602602,0.45911 -0.360419,0.0443 C 76.5197,93.073663 93.051174,76.542603 110.52098,72.51005 l -0.0452,0.36106 -0.45879,5.601964 c 4.00913,-3.571123 8.64295,-6.52683 13.54633,-8.713556 -5.519,-2.270211 -11.4663,-3.636876 -17.40969,-4.173769 l 3.59307,4.45145 0.22111,0.299529 c -18.214002,4.203847 -35.449877,21.4394 -39.653624,39.653332 l -0.298994,-0.22058 -4.451876,-3.5935 c 0.536784,5.94392 1.903348,11.89122 4.173666,17.41002 z"
     id="path2-3"
     inkscape:connector-curvature="0"
     style="fill:#75a0cb;fill-opacity:1;stroke-width:0.2110842;stroke-linejoin:round" /><rect
     style="opacity:1;fill:#000000;fill-opacity:1;stroke:none;stroke-width:4.92908096;stroke-linejoin:round;stroke-miterlimit:4;stroke-dasharray:none;stroke-opacity:1;paint-order:normal"
     id="rect5134"
     width="32"
     height="4"
     x="0"
     y="0" /><rect
     style="opacity:1;fill:#000000;fill-opacity:1;stroke:none;stroke-width:4.92908096;stroke-linejoin:round;stroke-miterlimit:4;stroke-dasharray:none;stroke-opacity:1;paint-order:normal"
     id="rect5134-8"
     width="32"
     height="4"
     x="96"
     y="1.9056497e-005" /><path
     d="m 31.724271,3.9838988 v 0 c -1.109502,2.487938 -2.609172,4.839324 -4.421093,6.8731542 l 2.842654,-0.232944 0.182869,-0.02248 c -2.045877,8.863646 -10.433632,17.25119 -19.297478,19.29723 l 0.02293,-0.183194 0.232781,-2.84233 c -2.0341555,1.81192 -4.3852676,3.311589 -6.8731491,4.421092 2.8002353,1.151862 5.8177821,1.845282 8.8333441,2.117691 L 11.424078,31.153537 11.311891,31.001562 C 20.553328,28.86861 29.298482,20.123619 31.431383,10.882219 l 0.151704,0.111918 2.258797,1.823272 C 33.56953,9.8015798 32.876162,6.7840328 31.724246,3.9838988 Z"
     id="path2-3-4"
     inkscape:connector-curvature="0"
     style="fill:#75a0cb;fill-opacity:1;stroke-width:0.1071001;stroke-linejoin:round" /><path
     d="m 123.50229,31.310505 v 0 c -2.48794,-1.109502 -4.83933,-2.609172 -6.87316,-4.421093 l 0.23295,2.842654 0.0225,0.182869 C 108.02091,27.869058 99.633366,19.481303 97.587326,10.617457 l 0.183194,0.02293 2.84233,0.232781 C 98.80093,8.8390131 97.301261,6.4879011 96.191758,4.0000191 c -1.151862,2.800236 -1.845282,5.817782 -2.117691,8.8333439 l 2.258581,-1.823051 0.151975,-0.112187 c 2.132952,9.241437 10.877947,17.986591 20.119347,20.119492 l -0.11192,0.151704 -1.82327,2.258797 c 3.01583,-0.272354 6.03337,-0.965722 8.83351,-2.117638 z"
     id="path2-3-4-5"
     inkscape:connector-curvature="0"
     style="fill:#75a0cb;fill-opacity:1;stroke-width:0.1071001;stroke-linejoin:round" /></svg>