<?xml version="1.0" encoding="UTF-8" standalone="no"?>
<svg
   xmlns:dc="http://purl.org/dc/elements/1.1/"
   xmlns:cc="http://creativecommons.org/ns#"
   xmlns:rdf="http://www.w3.org/1999/02/22-rdf-syntax-ns#"
   xmlns:svg="http://www.w3.org/2000/svg"
   xmlns="http://www.w3.org/2000/svg"
   xmlns:sodipodi="http://sodipodi.sourceforge.net/DTD/sodipodi-0.dtd"
   xmlns:inkscape="http://www.inkscape.org/namespaces/inkscape"
   version="1.1"
   width="128"
   height="128"
   viewBox="0 0 128.00 128.00"
   enable-background="new 0 0 128.00 128.00"
   xml:space="preserve"
   id="svg14"
   sodipodi:docname="cad.draw.measure.punkt.svg"
   inkscape:version="0.92.1 r15371"><metadata
     id="metadata20"><rdf:RDF><cc:Work
         rdf:about=""><dc:format>image/svg+xml</dc:format><dc:type
           rdf:resource="http://purl.org/dc/dcmitype/StillImage" /></cc:Work></rdf:RDF></metadata><defs
     id="defs18" /><sodipodi:namedview
     pagecolor="#ffffff"
     bordercolor="#666666"
     borderopacity="1"
     objecttolerance="10"
     gridtolerance="10"
     guidetolerance="10"
     inkscape:pageopacity="0"
     inkscape:pageshadow="2"
     inkscape:window-width="1920"
     inkscape:window-height="1017"
     id="namedview16"
     showgrid="false"
     inkscape:zoom="1.84375"
     inkscape:cx="-28.20339"
     inkscape:cy="64"
     inkscape:window-x="-8"
     inkscape:window-y="-8"
     inkscape:window-maximized="1"
     inkscape:current-layer="svg14" /><path
     d="m 3.118552,108.27669 h 9.543471 v -9.54324 h 10.179608 v 9.54324 h 9.543471 v 10.18007 H 22.841631 V 128 H 12.662023 v -9.54324 H 3.1185637 Z"
     id="path2"
     inkscape:connector-curvature="0"
     style="fill:#75a0cb;fill-opacity:1;stroke-width:0.23413241;stroke-linejoin:round" /><g
     id="g8"
     transform="matrix(1.170662,0,0,1.170662,0.77722802,-19.503413)"><path
       d="m 106.012,43.3324 c -13.7691,0 -27.5381,0 -41.3071,0 C 49.3068,65.9582 33.9086,88.584 18.5105,111.21 l -2.1637,-1.557 C 30.5971,88.7136 44.8474,67.7745 59.0976,46.8353 c 1.3842,-2.0338 2.6389,-4.1797 4.2793,-6.013 1.8809,-0.7379 4.039,-0.1547 6.0594,-0.1547 12.1919,0 24.3837,0 36.5757,0 z"
       id="path4"
       inkscape:connector-curvature="0"
       style="fill:#000000;fill-opacity:1;stroke-width:0.2;stroke-linejoin:round" /><path
       d="m 18.7894,110.8 7.1955,-1.1 -1.8968,2.787 -9.0636,1.53 -0.099,0.019 -0.0189,-0.1 -1.5804,-9.318 2.1056,-3.093 1.1984,7.711 z"
       id="path6"
       inkscape:connector-curvature="0"
       style="fill:#000000;fill-opacity:1;stroke-width:0.2;stroke-linejoin:round" /></g><g
     aria-label="7.7"
     style="font-size:14.04794407px;stroke-width:1.17066205"
     id="text12"><path
       d="m 94.94388,1.8101058 q -0.628774,1.0860633 -1.524299,2.7056314 -0.876473,1.6195681 -1.867267,3.6392648 -0.990795,2.019697 -2.019697,4.344253 -1.028902,2.324557 -1.924428,4.801543 -0.895526,2.476987 -1.58146,5.030188 -0.666881,2.534148 -0.971741,4.992081 h -3.353459 q 0.342967,-2.438879 1.047956,-4.973027 0.724042,-2.553201 1.619568,-4.992081 0.91458,-2.457932 1.924428,-4.725328 1.009848,-2.267395 1.962535,-4.1727692 0.952688,-1.9053742 1.733891,-3.3534586 0.800257,-1.4671382 1.276601,-2.2864491 H 77.566867 V 2.682209e-7 H 94.94388 Z"
       style="font-size:39.02206421px;font-family:'Segoe UI';letter-spacing:0em;fill:#000000;fill-opacity:1;stroke-width:0.23413241;stroke-linejoin:round"
       id="path4487" /><path
       d="m 100.98392,27.742249 q -0.87648,0 -1.505249,-0.628773 -0.60972,-0.628774 -0.60972,-1.505246 0,-0.876472 0.60972,-1.505246 0.628769,-0.647827 1.505249,-0.647827 0.89552,0 1.5243,0.647827 0.62877,0.628774 0.62877,1.505246 0,0.876472 -0.62877,1.505246 -0.62878,0.628773 -1.5243,0.628773 z"
       style="font-size:39.02206421px;font-family:'Segoe UI';letter-spacing:0em;fill:#000000;fill-opacity:1;stroke-width:0.23413241;stroke-linejoin:round"
       id="path4489" /><path
       d="m 124.43907,1.8101058 q -0.62877,1.0860633 -1.5243,2.7056314 -0.87647,1.6195681 -1.86726,3.6392648 -0.9908,2.019697 -2.0197,4.344253 -1.0289,2.324557 -1.92443,4.801543 -0.89552,2.476987 -1.58146,5.030188 -0.66688,2.534148 -0.97174,4.992081 h -3.35346 q 0.34297,-2.438879 1.04796,-4.973027 0.72404,-2.553201 1.61957,-4.992081 0.91458,-2.457932 1.92442,-4.725328 1.00985,-2.267395 1.96254,-4.1727692 0.95269,-1.9053742 1.73389,-3.3534586 0.80026,-1.4671382 1.2766,-2.2864491 H 107.06206 V 2.682209e-7 h 17.37701 z"
       style="font-size:39.02206421px;font-family:'Segoe UI';letter-spacing:0em;fill:#000000;fill-opacity:1;stroke-width:0.23413241;stroke-linejoin:round"
       id="path4491" /></g></svg>