<?xml version="1.0" encoding="UTF-8" standalone="no"?>
<svg
   xmlns:dc="http://purl.org/dc/elements/1.1/"
   xmlns:cc="http://creativecommons.org/ns#"
   xmlns:rdf="http://www.w3.org/1999/02/22-rdf-syntax-ns#"
   xmlns:svg="http://www.w3.org/2000/svg"
   xmlns="http://www.w3.org/2000/svg"
   xmlns:sodipodi="http://sodipodi.sourceforge.net/DTD/sodipodi-0.dtd"
   xmlns:inkscape="http://www.inkscape.org/namespaces/inkscape"
   version="1.1"
   width="128"
   height="128"
   viewBox="0 0 128.00 128.00"
   enable-background="new 0 0 128.00 128.00"
   xml:space="preserve"
   id="svg6816"
   sodipodi:docname="cad.change.rotate.svg"
   inkscape:version="0.92.1 r15371"><metadata
     id="metadata6822"><rdf:RDF><cc:Work
         rdf:about=""><dc:format>image/svg+xml</dc:format><dc:type
           rdf:resource="http://purl.org/dc/dcmitype/StillImage" /></cc:Work></rdf:RDF></metadata><defs
     id="defs6820" /><sodipodi:namedview
     pagecolor="#ffffff"
     bordercolor="#666666"
     borderopacity="1"
     objecttolerance="10"
     gridtolerance="10"
     guidetolerance="10"
     inkscape:pageopacity="0"
     inkscape:pageshadow="2"
     inkscape:window-width="1178"
     inkscape:window-height="947"
     id="namedview6818"
     showgrid="false"
     inkscape:zoom="1.84375"
     inkscape:cx="-28.20339"
     inkscape:cy="64"
     inkscape:window-x="0"
     inkscape:window-y="0"
     inkscape:window-maximized="0"
     inkscape:current-layer="svg6816" /><path
     d="m 49.304831,61.040434 v 2.24841 h -2.24841 v 40.471786 h 2.24841 v 2.24841 l 67.453119,1.4e-4 v -2.24855 h 2.24814 V 63.288844 h -2.24814 v -2.24841 z M 128,103.76063 v 11.24179 h -11.24205 v -2.24814 H 49.304831 v 2.24814 H 38.062645 v -11.24179 h 2.24841 V 63.288844 h -2.24841 V 52.046658 h 11.242186 v 2.248411 H 116.75795 V 52.046658 H 128 v 11.242186 h -2.24814 V 103.76063 Z M 40.311055,54.295069 v 6.745365 h 6.745366 v -6.745365 z m 78.695035,0 v 6.745365 h 6.74577 V 54.295069 Z M 40.311055,106.00904 v 6.74524 h 6.745366 v -6.74524 z m 78.695035,0 v 6.74524 h 6.74577 v -6.74524 z"
     id="path6812"
     inkscape:connector-curvature="0"
     style="fill:#000000;fill-opacity:1;stroke-width:0.26700041;stroke-linejoin:round" /><path
     d="m 14.332048,71.328494 1.56489,1.614551 -1.614552,1.56489 28.168144,29.060725 1.614418,-1.56489 1.564889,1.61455 48.434673,-46.946814 -1.56489,-1.614552 1.61442,-1.564889 -28.168007,-29.060726 -1.614552,1.564889 -1.564889,-1.614551 z m 86.239932,-24.095987 7.82445,8.072357 -8.07236,7.824581 -1.56489,-1.614552 -48.434674,46.946817 1.565023,1.61455 -8.072491,7.82445 -7.824447,-8.07249 1.614418,-1.56489 L 9.438999,79.202603 7.824447,80.767492 0,72.695002 8.072491,64.870555 9.63738,66.485106 58.071923,19.538289 l -1.564889,-1.614551 8.072357,-7.824447 7.824581,8.07249 -1.614552,1.56489 28.16814,29.060726 z M 3.179441,72.744664 7.874109,77.588052 12.717497,72.893383 8.022829,68.049996 Z m 56.5069,-54.771264 4.694669,4.843388 4.843521,-4.694669 -4.694669,-4.843387 z m -20.514443,91.90448 4.694669,4.84286 4.843521,-4.69414 -4.694669,-4.84339 z m 56.507032,-54.771264 4.69467,4.843388 4.84352,-4.694668 -4.69467,-4.843521 z"
     id="path6814"
     inkscape:connector-curvature="0"
     style="fill:#75a0cb;fill-opacity:1;stroke-width:0.26700041;stroke-linejoin:round" /></svg>