<?xml version="1.0" encoding="UTF-8" standalone="no"?>
<svg
   xmlns:dc="http://purl.org/dc/elements/1.1/"
   xmlns:cc="http://creativecommons.org/ns#"
   xmlns:rdf="http://www.w3.org/1999/02/22-rdf-syntax-ns#"
   xmlns:svg="http://www.w3.org/2000/svg"
   xmlns="http://www.w3.org/2000/svg"
   xmlns:sodipodi="http://sodipodi.sourceforge.net/DTD/sodipodi-0.dtd"
   xmlns:inkscape="http://www.inkscape.org/namespaces/inkscape"
   version="1.1"
   width="128"
   height="128"
   viewBox="0 0 128.00 128.00"
   enable-background="new 0 0 128.00 128.00"
   xml:space="preserve"
   id="svg14"
   sodipodi:docname="cad.draw.measure.lable.svg"
   inkscape:version="0.92.1 r15371"><metadata
     id="metadata20"><rdf:RDF><cc:Work
         rdf:about=""><dc:format>image/svg+xml</dc:format><dc:type
           rdf:resource="http://purl.org/dc/dcmitype/StillImage" /></cc:Work></rdf:RDF></metadata><defs
     id="defs18" /><sodipodi:namedview
     pagecolor="#ffffff"
     bordercolor="#666666"
     borderopacity="1"
     objecttolerance="10"
     gridtolerance="10"
     guidetolerance="10"
     inkscape:pageopacity="0"
     inkscape:pageshadow="2"
     inkscape:window-width="1920"
     inkscape:window-height="1017"
     id="namedview16"
     showgrid="false"
     inkscape:zoom="1.84375"
     inkscape:cx="64"
     inkscape:cy="64"
     inkscape:window-x="-8"
     inkscape:window-y="-8"
     inkscape:window-maximized="1"
     inkscape:current-layer="svg14" /><path
     d="m 3.4877487,108.39627 h 9.4854903 v -9.485718 h 10.118003 v 9.485718 h 9.48549 l 1.17e-4,10.11719 H 23.091242 V 128 H 12.973239 v -9.48654 H 3.4877487 Z"
     id="path2"
     inkscape:connector-curvature="0"
     style="fill:#75a0cb;fill-opacity:1;stroke-width:0.23271281;stroke-linejoin:round" /><g
     id="g8"
     transform="matrix(1.163564,0,0,1.163564,-10.468154,-10.076646)"><path
       d="m 116.006,35.9991 c -13.769,0 -27.5381,0 -41.307,0 C 59.3009,58.6249 43.9027,81.2507 28.5046,103.877 l -2.1637,-1.558 C 40.5912,81.3803 54.8414,60.4411 69.0917,39.502 c 1.3841,-2.0338 2.6388,-4.1797 4.2793,-6.013 1.8809,-0.7379 4.0389,-0.1547 6.0594,-0.1547 12.1919,0 24.3836,0 36.5756,0 z"
       id="path4"
       inkscape:connector-curvature="0"
       style="fill:#000000;fill-opacity:1;stroke-width:0.2;stroke-linejoin:round" /><path
       d="m 28.7834,103.467 7.1956,-1.1 -1.8968,2.787 -9.0636,1.529 -0.0991,0.019 -0.0188,-0.099 -1.5804,-9.3179 2.1056,-3.0939 1.1984,7.7118 z"
       id="path6"
       inkscape:connector-curvature="0"
       style="fill:#000000;fill-opacity:1;stroke-width:0.2;stroke-linejoin:round" /></g><g
     aria-label="DE"
     style="font-size:13.9627676px;stroke-width:1.16356397"
     id="text12"><path
       d="M 80.359533,27.1574 V -8.2328916e-7 h 7.499533 q 14.355164,0 14.355164,13.23781282328916 0,6.287487 -3.99596,10.113007 Q 94.241245,27.1574 87.556055,27.1574 Z M 83.541153,2.8786079 V 24.278791 h 4.052778 q 5.340577,0 8.313877,-2.85967 2.9733,-2.859671 2.9733,-8.105556 0,-10.4349571 -11.097794,-10.4349571 z"
       style="font-size:38.78546524px;font-family:'Segoe UI';letter-spacing:0em;fill:#000000;fill-opacity:1;stroke-width:0.23271281;stroke-linejoin:round"
       id="path4497" /><path
       d="M 121.94785,27.1574 H 107.55481 V -8.2328916e-7 h 13.78702 V 2.8786079 h -10.6054 v 9.0335291 h 9.81 v 2.85967 h -9.81 v 9.506984 h 11.21142 z"
       style="font-size:38.78546524px;font-family:'Segoe UI';letter-spacing:0em;fill:#000000;fill-opacity:1;stroke-width:0.23271281;stroke-linejoin:round"
       id="path4499" /></g></svg>