<?xml version="1.0" encoding="UTF-8" standalone="no"?>
<svg
   xmlns:dc="http://purl.org/dc/elements/1.1/"
   xmlns:cc="http://creativecommons.org/ns#"
   xmlns:rdf="http://www.w3.org/1999/02/22-rdf-syntax-ns#"
   xmlns:svg="http://www.w3.org/2000/svg"
   xmlns="http://www.w3.org/2000/svg"
   xmlns:sodipodi="http://sodipodi.sourceforge.net/DTD/sodipodi-0.dtd"
   xmlns:inkscape="http://www.inkscape.org/namespaces/inkscape"
   version="1.1"
   width="128"
   height="128"
   viewBox="0 0 128.00 128.00"
   enable-background="new 0 0 128.00 128.00"
   xml:space="preserve"
   id="svg9052"
   sodipodi:docname="cad.change.fit.svg"
   inkscape:version="0.92.1 r15371"><metadata
     id="metadata9058"><rdf:RDF><cc:Work
         rdf:about=""><dc:format>image/svg+xml</dc:format><dc:type
           rdf:resource="http://purl.org/dc/dcmitype/StillImage" /></cc:Work></rdf:RDF></metadata><defs
     id="defs9056" /><sodipodi:namedview
     pagecolor="#ffffff"
     bordercolor="#666666"
     borderopacity="1"
     objecttolerance="10"
     gridtolerance="10"
     guidetolerance="10"
     inkscape:pageopacity="0"
     inkscape:pageshadow="2"
     inkscape:window-width="1920"
     inkscape:window-height="1017"
     id="namedview9054"
     showgrid="false"
     inkscape:zoom="1.84375"
     inkscape:cx="-120.40678"
     inkscape:cy="64"
     inkscape:window-x="-8"
     inkscape:window-y="-8"
     inkscape:window-maximized="1"
     inkscape:current-layer="svg9052" /><line
     x1="50.182499"
     y1="122.45646"
     x2="120.75185"
     y2="59.854618"
     id="line9032"
     style="fill:none;stroke:#ff0000;stroke-width:3.41464567;stroke-linejoin:round;stroke-opacity:1" /><path
     d="m 53.590657,117.15123 2.270626,-2.01464 2.265959,2.55416 -2.270512,2.01464 z m 4.541138,-4.02928 2.270625,-2.0135 2.266073,2.55415 -2.270626,2.01465 z m 4.541251,-4.02814 2.270512,-2.01464 2.266072,2.55529 -2.270625,2.0135 z m 4.541137,-4.02815 2.270626,-2.01464 2.265959,2.55416 -2.270626,2.01464 z m 4.541138,-4.02814 2.270625,-2.014637 2.265959,2.554157 -2.270512,2.01464 z m 4.541251,-4.029278 2.270512,-2.013958 2.266072,2.55461 -2.270625,2.013503 z m 4.541137,-4.028257 2.270626,-2.014186 2.265959,2.554382 -2.270626,2.0143 z m 4.541138,-4.028372 2.270625,-2.014299 2.265959,2.554496 -2.270511,2.014186 z m 4.541251,-4.028485 2.270512,-2.0143 2.266073,2.554497 -2.270626,2.014185 z m 4.541137,-4.028485 2.270626,-2.014186 2.265959,2.554383 -2.270626,2.014185 z m 4.541135,-4.028486 2.27063,-2.014185 2.26596,2.554382 -2.27051,2.014186 z m 4.54125,-4.028371 2.27052,-2.0143 2.26607,2.554383 -2.27063,2.0143 z m 4.54114,-4.028485 2.27063,-2.0143 2.26618,2.554497 -2.27085,2.014185 z m 4.54137,-4.028486 2.27074,-2.014185 2.26618,2.554382 -2.27074,2.014186 z m 4.54148,-4.028485 2.2696,-2.014186 2.26618,2.554383 -2.27074,2.014186 z m -68.11809,60.42705 2.270512,-2.01464 2.266072,2.55415 -2.270625,2.01464 z"
     id="path9034"
     inkscape:connector-curvature="0"
     style="fill:#e5322b;fill-opacity:1;stroke-width:1.1382153;stroke-linejoin:round" /><line
     x1="4.6538887"
     y1="100.83038"
     x2="39.93856"
     y2="59.854618"
     id="line9036"
     style="fill:none;stroke:#ff0000;stroke-width:3.41464567;stroke-linejoin:round;stroke-opacity:1" /><path
     d="m 7.3212623,95.116301 1.9805287,-2.299992 2.587505,2.228057 -1.980495,2.29965 z m 3.9611367,-4.600097 1.980609,-2.299992 2.587504,2.22817 -1.980608,2.299992 z m 3.961103,-4.599983 1.980609,-2.299992 2.587504,2.22817 -1.980608,2.299992 z m 3.961103,-4.599984 1.980609,-2.299991 2.587504,2.228056 -1.980608,2.299992 z m 3.961217,-4.600096 1.980495,-2.299992 2.587504,2.22817 -1.980494,2.299992 z m 3.961103,-4.599984 1.980494,-2.299991 2.587619,2.22817 -1.980608,2.299992 z m 3.961103,-4.599983 1.980608,-2.299991 2.587505,2.228056 -1.980608,2.300105 z m 3.961103,-4.600097 1.980608,-2.299991 2.587505,2.22817 -1.980609,2.299991 z M 3.3601366,99.716056 5.3406995,97.415723 7.9282042,99.644349 5.9476414,101.94468 Z"
     id="path9038"
     inkscape:connector-curvature="0"
     style="fill:#ff0000;fill-opacity:1;stroke-width:1.1382153;stroke-linejoin:round" /><path
     d="m 45.966664,10.042678 v 2.343926 h -2.343927 v 42.18886 h 2.343813 v 2.343812 h 70.31439 v -2.343812 h 2.34472 v -42.18886 h -2.34472 V 10.042792 Z M 128,54.575464 V 66.294528 H 116.28094 V 63.950715 H 45.966664 v 2.343813 H 34.247486 V 54.575464 h 2.343813 V 12.386604 H 34.247486 V 0.66742666 H 45.966664 V 3.0112395 H 116.28094 V 0.66742666 H 128 V 12.386604 h -2.34359 v 42.18886 z M 36.591299,3.0112395 v 7.0315525 h 7.031438 V 3.0112395 Z m 82.034361,0 v 7.0314385 h 7.03075 V 3.0112395 Z M 36.591299,56.919276 v 7.031439 h 7.031438 v -7.031439 z m 82.034361,0 v 7.031439 h 7.03075 v -7.031439 z"
     id="path9040"
     inkscape:connector-curvature="0"
     style="fill:#75a0cb;fill-opacity:1;stroke-width:0.22764306;stroke-linejoin:round" /><line
     x1="17.174257"
     y1="73.513206"
     x2="41.076778"
     y2="5.2202878"
     id="line9042"
     style="fill:none;stroke:#ff0000;stroke-width:3.41464567;stroke-linejoin:round;stroke-opacity:1" /><path
     d="m 17.568193,67.219555 1.002654,-2.864887 3.22297,1.128085 -1.002654,2.864774 z m 2.005422,-5.729661 1.002653,-2.864888 3.222971,1.128085 -1.002768,2.864774 z m 2.005307,-5.729776 1.002768,-2.864774 3.222856,1.127971 -1.002653,2.864888 z m 2.005422,-5.729662 1.002654,-2.864774 3.22297,1.127972 -1.002654,2.864887 z m 2.005421,-5.729662 1.002654,-2.864774 3.22297,1.127972 -1.002767,2.864888 z m 2.005308,-5.729661 1.002767,-2.864774 3.222857,1.127971 -1.002654,2.864888 z m 2.005421,-5.729662 1.002654,-2.864888 3.22297,1.128085 -1.002653,2.864774 z m 2.005422,-5.729662 1.002654,-2.864888 3.22297,1.128085 -1.002768,2.864774 z m 2.005307,-5.729662 1.002768,-2.864888 3.222857,1.128086 -1.002654,2.864774 z m 2.005422,-5.729662 1.002654,-2.864887 3.22297,1.128085 -1.002654,2.864774 z m 2.005421,-5.729661 1.002654,-2.8648878 3.22297,1.1280851 -1.002767,2.8647737 z m -22.059294,63.026393 1.002654,-2.864888 3.22297,1.128085 -1.002654,2.864774 z"
     id="path9044"
     inkscape:connector-curvature="0"
     style="fill:#e5322b;fill-opacity:1;stroke-width:1.1382153;stroke-linejoin:round" /><line
     x1="63.84108"
     y1="91.724648"
     x2="123.02827"
     y2="6.3585033"
     id="line9046"
     style="fill:none;stroke:#ff0000;stroke-width:3.41464567;stroke-linejoin:round;stroke-opacity:1" /><path
     d="m 65.896813,85.763131 1.729404,-2.494285 2.806156,1.945551 -1.729404,2.494399 z m 3.458922,-4.988684 1.729405,-2.494399 2.806155,1.945665 -1.729518,2.494285 z m 3.458809,-4.988684 1.729404,-2.494398 2.806156,1.945665 -1.729404,2.494285 z m 3.458808,-4.988797 1.729405,-2.494285 2.806156,1.945551 -1.729405,2.494399 z m 3.458809,-4.988684 1.729404,-2.494285 2.806156,1.945552 -1.729404,2.494398 z m 3.458922,-4.988683 1.729404,-2.494399 2.806156,1.945665 -1.729518,2.494285 z m 3.458809,-4.988684 1.729404,-2.494399 2.806156,1.945665 -1.729404,2.494285 z m 3.458808,-4.988684 1.729405,-2.494398 2.806155,1.945551 -1.729404,2.494399 z m 3.458809,-4.988797 1.729404,-2.494285 2.806157,1.945551 -1.729405,2.494399 z m 3.458808,-4.988684 1.729523,-2.494285 2.80615,1.945552 -1.72952,2.494398 z m 3.458923,-4.988683 1.7294,-2.494285 2.80616,1.945551 -1.7294,2.494285 z m 3.45881,-4.988684 1.7294,-2.494399 2.80616,1.945665 -1.72941,2.494285 z m 3.45881,-4.988684 1.7294,-2.494399 2.80638,1.945552 -1.72963,2.494399 z m 3.45892,-4.988683 1.72906,-2.494399 2.80684,1.945551 -1.73009,2.494399 z m 3.45915,-4.988798 1.72895,-2.494285 2.8057,1.945552 -1.72895,2.494398 z m 3.4579,-4.988684 1.73008,-2.494398 2.8057,1.945665 -1.72894,2.494285 z m 3.45903,-4.9886829 0.387,-0.5581808 2.80684,1.9456652 -0.387,0.5580669 z m -58.799856,84.8079629 1.729405,-2.494285 2.806156,1.945552 -1.729405,2.494398 z"
     id="path9048"
     inkscape:connector-curvature="0"
     style="fill:#e5322b;fill-opacity:1;stroke-width:1.1382153;stroke-linejoin:round" /><path
     d="m 20.769196,75.762202 -0.596766,1.253744 -1.289371,-0.613725 -10.741667,22.567166 1.289359,0.614636 -0.59671,1.253177 38.682075,18.41177 0.596766,-1.25318 1.289485,0.6135 10.741565,-22.568076 -1.289371,-0.613611 0.596767,-1.253858 z m 33.790765,45.302218 -2.983831,6.26815 -6.446965,-3.06863 0.596766,-1.25317 L 7.0437768,104.599 6.4470219,105.85217 0,102.78354 2.9837744,96.515395 4.2731788,97.128893 15.014835,74.561044 l -1.289484,-0.613726 2.983831,-6.268834 6.446965,3.068628 -0.596766,1.253744 38.682132,18.411656 0.596766,-1.253744 6.447079,3.068515 -2.983832,6.268606 -1.28937,-0.613498 -10.741679,22.567389 z M 17.401786,69.545954 15.611601,73.3073 l 3.868111,1.841177 1.790299,-3.761346 z m 45.129211,21.480284 -1.790299,3.761232 3.868224,1.841746 1.790299,-3.761801 z m -58.8545731,7.35583 -1.7902646,3.761802 3.8682131,1.84163 1.7902647,-3.7618 z M 48.8056,119.86246 l -1.790298,3.7618 3.868224,1.8405 1.790299,-3.76066 z"
     id="path9050"
     inkscape:connector-curvature="0"
     style="fill:#000000;fill-opacity:1;stroke-width:0.22764306;stroke-linejoin:round" /></svg>