<?xml version="1.0" encoding="UTF-8" standalone="no"?>
<svg
   xmlns:dc="http://purl.org/dc/elements/1.1/"
   xmlns:cc="http://creativecommons.org/ns#"
   xmlns:rdf="http://www.w3.org/1999/02/22-rdf-syntax-ns#"
   xmlns:svg="http://www.w3.org/2000/svg"
   xmlns="http://www.w3.org/2000/svg"
   xmlns:sodipodi="http://sodipodi.sourceforge.net/DTD/sodipodi-0.dtd"
   xmlns:inkscape="http://www.inkscape.org/namespaces/inkscape"
   version="1.1"
   width="128"
   height="128"
   viewBox="0 0 128.00 128.00"
   enable-background="new 0 0 128.00 128.00"
   xml:space="preserve"
   id="svg5121"
   sodipodi:docname="cad.view.magnifyminus.svg"
   inkscape:version="0.92.1 r15371"><metadata
     id="metadata5127"><rdf:RDF><cc:Work
         rdf:about=""><dc:format>image/svg+xml</dc:format><dc:type
           rdf:resource="http://purl.org/dc/dcmitype/StillImage" /></cc:Work></rdf:RDF></metadata><defs
     id="defs5125" /><sodipodi:namedview
     pagecolor="#ffffff"
     bordercolor="#666666"
     borderopacity="1"
     objecttolerance="10"
     gridtolerance="10"
     guidetolerance="10"
     inkscape:pageopacity="0"
     inkscape:pageshadow="2"
     inkscape:window-width="1920"
     inkscape:window-height="1017"
     id="namedview5123"
     showgrid="false"
     inkscape:zoom="1.84375"
     inkscape:cx="-28.20339"
     inkscape:cy="64"
     inkscape:window-x="-8"
     inkscape:window-y="-8"
     inkscape:window-maximized="1"
     inkscape:current-layer="svg5121" /><path
     style="fill:#000000;fill-opacity:1;stroke-width:0.20645162;stroke-linejoin:round"
     d="M 79.728516 0 C 53.069418 -1.4210855e-014 31.458984 21.61033 31.458984 48.269531 C 31.458984 57.400164 33.99369 65.939774 38.398438 73.220703 L 3.3925781 108.22266 C -1.1316121 112.74705 -1.1316327 120.08303 3.3925781 124.60742 C 7.9167693 129.13181 15.253163 129.13181 19.777344 124.60742 L 54.628906 89.753906 C 62.060545 94.005158 70.597987 96.541016 79.728516 96.541016 C 106.38782 96.541016 128 74.928629 128 48.269531 C 128 21.61033 106.38782 0 79.728516 0 z M 79.728516 15.447266 C 81.994542 15.447266 84.206984 15.676035 86.34375 16.113281 C 88.480516 16.550527 90.542352 17.194897 92.505859 18.025391 C 94.469367 18.855884 96.33578 19.872992 98.082031 21.052734 C 99.828282 22.232477 101.45446 23.575553 102.93945 25.060547 C 104.42445 26.545541 105.76752 28.171723 106.94727 29.917969 C 108.12701 31.664215 109.14411 33.530641 109.97461 35.494141 C 110.8051 37.457641 111.44947 39.517541 111.88672 41.654297 C 112.32396 43.791053 112.55273 46.003518 112.55273 48.269531 C 112.55273 50.53557 112.32396 52.747993 111.88672 54.884766 C 111.44947 57.021538 110.8051 59.083365 109.97461 61.046875 C 109.14411 63.010385 108.12701 64.876797 106.94727 66.623047 C 105.76752 68.369297 104.42445 69.995475 102.93945 71.480469 C 101.45446 72.965462 99.828282 74.308541 98.082031 75.488281 C 96.33578 76.668022 94.469367 77.685135 92.505859 78.515625 C 90.542352 79.346115 88.480516 79.990491 86.34375 80.427734 C 84.206984 80.864978 81.994542 81.09375 79.728516 81.09375 C 77.46249 81.09375 75.250044 80.864978 73.113281 80.427734 C 70.976518 79.990491 68.916628 79.346115 66.953125 78.515625 C 64.989622 77.685135 63.123198 76.668022 61.376953 75.488281 C 59.630708 74.308541 58.004522 72.965462 56.519531 71.480469 C 55.034541 69.995475 53.691457 68.369297 52.511719 66.623047 C 51.33198 64.876797 50.314865 63.010385 49.484375 61.046875 C 48.653885 59.083365 48.009509 57.021538 47.572266 54.884766 C 47.135022 52.747993 46.90625 50.53557 46.90625 48.269531 C 46.90625 46.003518 47.135022 43.791053 47.572266 41.654297 C 48.009509 39.517541 48.653885 37.457641 49.484375 35.494141 C 50.314865 33.530641 51.33198 31.664215 52.511719 29.917969 C 53.691457 28.171723 55.034541 26.545541 56.519531 25.060547 C 58.004522 23.575553 59.630708 22.232477 61.376953 21.052734 C 63.123198 19.872992 64.989622 18.855884 66.953125 18.025391 C 68.916628 17.194897 70.976518 16.550527 73.113281 16.113281 C 75.250044 15.676035 77.46249 15.447266 79.728516 15.447266 z "
     id="path5133" /><path
     style="fill:#75a0cb;fill-opacity:1;stroke-width:0.20645162;stroke-linejoin:round"
     d="M 100.96846,42.47798 V 54.06291 H 58.490319 V 42.47798 Z"
     id="path5119" /></svg>