<?xml version="1.0" encoding="UTF-8" standalone="no"?>
<svg
   xmlns:dc="http://purl.org/dc/elements/1.1/"
   xmlns:cc="http://creativecommons.org/ns#"
   xmlns:rdf="http://www.w3.org/1999/02/22-rdf-syntax-ns#"
   xmlns:svg="http://www.w3.org/2000/svg"
   xmlns="http://www.w3.org/2000/svg"
   xmlns:sodipodi="http://sodipodi.sourceforge.net/DTD/sodipodi-0.dtd"
   xmlns:inkscape="http://www.inkscape.org/namespaces/inkscape"
   version="1.1"
   width="128"
   height="128"
   viewBox="0 0 128 128"
   enable-background="new 0 0 76.00 76.00"
   xml:space="preserve"
   id="svg6333"
   sodipodi:docname="cad.align.matrix.svg"
   inkscape:version="0.92.1 r15371"><metadata
     id="metadata6339"><rdf:RDF><cc:Work
         rdf:about=""><dc:format>image/svg+xml</dc:format><dc:type
           rdf:resource="http://purl.org/dc/dcmitype/StillImage" /><dc:title></dc:title></cc:Work></rdf:RDF></metadata><defs
     id="defs6337" /><sodipodi:namedview
     pagecolor="#ffffff"
     bordercolor="#666666"
     borderopacity="1"
     objecttolerance="10"
     gridtolerance="10"
     guidetolerance="10"
     inkscape:pageopacity="0"
     inkscape:pageshadow="2"
     inkscape:window-width="1920"
     inkscape:window-height="1137"
     id="namedview6335"
     showgrid="false"
     inkscape:zoom="3.1052632"
     inkscape:cx="38"
     inkscape:cy="38"
     inkscape:window-x="-8"
     inkscape:window-y="-8"
     inkscape:window-maximized="1"
     inkscape:current-layer="svg6333" /><path
     d="M 79.059056,-3.764717e-4 H 101.64736 V 22.587925 H 79.059056 Z M 79.05868,26.353019 H 101.6466 V 48.94132 H 79.05868 Z M 105.41132,3.764717e-4 h 22.5883 V 22.588302 h -22.5883 z m 0,26.3526425283 h 22.5883 V 48.94132 h -22.5883 z M 26.352642,3.764717e-4 H 48.940944 V 22.588302 H 26.352642 Z m 0,26.3526425283 H 48.940944 V 48.94132 H 26.352642 Z M 52.705661,0 H 75.293963 V 22.588302 H 52.705661 Z m 0,26.353019 H 75.293963 V 48.940944 H 52.705661 Z M 79.05868,52.706037 h 22.5883 v 22.588302 h -22.5883 z m -52.705661,0 H 48.94132 V 75.294339 H 26.353019 Z m -3.77e-4,26.353019 H 48.940944 V 101.64736 H 26.352642 Z m 3.77e-4,26.353014 H 48.94132 V 128 H 26.353019 Z M 52.706037,52.706037 H 75.293963 V 75.294339 H 52.706037 Z m 0,26.353019 H 75.293963 V 101.64736 H 52.706037 Z M 0,3.764717e-4 H 22.587925 V 22.588302 H 0 Z M 0,26.353019 H 22.587925 V 48.94132 H 0 Z M 0,52.706037 H 22.588302 V 75.294339 H 0 Z M 0,79.059056 H 22.588302 V 101.64736 H 0 Z M 0,105.41207 H 22.588302 V 128 H 0 Z m 52.705661,0 H 75.293963 V 128 H 52.705661 Z m 3.764717,3.76472 v 15.05887 H 71.529246 V 109.17679 Z M 105.4117,52.706037 H 128 v 22.588302 h -22.5883 z m 3.76472,3.764717 v 15.058868 h 15.05886 V 56.470754 Z M 79.05868,79.059056 h 22.5883 v 22.588304 h -22.5883 z m 3.764717,3.764717 V 97.882641 H 97.882264 V 82.823773 Z M 105.4117,79.059056 H 128 v 22.588304 h -22.5883 z m 3.76472,3.764717 v 15.058868 h 15.05886 V 82.823773 Z M 79.05868,105.41207 h 22.5883 V 128 h -22.5883 z m 3.764717,3.76472 v 15.05887 H 97.882264 V 109.17679 Z M 105.4117,105.41207 H 128 V 128 h -22.5883 z m 3.76472,3.76472 v 15.05887 h 15.05886 V 109.17679 Z M 3.764717,3.764717 V 18.823585 H 18.823585 V 3.764717 Z M 56.470754,30.117736 V 45.176603 H 71.529622 V 30.117736 Z m -26.353018,0 V 45.176603 H 45.176603 V 30.117736 Z M 3.764717,56.470378 V 71.529246 H 18.823585 V 56.470378 Z m 0,-26.352642 V 45.176603 H 18.823585 V 30.117736 Z m 79.05868,0 V 45.176603 H 97.882264 V 30.117736 Z m 26.353023,0 v 15.058867 h 15.05886 V 30.117736 Z M 30.117736,3.764717 V 18.823585 H 45.176603 V 3.764717 Z m 26.353018,0 V 18.823585 H 71.529622 V 3.764717 Z M 30.117736,56.470378 V 71.529246 H 45.176603 V 56.470378 Z M 3.764717,82.823397 V 97.882264 H 18.823585 V 82.823397 Z m 26.353019,0 V 97.882264 H 45.176603 V 82.823397 Z m 26.353018,0 V 97.882264 H 71.529622 V 82.823397 Z M 3.764717,109.17642 v 15.05886 h 15.058868 v -15.05886 z m 26.353019,0 v 15.05886 H 45.176603 V 109.17642 Z M 82.823773,3.7643405 V 18.823208 H 97.882641 V 3.7643405 Z m 26.353017,0 V 18.823208 h 15.05887 V 3.7643405 Z M 82.823773,56.470378 V 71.529246 H 97.882641 V 56.470378 Z m -26.353019,0 V 71.529246 H 71.529622 V 56.470378 Z"
     id="path6331"
     inkscape:connector-curvature="0"
     style="fill:#000000;fill-opacity:1;stroke-width:0.7529434;stroke-linejoin:round" /></svg>