<?xml version="1.0" encoding="UTF-8" standalone="no"?>
<svg
   xmlns:dc="http://purl.org/dc/elements/1.1/"
   xmlns:cc="http://creativecommons.org/ns#"
   xmlns:rdf="http://www.w3.org/1999/02/22-rdf-syntax-ns#"
   xmlns:svg="http://www.w3.org/2000/svg"
   xmlns="http://www.w3.org/2000/svg"
   xmlns:sodipodi="http://sodipodi.sourceforge.net/DTD/sodipodi-0.dtd"
   xmlns:inkscape="http://www.inkscape.org/namespaces/inkscape"
   version="1.1"
   width="128"
   height="128"
   viewBox="0 0 128.00 128.00"
   enable-background="new 0 0 128.00 128.00"
   xml:space="preserve"
   id="svg14"
   sodipodi:docname="cad.draw.measure.winkelvp.svg"
   inkscape:version="0.92.1 r15371"><metadata
     id="metadata20"><rdf:RDF><cc:Work
         rdf:about=""><dc:format>image/svg+xml</dc:format><dc:type
           rdf:resource="http://purl.org/dc/dcmitype/StillImage" /></cc:Work></rdf:RDF></metadata><defs
     id="defs18" /><sodipodi:namedview
     pagecolor="#ffffff"
     bordercolor="#666666"
     borderopacity="1"
     objecttolerance="10"
     gridtolerance="10"
     guidetolerance="10"
     inkscape:pageopacity="0"
     inkscape:pageshadow="2"
     inkscape:window-width="1920"
     inkscape:window-height="1017"
     id="namedview16"
     showgrid="false"
     inkscape:zoom="1.84375"
     inkscape:cx="64"
     inkscape:cy="64"
     inkscape:window-x="-8"
     inkscape:window-y="-8"
     inkscape:window-maximized="1"
     inkscape:current-layer="svg14" /><path
     d="m 66.519685,112.88189 v 0 c -2.088214,-4.68258 -4.910765,-9.10816 -8.321008,-12.936063 l 5.350199,0.438423 0.344189,0.0423 C 60.042482,83.74405 44.255647,67.95782 27.572813,64.106935 l 0.04324,0.344693 0.438122,5.349695 C 24.225663,66.39108 19.800592,63.568529 15.11811,61.480315 20.388485,59.312378 26.067855,58.007282 31.743597,57.494576 l -3.431307,4.25091 -0.21115,0.286035 c 17.393588,4.014362 33.852977,20.47355 37.867339,37.866936 l 0.285531,-0.210646 4.251313,-3.43161 c -0.512605,5.676149 -1.8176,11.355519 -3.985638,16.625689 z"
     id="path2"
     inkscape:connector-curvature="0"
     style="fill:#75a0cb;fill-opacity:1;stroke-width:0.2015748;stroke-linejoin:round" /><path
     d="M 128,114.89764 H 13.102362 V -2.8034521e-7"
     id="path4"
     inkscape:connector-curvature="0"
     style="fill:none;stroke:#000000;stroke-width:4.03149605;stroke-linejoin:miter;stroke-opacity:1" /><path
     d="M 2.78155e-7,85.82269 H 8.21636 v -8.216391 h 8.7641 v 8.216391 h 8.21639 v 8.764069 h -8.21639 v 8.216391 H 8.2163701 V 94.586759 H 5.8502369e-6 Z"
     id="path6"
     inkscape:connector-curvature="0"
     style="fill:#75a0cb;fill-opacity:1;stroke-width:0.2015748;stroke-linejoin:round" /><path
     d="m 81.637796,111.01934 h 8.21639 v -8.21619 h 8.76407 v 8.21619 h 8.216394 v 8.76447 H 98.618256 V 128 h -8.76407 v -8.21619 h -8.21639 z"
     id="path8"
     inkscape:connector-curvature="0"
     style="fill:#75a0cb;fill-opacity:1;stroke-width:0.2015748;stroke-linejoin:round" /><path
     d="M 0.50393169,26.862059 H 8.7202971 v -8.21639 h 8.7640999 v 8.21639 h 8.216391 v 8.76407 h -8.216391 v 8.21639 H 8.7202971 v -8.21639 H 0.50393773 Z"
     id="path10"
     inkscape:connector-curvature="0"
     style="fill:#75a0cb;fill-opacity:1;stroke-width:0.2015748;stroke-linejoin:round" /><path
     d="m 25.19685,111.01934 h 8.216391 v -8.21619 h 8.764069 v 8.21619 h 8.216391 v 8.76447 H 42.17731 V 128 h -8.764069 v -8.21619 H 25.19685 Z"
     id="path12"
     inkscape:connector-curvature="0"
     style="fill:#75a0cb;fill-opacity:1;stroke-width:0.2015748;stroke-linejoin:round" /></svg>