<?xml version="1.0" encoding="UTF-8" standalone="no"?>
<svg
   xmlns:dc="http://purl.org/dc/elements/1.1/"
   xmlns:cc="http://creativecommons.org/ns#"
   xmlns:rdf="http://www.w3.org/1999/02/22-rdf-syntax-ns#"
   xmlns:svg="http://www.w3.org/2000/svg"
   xmlns="http://www.w3.org/2000/svg"
   xmlns:sodipodi="http://sodipodi.sourceforge.net/DTD/sodipodi-0.dtd"
   xmlns:inkscape="http://www.inkscape.org/namespaces/inkscape"
   version="1.1"
   width="128"
   height="128"
   viewBox="0 0 128.00 128.00"
   enable-background="new 0 0 128.00 128.00"
   xml:space="preserve"
   id="svg10"
   sodipodi:docname="cad.draw.tools.fasen.svg"
   inkscape:version="0.92.1 r15371"><metadata
     id="metadata16"><rdf:RDF><cc:Work
         rdf:about=""><dc:format>image/svg+xml</dc:format><dc:type
           rdf:resource="http://purl.org/dc/dcmitype/StillImage" /></cc:Work></rdf:RDF></metadata><defs
     id="defs14" /><sodipodi:namedview
     pagecolor="#ffffff"
     bordercolor="#666666"
     borderopacity="1"
     objecttolerance="10"
     gridtolerance="10"
     guidetolerance="10"
     inkscape:pageopacity="0"
     inkscape:pageshadow="2"
     inkscape:window-width="1920"
     inkscape:window-height="1017"
     id="namedview12"
     showgrid="false"
     inkscape:zoom="1.84375"
     inkscape:cx="64"
     inkscape:cy="64"
     inkscape:window-x="-8"
     inkscape:window-y="-8"
     inkscape:window-maximized="1"
     inkscape:current-layer="svg10" /><line
     x1="2.0317461"
     y1="128.00002"
     x2="2.0317461"
     y2="62.899513"
     id="line2"
     style="fill:none;stroke:#000000;stroke-width:4.0634923;stroke-linejoin:miter;stroke-opacity:1" /><path
     d="M 0,51.38622 V 40.550308 H 4.0634921 V 51.38622 Z M 0,37.84128 V 27.005267 H 4.0634921 V 37.84128 Z M 0,24.29634 V 13.460327 H 4.0634921 V 24.29634 Z M 0,10.751299 V -5.2684902e-6 H 4.1481244 V 4.0634819 H 2.031746 L 4.0634921,2.0317359 V 10.751299 Z M 6.8571124,-5.2684902e-6 H 17.693054 V 4.0634819 H 6.8571124 Z m 13.5449706,0 H 31.238095 V 4.0634819 H 20.402083 Z m 13.544939,0 H 44.783035 V 4.0634819 H 33.947022 Z m 13.545041,0 H 58.327975 V 4.0634819 H 47.492063 Z m 13.54494,0 h 4.994845 V 4.0634819 H 61.037003 Z M 0,64.931261 v -2.031746 -8.804267 h 4.0634921 v 8.804267 2.031746 z"
     id="path4"
     inkscape:connector-curvature="0"
     style="fill:#000000;fill-opacity:1;stroke-width:1.01587307;stroke-linejoin:round" /><line
     x1="64.000099"
     y1="2.0317359"
     x2="128"
     y2="2.0317359"
     id="line6"
     style="fill:none;stroke:#000000;stroke-width:4.0634923;stroke-linejoin:miter;stroke-opacity:1" /><line
     x1="62.984127"
     y1="2.0317562"
     x2="2.0317461"
     y2="55.873028"
     id="line8"
     style="fill:none;stroke:#75a0cb;stroke-width:4.0634923;stroke-linejoin:miter;stroke-opacity:1" /></svg>