<?xml version="1.0" encoding="UTF-8" standalone="no"?>
<svg
   xmlns:dc="http://purl.org/dc/elements/1.1/"
   xmlns:cc="http://creativecommons.org/ns#"
   xmlns:rdf="http://www.w3.org/1999/02/22-rdf-syntax-ns#"
   xmlns:svg="http://www.w3.org/2000/svg"
   xmlns="http://www.w3.org/2000/svg"
   xmlns:sodipodi="http://sodipodi.sourceforge.net/DTD/sodipodi-0.dtd"
   xmlns:inkscape="http://www.inkscape.org/namespaces/inkscape"
   version="1.1"
   width="128"
   height="128"
   viewBox="0 0 128.00 128.00"
   enable-background="new 0 0 128.00 128.00"
   xml:space="preserve"
   id="svg12341"
   sodipodi:docname="cad.draw.measure.svg"
   inkscape:version="0.92.1 r15371"><metadata
     id="metadata12347"><rdf:RDF><cc:Work
         rdf:about=""><dc:format>image/svg+xml</dc:format><dc:type
           rdf:resource="http://purl.org/dc/dcmitype/StillImage" /><dc:title></dc:title></cc:Work></rdf:RDF></metadata><defs
     id="defs12345" /><sodipodi:namedview
     pagecolor="#ffffff"
     bordercolor="#666666"
     borderopacity="1"
     objecttolerance="10"
     gridtolerance="10"
     guidetolerance="10"
     inkscape:pageopacity="0"
     inkscape:pageshadow="2"
     inkscape:window-width="823"
     inkscape:window-height="692"
     id="namedview12343"
     showgrid="false"
     inkscape:zoom="1.84375"
     inkscape:cx="8.9491525"
     inkscape:cy="64"
     inkscape:window-x="0"
     inkscape:window-y="0"
     inkscape:window-maximized="0"
     inkscape:current-layer="svg12341" /><path
     fill="#000000"
     fill-opacity="1"
     stroke-width="0.2"
     stroke-linejoin="round"
     d="M -2.54313e-006,101.333L 10.6667,101.333L 10.6667,117.333L 117.333,117.333L 117.333,101.333L 128,101.333L 128,117.333L 128,128L -2.54313e-006,128L -2.54313e-006,117.333L -2.54313e-006,101.333 Z "
     id="path12335" /><g
     aria-label="5.3"
     transform="matrix(1.0000000000000000 0.0000000000000000 0.0000000000000000 1.0000000000000000 6.00 106.00)"
     style="stroke:#75a0cb;stroke-opacity:1"
     id="text12339"><path
       d="m 42.27538,-19.108995 q 0,4.580923 -1.570602,8.28929 -1.570603,3.7083665 -4.493668,6.369665 -2.879438,2.6612984 -6.980455,4.10101725 -4.101017,1.43971885 -9.118219,1.43971885 -8.725569,0 -12.9574697,-2.6176706 v -7.5912447 q 6.3696647,4.1010172 13.0447247,4.1010172 3.402972,0 6.107898,-1.0034404 2.748555,-1.0034404 4.66818,-2.7921819 1.919625,-1.7887417 2.923065,-4.3191567 1.047068,-2.530415 1.047068,-5.540736 0,-6.107898 -4.101017,-9.554498 -4.101017,-3.490227 -11.910401,-3.490227 -1.265207,0 -2.661298,0.04363 -1.396091,0.04363 -2.792182,0.130883 -1.396091,0.04363 -2.748555,0.130884 -1.3088349,0.08726 -2.3995309,0.218139 l 2.1377639,-31.368419 h 28.92526 v 6.456921 H 16.665836 l -1.265207,18.367322 q 1.396091,-0.08726 2.966693,-0.130884 1.570602,-0.08726 2.792182,-0.08726 4.973574,0 8.90008,1.308836 3.926506,1.308835 6.631432,3.751994 2.748554,2.399532 4.144645,5.933387 1.439719,3.490227 1.439719,7.853012 z"
       style="font-size:89.349823px;font-family:'Segoe UI';letter-spacing:0em;fill:#75a0cb;fill-opacity:1;stroke:#75a0cb;stroke-width:0.2;stroke-linejoin:round;stroke-opacity:1"
       id="path13442" /><path
       d="m 57.894147,0.95981255 q -2.00688,0 -3.446599,-1.43971883 -1.396091,-1.43971882 -1.396091,-3.44659962 0,-2.0068808 1.396091,-3.4465996 1.439719,-1.4833467 3.446599,-1.4833467 2.050509,0 3.490228,1.4833467 1.439719,1.4397188 1.439719,3.4465996 0,2.0068808 -1.439719,3.44659962 -1.439719,1.43971883 -3.490228,1.43971883 z"
       style="font-size:89.349823px;font-family:'Segoe UI';letter-spacing:0em;fill:#75a0cb;fill-opacity:1;stroke:#75a0cb;stroke-width:0.2;stroke-linejoin:round;stroke-opacity:1"
       id="path13444" /><path
       d="m 109.11324,-17.712904 q 0,4.2319 -1.61423,7.7221279 -1.5706,3.4465996 -4.49367,5.9333867 -2.87944,2.4431592 -6.936827,3.79562234 -4.057389,1.35246316 -8.943707,1.35246316 -8.943708,0 -14.222677,-3.4029718 v -7.6785004 q 6.326037,4.9735741 14.484444,4.9735741 3.272088,0 5.889758,-0.828929 2.661299,-0.828929 4.537296,-2.3995314 1.919625,-1.5706023 2.923063,-3.7956226 1.04707,-2.22502 1.04707,-5.017202 0,-12.259424 -17.451136,-12.259424 H 79.14091 v -6.06427 h 4.929947 q 15.444256,0 15.444256,-11.517751 0,-10.645193 -11.779518,-10.645193 -6.631432,0 -12.433935,4.45004 v -6.936827 q 5.977015,-3.577483 14.222677,-3.577483 3.926506,0 7.111338,1.090696 3.184833,1.090696 5.453485,3.053949 2.26864,1.963253 3.49022,4.711807 1.26521,2.748554 1.26521,6.06427 0,12.34668 -12.477562,15.880535 v 0.174511 q 3.184832,0.349023 5.889762,1.570603 2.70492,1.177951 4.66818,3.097576 1.96325,1.919626 3.05394,4.537296 1.13433,2.574043 1.13433,5.715248 z"
       style="font-size:89.349823px;font-family:'Segoe UI';letter-spacing:0em;fill:#75a0cb;fill-opacity:1;stroke:#75a0cb;stroke-width:0.2;stroke-linejoin:round;stroke-opacity:1"
       id="path13446" /></g></svg>