<?xml version="1.0" encoding="UTF-8" standalone="no"?>
<svg
   xmlns:dc="http://purl.org/dc/elements/1.1/"
   xmlns:cc="http://creativecommons.org/ns#"
   xmlns:rdf="http://www.w3.org/1999/02/22-rdf-syntax-ns#"
   xmlns:svg="http://www.w3.org/2000/svg"
   xmlns="http://www.w3.org/2000/svg"
   xmlns:sodipodi="http://sodipodi.sourceforge.net/DTD/sodipodi-0.dtd"
   xmlns:inkscape="http://www.inkscape.org/namespaces/inkscape"
   version="1.1"
   width="128"
   height="128"
   viewBox="0 0 128.00 128.00"
   enable-background="new 0 0 128.00 128.00"
   xml:space="preserve"
   id="svg7371"
   sodipodi:docname="cad.change.resize.svg"
   inkscape:version="0.92.1 r15371"><metadata
     id="metadata7377"><rdf:RDF><cc:Work
         rdf:about=""><dc:format>image/svg+xml</dc:format><dc:type
           rdf:resource="http://purl.org/dc/dcmitype/StillImage" /></cc:Work></rdf:RDF></metadata><defs
     id="defs7375" /><sodipodi:namedview
     pagecolor="#ffffff"
     bordercolor="#666666"
     borderopacity="1"
     objecttolerance="10"
     gridtolerance="10"
     guidetolerance="10"
     inkscape:pageopacity="0"
     inkscape:pageshadow="2"
     inkscape:window-width="1920"
     inkscape:window-height="1017"
     id="namedview7373"
     showgrid="false"
     inkscape:zoom="1.84375"
     inkscape:cx="-28.20339"
     inkscape:cy="64"
     inkscape:window-x="-8"
     inkscape:window-y="-8"
     inkscape:window-maximized="1"
     inkscape:current-layer="svg7371" /><path
     d="m 7.465621,89.945444 v 1.451827 H 5.972497 V 117.5304 h 1.493124 v 1.45195 h 44.793966 v -1.45195 h 1.493125 V 91.397271 H 52.259587 V 89.945444 Z M 59.725209,117.5304 v 7.25973 h -7.465622 v -1.45195 H 7.465621 v 1.45195 H 0 V 117.5304 H 1.4931243 V 91.397271 H 0 v -7.259254 h 7.465621 v 1.451827 h 44.793966 v -1.451827 h 7.465622 v 7.259254 H 58.232085 V 117.5304 Z M 1.4931243,85.589844 v 4.3556 H 5.972497 v -4.3556 z m 52.2595877,0 v 4.3556 h 4.479373 v -4.3556 z M 1.4931243,118.98235 v 4.35583 H 5.972497 v -4.35583 z m 52.2595877,0 v 4.35583 h 4.479373 v -4.35583 z"
     id="path7367"
     inkscape:connector-curvature="0"
     style="fill:#000000;fill-opacity:1;stroke-width:0.23802395;stroke-linejoin:round" /><path
     d="m 42.225807,13.012651 v 2.450813 h -2.450814 v 44.112742 h 2.450695 V 62.0269 h 73.520842 v -2.450694 h 2.45164 V 15.463464 h -2.45164 V 13.01277 Z M 128,59.576206 V 71.829679 H 115.74653 V 69.378984 H 42.225807 v 2.450695 H 29.972214 V 59.576206 h 2.450695 V 15.463464 H 29.972214 V 3.2098721 H 42.225807 V 5.6605667 H 115.74653 V 3.2098721 H 128 V 15.463464 h -2.45046 V 59.576206 Z M 32.422909,5.6605667 V 13.01277 h 7.352084 V 5.6605667 Z m 85.775261,0 v 7.3520843 h 7.35137 V 5.6605667 Z M 32.422909,62.0269 v 7.352084 h 7.352084 V 62.0269 Z m 85.775261,0 v 7.352084 h 7.35137 V 62.0269 Z"
     id="path7369"
     inkscape:connector-curvature="0"
     style="fill:#75a0cb;fill-opacity:1;stroke-width:0.23802395;stroke-linejoin:round" /></svg>