<?xml version="1.0" encoding="UTF-8" standalone="no"?>
<svg
   xmlns:dc="http://purl.org/dc/elements/1.1/"
   xmlns:cc="http://creativecommons.org/ns#"
   xmlns:rdf="http://www.w3.org/1999/02/22-rdf-syntax-ns#"
   xmlns:svg="http://www.w3.org/2000/svg"
   xmlns="http://www.w3.org/2000/svg"
   xmlns:sodipodi="http://sodipodi.sourceforge.net/DTD/sodipodi-0.dtd"
   xmlns:inkscape="http://www.inkscape.org/namespaces/inkscape"
   version="1.1"
   width="128"
   height="128"
   viewBox="0 0 128.00 128.00"
   enable-background="new 0 0 128.00 128.00"
   xml:space="preserve"
   id="svg6247"
   sodipodi:docname="cad.view.magnifyglass.svg"
   inkscape:version="0.92.1 r15371"><metadata
     id="metadata6253"><rdf:RDF><cc:Work
         rdf:about=""><dc:format>image/svg+xml</dc:format><dc:type
           rdf:resource="http://purl.org/dc/dcmitype/StillImage" /></cc:Work></rdf:RDF></metadata><defs
     id="defs6251" /><sodipodi:namedview
     pagecolor="#ffffff"
     bordercolor="#666666"
     borderopacity="1"
     objecttolerance="10"
     gridtolerance="10"
     guidetolerance="10"
     inkscape:pageopacity="0"
     inkscape:pageshadow="2"
     inkscape:window-width="1920"
     inkscape:window-height="1017"
     id="namedview6249"
     showgrid="false"
     inkscape:zoom="1.84375"
     inkscape:cx="64"
     inkscape:cy="64"
     inkscape:window-x="-8"
     inkscape:window-y="-8"
     inkscape:window-maximized="1"
     inkscape:current-layer="svg6247" /><path
     d="M 79.729337,0 C 106.38864,0 128,21.611423 128,48.270567 c 0,26.659041 -21.61136,48.270454 -48.270663,48.270454 -9.13053,0 -17.669059,-2.535014 -25.100699,-6.786257 L 19.776713,124.60672 c -4.524181,4.52437 -11.8593458,4.52437 -16.3835577,0 -4.5242099,-4.52438 -4.5242007,-11.85959 -1.04e-5,-16.38397 L 38.398547,73.220502 C 33.993798,65.939588 31.458778,57.401077 31.458778,48.270567 31.458778,21.611423 53.070238,0 79.729337,0 Z m 0,15.446584 c -18.128208,0 -32.824054,14.695815 -32.824054,32.823983 0,18.128169 14.695846,32.823983 32.824054,32.823983 18.128208,0 32.823953,-14.695814 32.823953,-32.823983 0,-18.128065 -14.695848,-32.823983 -32.823953,-32.823983 z"
     id="path6245"
     inkscape:connector-curvature="0"
     style="fill:#000000;fill-opacity:1;stroke-width:0.20645142;stroke-linejoin:round" /></svg>