<?xml version="1.0" encoding="UTF-8" standalone="no"?>
<svg
   xmlns:dc="http://purl.org/dc/elements/1.1/"
   xmlns:cc="http://creativecommons.org/ns#"
   xmlns:rdf="http://www.w3.org/1999/02/22-rdf-syntax-ns#"
   xmlns:svg="http://www.w3.org/2000/svg"
   xmlns="http://www.w3.org/2000/svg"
   version="1.1"
   viewBox="0, 0, 400,400"
   height="400"
   width="400"
   id="svg">
  <defs
     id="defs7" />
  <path
     id="path0"
     d="M 50.584,50.588 0,101.176 V 250.588 400 H 150.588 301.176 L 350.588,350.584 400,301.167 V 150.584 0 H 250.584 101.167 L 50.584,50.588 m 279.494,6.443 -38.275,38.281 -88.48,0.001 H 114.844 V 57.031 18.75 h 126.755 126.754 l -38.275,38.281 m -205.859,0 v 28.907 h 81.84 l 81.84,-0.001 28.898,-28.906 28.898,-28.906 H 234.957 124.219 v 28.906 m -28.906,7.032 v 31.25 H 63.871 L 32.429,95.312 63.672,64.063 c 17.183,-17.188 31.332,-31.25 31.442,-31.25 0.109,0 0.199,14.062 0.199,31.25 M 381.67,285.742 c -0.29,0.763 -8.673,0.977 -38.286,0.977 H 305.469 V 197.855 108.99 l 38.086,-38.092 38.086,-38.092 0.2,125.98 c 0.111,69.289 0.034,126.419 -0.171,126.956 M 343.16,84.574 314.844,112.899 v 81.832 81.832 h 28.918 28.919 L 372.643,166.406 C 372.622,105.82 372.351,56.25 372.041,56.25 c -0.311,0 -13.307,12.746 -28.881,28.324 M 95.313,203.323 v 89.261 L 57.422,330.469 19.531,368.353 V 241.208 114.063 h 37.891 37.891 v 89.26 m 191.015,-2.932 v 85.937 l -85.742,0.199 -85.742,0.199 v -86.335 -86.335 l 85.742,0.198 85.742,0.199 v 85.938 m -162.109,0 v 76.172 h 76.172 76.172 v -76.172 -76.172 h -76.172 -76.172 v 76.172 m 162.5,143.359 v 38.281 H 159.573 32.428 l 38.275,-38.281 38.275,-38.281 h 88.871 88.87 v 38.281 m 81.25,-38.082 c 0,0.109 -14.063,14.258 -31.25,31.441 l -31.25,31.243 V 336.91 305.469 h 31.25 c 17.187,0 31.25,0.089 31.25,0.199"
     style="fill:#000000;fill-rule:evenodd;stroke:none" />
  <metadata
     id="metadata820">
    <rdf:RDF>
      <cc:Work
         rdf:about="">
        <dc:title></dc:title>
      </cc:Work>
    </rdf:RDF>
  </metadata>
</svg>
