<?xml version="1.0" encoding="UTF-8" standalone="no"?>
<svg
   xmlns:dc="http://purl.org/dc/elements/1.1/"
   xmlns:cc="http://creativecommons.org/ns#"
   xmlns:rdf="http://www.w3.org/1999/02/22-rdf-syntax-ns#"
   xmlns:svg="http://www.w3.org/2000/svg"
   xmlns="http://www.w3.org/2000/svg"
   xmlns:sodipodi="http://sodipodi.sourceforge.net/DTD/sodipodi-0.dtd"
   xmlns:inkscape="http://www.inkscape.org/namespaces/inkscape"
   version="1.1"
   width="128"
   height="128"
   viewBox="0 0 128 128"
   enable-background="new 0 0 76.00 76.00"
   xml:space="preserve"
   id="svg6333"
   sodipodi:docname="cad.align.circular.svg"
   inkscape:version="0.92.1 r15371"><metadata
     id="metadata6339"><rdf:RDF><cc:Work
         rdf:about=""><dc:format>image/svg+xml</dc:format><dc:type
           rdf:resource="http://purl.org/dc/dcmitype/StillImage" /><dc:title></dc:title></cc:Work></rdf:RDF></metadata><defs
     id="defs6337" /><sodipodi:namedview
     pagecolor="#ffffff"
     bordercolor="#666666"
     borderopacity="1"
     objecttolerance="10"
     gridtolerance="10"
     guidetolerance="10"
     inkscape:pageopacity="0"
     inkscape:pageshadow="2"
     inkscape:window-width="1920"
     inkscape:window-height="1137"
     id="namedview6335"
     showgrid="false"
     inkscape:zoom="1.5526316"
     inkscape:cx="50.886583"
     inkscape:cy="107.14832"
     inkscape:window-x="-8"
     inkscape:window-y="-8"
     inkscape:window-maximized="1"
     inkscape:current-layer="svg6333" /><path
     style="fill:#000000;fill-opacity:1;stroke-width:0.7529434;stroke-linejoin:round"
     d="M 79.058594 26.353516 L 79.058594 48.941406 L 101.64648 48.941406 L 101.64648 26.353516 L 79.058594 26.353516 z M 82.824219 30.117188 L 97.882812 30.117188 L 97.882812 45.175781 L 82.824219 45.175781 L 82.824219 30.117188 z "
     id="path4586" /><path
     style="fill:#75a0cb;fill-opacity:1;stroke-width:0.7529434;stroke-linejoin:round"
     d="M 26.353516 26.353516 L 26.353516 48.941406 L 48.941406 48.941406 L 48.941406 26.353516 L 26.353516 26.353516 z M 30.117188 30.117188 L 45.175781 30.117188 L 45.175781 45.175781 L 30.117188 45.175781 L 30.117188 30.117188 z "
     id="path4578" /><path
     style="fill:#000000;fill-opacity:1;stroke-width:0.7529434;stroke-linejoin:round"
     d="M 52.705078 0 L 52.705078 22.587891 L 75.294922 22.587891 L 75.294922 0 L 52.705078 0 z M 56.470703 3.765625 L 71.529297 3.765625 L 71.529297 18.824219 L 56.470703 18.824219 L 56.470703 3.765625 z "
     id="path4576" /><path
     style="fill:#000000;fill-opacity:1;stroke-width:0.7529434;stroke-linejoin:round"
     d="M 26.353516 79.058594 L 26.353516 101.64648 L 48.941406 101.64648 L 48.941406 79.058594 L 26.353516 79.058594 z M 30.117188 82.824219 L 45.175781 82.824219 L 45.175781 97.882812 L 30.117188 97.882812 L 30.117188 82.824219 z "
     id="path4568" /><path
     style="fill:#000000;fill-opacity:1;stroke-width:0.7529434;stroke-linejoin:round"
     d="M 0 52.705078 L 0 75.294922 L 22.587891 75.294922 L 22.587891 52.705078 L 0 52.705078 z M 3.765625 56.470703 L 18.824219 56.470703 L 18.824219 71.529297 L 3.765625 71.529297 L 3.765625 56.470703 z "
     id="path4556" /><path
     style="fill:#000000;fill-opacity:1;stroke-width:0.7529434;stroke-linejoin:round"
     d="M 52.705078 105.41211 L 52.705078 128 L 75.294922 128 L 75.294922 105.41211 L 52.705078 105.41211 z M 56.470703 109.17773 L 71.529297 109.17773 L 71.529297 124.23633 L 56.470703 124.23633 L 56.470703 109.17773 z "
     id="path4550" /><path
     style="fill:#000000;fill-opacity:1;stroke-width:0.7529434;stroke-linejoin:round"
     d="M 105.41211 52.705078 L 105.41211 75.294922 L 128 75.294922 L 128 52.705078 L 105.41211 52.705078 z M 109.17578 56.470703 L 124.23438 56.470703 L 124.23438 71.529297 L 109.17578 71.529297 L 109.17578 56.470703 z "
     id="path4546" /><path
     style="fill:#000000;fill-opacity:1;stroke-width:0.7529434;stroke-linejoin:round"
     d="M 79.058594 79.058594 L 79.058594 101.64648 L 101.64648 101.64648 L 101.64648 79.058594 L 79.058594 79.058594 z M 82.824219 82.824219 L 97.882812 82.824219 L 97.882812 97.882812 L 82.824219 97.882812 L 82.824219 82.824219 z "
     id="path4542" /><text
     xml:space="preserve"
     style="font-style:normal;font-weight:normal;font-size:40.86204529px;line-height:25.53878021px;font-family:sans-serif;letter-spacing:0px;word-spacing:0px;fill:#000000;fill-opacity:1;stroke:none;stroke-width:1.02155125px;stroke-linecap:butt;stroke-linejoin:miter;stroke-opacity:1"
     x="47.433498"
     y="76.855759"
     id="text4600"
     transform="scale(0.99760854,1.0023972)"><tspan
       sodipodi:role="line"
       id="tspan4598"
       x="47.433498"
       y="76.855759"
       style="stroke-width:1.02155125px">+</tspan></text>
</svg>