<?xml version="1.0" encoding="UTF-8" standalone="no"?>
<svg
   xmlns:dc="http://purl.org/dc/elements/1.1/"
   xmlns:cc="http://creativecommons.org/ns#"
   xmlns:rdf="http://www.w3.org/1999/02/22-rdf-syntax-ns#"
   xmlns:svg="http://www.w3.org/2000/svg"
   xmlns="http://www.w3.org/2000/svg"
   xmlns:sodipodi="http://sodipodi.sourceforge.net/DTD/sodipodi-0.dtd"
   xmlns:inkscape="http://www.inkscape.org/namespaces/inkscape"
   version="1.1"
   width="128"
   height="128"
   viewBox="0 0 128.00 128.00"
   enable-background="new 0 0 128.00 128.00"
   xml:space="preserve"
   id="svg6"
   sodipodi:docname="cad.draw.uprofile.svg"
   inkscape:version="0.92.1 r15371"><metadata
     id="metadata12"><rdf:RDF><cc:Work
         rdf:about=""><dc:format>image/svg+xml</dc:format><dc:type
           rdf:resource="http://purl.org/dc/dcmitype/StillImage" /><dc:title /></cc:Work></rdf:RDF></metadata><defs
     id="defs10" /><sodipodi:namedview
     pagecolor="#ffffff"
     bordercolor="#666666"
     borderopacity="1"
     objecttolerance="10"
     gridtolerance="10"
     guidetolerance="10"
     inkscape:pageopacity="0"
     inkscape:pageshadow="2"
     inkscape:window-width="1920"
     inkscape:window-height="1137"
     id="namedview8"
     showgrid="false"
     inkscape:zoom="3.6875"
     inkscape:cx="0.31254666"
     inkscape:cy="87.654309"
     inkscape:window-x="-8"
     inkscape:window-y="-8"
     inkscape:window-maximized="1"
     inkscape:current-layer="svg6" /><path
     d="m 58.24014,123.58621 v 0 c -2.186721,-4.90347 -5.142421,-9.53783 -8.713535,-13.54631 l 5.602584,0.45911 0.360426,0.0443 C 51.457387,93.073947 34.925838,76.542926 17.456023,72.510382 l 0.04528,0.361059 0.458791,5.601951 C 13.950979,74.902277 9.3171636,71.946577 4.4137948,69.759856 9.9327901,67.489651 15.880074,66.122989 21.823452,65.586097 l -3.593067,4.451439 -0.22111,0.299529 c 18.213991,4.203837 35.449927,21.43935 39.653659,39.653235 l 0.299,-0.22058 4.451861,-3.59349 c -0.536785,5.94391 -1.903341,11.8912 -4.173653,17.40998 z"
     id="path2"
     inkscape:connector-curvature="0"
     style="fill:#75a0cb;fill-opacity:1;stroke-width:0.21108371;stroke-linejoin:round" /><path
     style="fill:none;stroke:#000000;stroke-width:4.41379309;stroke-linejoin:miter;stroke-opacity:1"
     d="M 128,125.7931 H 2.2068968 V 7.2282486e-6"
     id="path4" /><path
     inkscape:connector-curvature="0"
     style="fill:none;stroke:#000000;stroke-width:4.41379309;stroke-linejoin:miter;stroke-opacity:1"
     d="M 0,125.7931 H 125.7931 V 1.9056497e-5"
     id="path4-9" /><path
     d="m 69.736932,123.586 v 0 c 2.186723,-4.90349 5.142432,-9.53785 8.713557,-13.54634 l -5.602602,0.45911 -0.360419,0.0443 C 76.5197,93.073663 93.051174,76.542603 110.52098,72.51005 l -0.0452,0.36106 -0.45879,5.601964 c 4.00913,-3.571123 8.64295,-6.52683 13.54633,-8.713556 -5.519,-2.270211 -11.4663,-3.636876 -17.40969,-4.173769 l 3.59307,4.45145 0.22111,0.299529 c -18.214002,4.203847 -35.449877,21.4394 -39.653624,39.653332 l -0.298994,-0.22058 -4.451876,-3.5935 c 0.536784,5.94392 1.903348,11.89122 4.173666,17.41002 z"
     id="path2-3"
     inkscape:connector-curvature="0"
     style="fill:#75a0cb;fill-opacity:1;stroke-width:0.2110842;stroke-linejoin:round" /></svg>