<?xml version="1.0" encoding="UTF-8" standalone="no"?>
<svg
   xmlns:dc="http://purl.org/dc/elements/1.1/"
   xmlns:cc="http://creativecommons.org/ns#"
   xmlns:rdf="http://www.w3.org/1999/02/22-rdf-syntax-ns#"
   xmlns:svg="http://www.w3.org/2000/svg"
   xmlns="http://www.w3.org/2000/svg"
   xmlns:sodipodi="http://sodipodi.sourceforge.net/DTD/sodipodi-0.dtd"
   xmlns:inkscape="http://www.inkscape.org/namespaces/inkscape"
   version="1.1"
   width="128"
   height="128"
   viewBox="0 0 128.00 128.00"
   enable-background="new 0 0 128.00 128.00"
   xml:space="preserve"
   id="svg6261"
   sodipodi:docname="cad.view.magnify.svg"
   inkscape:version="0.92.1 r15371"><metadata
     id="metadata6267"><rdf:RDF><cc:Work
         rdf:about=""><dc:format>image/svg+xml</dc:format><dc:type
           rdf:resource="http://purl.org/dc/dcmitype/StillImage" /></cc:Work></rdf:RDF></metadata><defs
     id="defs6265" /><sodipodi:namedview
     pagecolor="#ffffff"
     bordercolor="#666666"
     borderopacity="1"
     objecttolerance="10"
     gridtolerance="10"
     guidetolerance="10"
     inkscape:pageopacity="0"
     inkscape:pageshadow="2"
     inkscape:window-width="1920"
     inkscape:window-height="1017"
     id="namedview6263"
     showgrid="false"
     inkscape:zoom="1.84375"
     inkscape:cx="-28.20339"
     inkscape:cy="64"
     inkscape:window-x="-8"
     inkscape:window-y="-8"
     inkscape:window-maximized="1"
     inkscape:current-layer="svg6261" /><path
     d="m 78.841732,0 c 26.362518,0 47.733278,21.611423 47.733278,48.270567 0,26.659041 -21.37076,48.270454 -47.733278,48.270454 -9.028882,0 -17.472355,-2.535014 -24.82126,-6.786257 L 19.556544,124.60672 c -4.473815,4.52437 -11.7273187,4.52437 -16.2011638,0 -4.4738431,-4.52438 -4.4738339,-11.85959 -1.02e-5,-16.38397 L 37.971066,73.220502 C 33.615354,65.939588 31.108556,57.401077 31.108556,48.270567 31.108556,21.611423 52.479421,0 78.841732,0 Z m 0,15.446584 c -17.926392,0 -32.458633,14.695815 -32.458633,32.823983 0,18.128169 14.532241,32.823983 32.458633,32.823983 17.926391,0 32.458528,-14.695814 32.458528,-32.823983 0,-18.128065 -14.532239,-32.823983 -32.458528,-32.823983 z"
     id="path6255"
     inkscape:connector-curvature="0"
     style="fill:#000000;fill-opacity:1;stroke-width:0.205299;stroke-linejoin:round" /><path
     d="m 11.912217,10.026725 h 8.321491 V 1.6115682 h 8.876277 v 8.4151568 h 8.321389 v 8.976084 h -8.321389 v 8.415157 h -8.876277 v -8.415157 h -8.321491 z"
     id="path6257"
     style="fill:#75a0cb;fill-opacity:1;stroke-width:0.205299;stroke-linejoin:round"
     inkscape:connector-curvature="0" /><path
     d="M 100.48084,95.404202 H 126 v 8.975978 h -25.51916 z"
     id="path6259"
     style="fill:#75a0cb;fill-opacity:1;stroke-width:0.205299;stroke-linejoin:round"
     inkscape:connector-curvature="0" /></svg>