<?xml version="1.0" encoding="UTF-8" standalone="no"?>
<svg
   xmlns:dc="http://purl.org/dc/elements/1.1/"
   xmlns:cc="http://creativecommons.org/ns#"
   xmlns:rdf="http://www.w3.org/1999/02/22-rdf-syntax-ns#"
   xmlns:svg="http://www.w3.org/2000/svg"
   xmlns="http://www.w3.org/2000/svg"
   xmlns:sodipodi="http://sodipodi.sourceforge.net/DTD/sodipodi-0.dtd"
   xmlns:inkscape="http://www.inkscape.org/namespaces/inkscape"
   inkscape:version="1.0 (4035a4fb49, 2020-05-01)"
   sodipodi:docname="cad.edit.cut.holes.svg"
   id="svg20664"
   xml:space="preserve"
   enable-background="new 0 0 128.00 128.00"
   viewBox="0 0 128.00 128.00"
   height="128"
   width="128"
   version="1.1"><metadata
     id="metadata20670"><rdf:RDF><cc:Work
         rdf:about=""><dc:format>image/svg+xml</dc:format><dc:type
           rdf:resource="http://purl.org/dc/dcmitype/StillImage" /><dc:title></dc:title></cc:Work></rdf:RDF></metadata><defs
     id="defs20668" /><sodipodi:namedview
     inkscape:document-rotation="0"
     inkscape:current-layer="svg20664"
     inkscape:window-maximized="1"
     inkscape:window-y="-8"
     inkscape:window-x="-8"
     inkscape:cy="64"
     inkscape:cx="64"
     inkscape:zoom="1.84375"
     showgrid="false"
     id="namedview20666"
     inkscape:window-height="1137"
     inkscape:window-width="1920"
     inkscape:pageshadow="2"
     inkscape:pageopacity="0"
     guidetolerance="10"
     gridtolerance="10"
     objecttolerance="10"
     borderopacity="1"
     bordercolor="#666666"
     pagecolor="#ffffff" /><path
     fill="#000000"
     fill-opacity="1"
     stroke-width="0.2"
     stroke-linejoin="round"
     d="M 80.813583,0 C 106.87395,0 128,21.126094 128,47.186461 128,73.246828 106.87395,94.372875 80.813583,94.372875 54.753216,94.372875 33.627119,73.246828 33.627119,47.186461 33.627119,21.126094 54.753216,0 80.813583,0 Z m 0,6.023798 c -22.733453,0 -41.162651,18.42921 -41.162651,41.162663 0,22.733452 18.429198,41.162615 41.162651,41.162615 22.733447,0 41.162607,-18.429163 41.162607,-41.162615 0,-22.733453 -18.42916,-41.162663 -41.162607,-41.162663 z"
     id="path1025" /><path
     fill="#000000"
     fill-opacity="1"
     stroke-width="0.2"
     stroke-linejoin="round"
     d="M 6.7367882e-4,127.99898 V 95.999239 H 32.000418 V 127.99898 Z M 3.3683941e-4,58.666316 0,47.999286 15.999872,47.998949 V 42.665771 L 0,42.666107 3.3683941e-4,31.999744 21.333387,31.999407 V 26.666229 H 3.3683941e-4 L 6.7367882e-4,15.999872 16.000209,15.999535 V 10.666357 L 6.7367882e-4,10.666694 V 0 H 32.000081 l 3.37e-4,90.66606 H 6.7367882e-4 V 79.999367 H 16.000209 V 74.666188 H 6.7367882e-4 L 3.3683941e-4,63.999495 21.333387,63.999158 V 58.665979 Z M 95.999919,127.99865 l -10.666694,3.3e-4 -3.36e-4,-15.99953 h -5.333516 l 3.37e-4,15.99953 -10.666357,-3.3e-4 v -21.33272 h -5.333515 l 3.37e-4,21.33272 H 53.333818 l -3.37e-4,-15.99954 h -5.333178 l 3.37e-4,15.99954 H 37.333946 L 37.333609,95.998902 H 128 v 31.999408 l -10.66669,3.4e-4 v -15.99988 h -5.33352 l 3.4e-4,15.99988 h -10.6667 l -3.3e-4,-21.33305 h -5.333181 z"
     id="path2192" /></svg>
