<?xml version="1.0" encoding="UTF-8" standalone="no"?>
<svg
   width="64"
   height="64"
   viewBox="0 0 64 64"
   version="1.1"
   id="svg6"
   sodipodi:docname="MenuId.Projection.Direction.FromBottom.svg"
   xml:space="preserve"
   inkscape:version="1.3 (0e150ed6c4, 2023-07-21)"
   xmlns:inkscape="http://www.inkscape.org/namespaces/inkscape"
   xmlns:sodipodi="http://sodipodi.sourceforge.net/DTD/sodipodi-0.dtd"
   xmlns="http://www.w3.org/2000/svg"
   xmlns:svg="http://www.w3.org/2000/svg"><defs
   id="defs6" /><sodipodi:namedview
   id="namedview6"
   pagecolor="#ffffff"
   bordercolor="#000000"
   borderopacity="0.25"
   inkscape:showpageshadow="2"
   inkscape:pageopacity="0.0"
   inkscape:pagecheckerboard="0"
   inkscape:deskcolor="#d1d1d1"
   showgrid="true"
   inkscape:zoom="7.3480323"
   inkscape:cx="126.76863"
   inkscape:cy="42.800574"
   inkscape:window-width="1920"
   inkscape:window-height="991"
   inkscape:window-x="-9"
   inkscape:window-y="-9"
   inkscape:window-maximized="1"
   inkscape:current-layer="svg6"><inkscape:grid
     id="grid7"
     units="px"
     originx="0"
     originy="0"
     spacingx="1"
     spacingy="1"
     empcolor="#0099e5"
     empopacity="0.30196078"
     color="#0099e5"
     opacity="0.14901961"
     empspacing="5"
     dotted="false"
     gridanglex="30"
     gridanglez="30"
     visible="true" /></sodipodi:namedview>&#10;	&#10;	&#10;	&#10;	&#10;&#10;  <desc
   id="hotspot"
   x="4"
   y="28" /><path
   style="fill:none;stroke:#000000;stroke-width:2.49129;stroke-opacity:1"
   d="m 19.187095,16.550268 c 0,0.38055 0,0.692862 0,1.167795 0,1.15116 0,3.671194 0,4.963125 v 12.991714 c 0,1.256836 0,3.696561 0,4.817152 0,0.474906 0,0.78725 0,1.167795"
   id="path242" /><path
   style="fill:none;stroke:#000000;stroke-width:2.49129;stroke-opacity:1"
   d="m 44.732615,51.584104 c 0,0.335553 0,0.64392 0,1.167795 0,0.522422 3.5e-5,1.466264 0,2.043639 -9.7e-5,1.516125 0.247809,4.515457 -1.170502,5.390128 -1.408479,0.86861 -3.924308,0.448844 -5.544315,0.448844 H 25.901929 c -1.660475,0 -3.944113,0.343918 -5.400487,-0.478585 -0.853884,-0.48224 -1.121688,-1.250663 -1.251821,-2.148951 -0.186872,-1.289856 -0.06196,-3.864026 -0.06251,-5.1091 -2.15e-4,-0.472903 0.122845,-0.851238 -0.150026,-1.250583 -0.188566,-0.275948 -0.5945,-0.328602 -0.869083,-0.45707 -0.593798,-0.27781 -0.788971,-0.869814 -0.853662,-1.503783 -0.155532,-1.524018 -0.154286,-4.618888 0,-6.13092 0.111684,-1.094398 0.713815,-1.678963 1.872773,-1.76071 0.557203,-0.03931 0.862668,-0.02581 1.459742,0.02267 0.527375,0.0428 1.127854,0.138067 1.480467,0.610813 0.42219,0.566 0.271225,1.291539 0.271225,2.003093 0,1.556723 5.98e-4,3.114552 0,4.671178 -2.32e-4,0.611401 0.08884,1.22266 -0.271225,1.718353 -0.358468,0.493501 -0.95524,0.539562 -1.480467,0.592343 -0.691115,0.06946 -1.039284,0.02491 -1.313767,0.02491"
   id="path233" /><path
   style="fill:none;stroke:#000000;stroke-width:2.49129;stroke-opacity:1"
   d="m 44.732578,41.657854 c 0.600666,0.0275 1.250652,0.09283 1.626442,0.616675 0.39186,0.546264 0.27118,1.179359 0.271224,1.864889 1.08e-4,1.7334 0.13032,4.190701 -0.0137,5.838972 -0.05937,0.679202 -0.408129,1.129553 -1.008757,1.306784 -0.270004,0.07967 -0.549356,0.139139 -0.87517,0.161984 -0.477873,0.03348 -0.775418,0.0067 -1.167794,-0.03381 -0.371841,-0.03839 -0.805174,-0.0941 -1.154055,-0.249476 -0.793896,-0.353569 -0.794691,-1.182069 -0.864798,-1.915352 -0.170006,-1.77793 -0.323722,-4.950191 0.161859,-6.568167 0.2783,-0.927335 1.148783,-0.972701 1.857004,-1.017427 0.462603,-0.02922 0.961824,-0.01644 1.121394,-0.59753 0.398844,-1.452402 0.04641,-3.930516 0.04641,-5.83041 0,-4.338495 0.145965,-8.653218 0.145965,-12.991714 0,-1.166573 0,-3.493022 0,-4.525202 0,-0.523882 0,-0.83224 0,-1.167795"
   id="path231" /><path
   style="fill:none;stroke:#000000;stroke-width:2.49129;stroke-opacity:1"
   d="m 43.710783,6.624023 c 0.307344,0.164027 0.612709,0.260948 1.31377,0.29758 0.424289,0.02217 0.994111,0.05924 1.300705,0.476555 0.513191,0.698544 0.305011,1.890412 0.305011,2.729248 0,1.985246 0.92524,5.838995 -1.459744,6.249864 -0.711392,0.122547 -1.002716,0.06343 -1.605717,0.0021 -0.483174,-0.04913 -1.048548,-0.139015 -1.43812,-0.476216 -0.547003,-0.473481 -0.569766,-1.295202 -0.599774,-1.980455 -0.07275,-1.661392 -0.247435,-4.478803 0.137071,-5.98427 0.225064,-0.881173 1.003823,-0.852907 1.585101,-1.063155 0.181566,-0.06567 0.362825,-0.195018 0.349736,-0.551797 C 43.583622,5.911036 43.512502,5.707485 43.271618,5.310776 42.701512,4.371842 41.549944,3.71927 40.499345,3.475063 39.183714,3.169246 37.661329,3.266566 36.266092,3.266566 c -2.733135,0 -5.445866,0.145965 -8.174561,0.145965 -1.578368,0 -3.613748,-0.171376 -5.109103,0.0641 -1.151382,0.181317 -2.268543,0.942405 -2.753125,1.833576 -0.196339,0.361061 -0.237595,0.531495 -0.25985,0.873032 -0.02857,0.438704 0.184107,0.617365 0.407061,0.686845 0.705968,0.220006 1.636858,0.0363 1.938446,1.068337 0.462771,1.583664 0.0921,4.653704 0.08346,6.422194 -0.0037,0.785351 -0.03545,1.600381 -0.878446,1.935285 -0.994388,0.39506 -1.295807,0.121003 -2.186906,0.128526 -0.41417,0.0035 -1.323857,-0.08525 -1.665752,-0.498742 -0.675148,-0.816544 -0.377889,-2.257534 -0.377889,-3.316751 0,-1.276228 -0.07601,-2.678577 0.01295,-3.941308 0.03117,-0.441614 0.06851,-0.919888 0.364828,-1.269504 0.51663,-0.60958 1.376119,-0.481707 2.103674,-0.482187"
   id="path230" /><path
   style="fill:#888888;fill-opacity:1;stroke:#000000;stroke-width:1;stroke-linecap:round;stroke-linejoin:round;stroke-miterlimit:3;stroke-dasharray:none;stroke-opacity:1"
   d="m 21.724242,59.165333 c -1.034537,-0.299945 -1.124661,-0.563392 -1.197995,-3.501953 -0.07195,-2.883045 -0.03185,-3.016145 0.910497,-3.022204 0.761674,-0.0049 1.690434,-0.716205 2.024144,-1.55023 0.470524,-1.175955 0.448314,-8.088357 -0.029,-9.024421 -0.443162,-0.869093 -1.149545,-1.36461 -2.133441,-1.496579 L 20.497153,40.46247 V 29.132581 17.802692 h 0.488821 c 0.268852,0 0.839097,-0.178697 1.267211,-0.397105 1.185559,-0.604827 1.448081,-1.410245 1.576351,-4.836235 C 23.996543,8.1087416 23.664371,6.7229695 22.26984,6.0625383 21.934567,5.9037575 21.658379,5.7166162 21.656088,5.6466686 c -0.0023,-0.069947 0.363917,-0.2993413 0.813796,-0.509764 0.760878,-0.3558868 1.348505,-0.389141 8.420192,-0.4765047 8.188973,-0.1011667 9.474283,-0.021837 10.407013,0.6423259 l 0.603606,0.4298046 -0.57154,0.4472974 c -0.992197,0.7765098 -1.104695,1.3329555 -1.104695,5.4640952 0,3.40686 0.0355,3.813272 0.384924,4.406497 0.508662,0.863574 1.252331,1.396803 2.152726,1.543553 l 0.734197,0.119663 -0.04606,11.159182 c -0.02533,6.13755 -0.04698,11.216525 -0.04811,11.28661 -0.0011,0.07009 -0.345942,0.185527 -0.766241,0.256537 -0.905603,0.153 -1.620182,0.671976 -2.078473,1.509528 -0.285026,0.520897 -0.332963,1.176541 -0.332963,4.553967 0,3.441846 0.04511,4.036148 0.353389,4.655922 0.413403,0.831116 0.994506,1.256666 2.00107,1.465414 l 0.724926,0.150339 0.05363,2.41356 c 0.06253,2.81435 -0.168808,3.830063 -0.919705,4.038047 -0.719762,0.199361 -20.01709,0.16451 -20.713526,-0.03741 z m 11.475373,-13.55195 v -9.334384 h -1.347231 -1.347231 v 9.334384 9.334385 h 1.347231 1.347231 z m 3.591144,5.26166 C 36.720999,48.635045 36.663922,44.52118 36.663922,41.73312 v -5.069198 h -1.347231 -1.34723 v 4.780435 c 0,2.62924 0.05712,6.743105 0.126931,9.141923 l 0.126931,4.361488 h 1.347136 1.347137 z m -7.08993,-5.245801 c -0.03396,-4.913483 -0.105057,-8.970867 -0.157984,-9.016411 -0.05293,-0.04554 -0.691131,-0.04194 -1.418233,0.008 l -1.322003,0.09083 0.119118,0.86906 c 0.06551,0.477984 0.119118,4.494496 0.119118,8.925582 v 8.056523 h 1.360868 1.360868 z"
   id="path37" /><path
   style="fill:#888888;fill-opacity:1;stroke:#000000;stroke-width:0.0680454;stroke-linecap:round;stroke-linejoin:round;stroke-miterlimit:3;stroke-dasharray:none;stroke-opacity:1"
   d="m 27.565672,46.219857 c -0.02669,-4.31323 -0.06987,-8.107622 -0.09595,-8.431983 l -0.04742,-0.589748 0.768508,-0.04802 c 0.42268,-0.02641 0.789278,-0.02725 0.814663,-0.0019 0.06048,0.06048 0.126839,4.084318 0.184386,11.181021 l 0.04649,5.732827 h -0.811075 -0.811075 z"
   id="path38" /><path
   style="fill:#888888;fill-opacity:1;stroke:#000000;stroke-width:0.0680454;stroke-linecap:round;stroke-linejoin:round;stroke-miterlimit:3;stroke-dasharray:none;stroke-opacity:1"
   d="m 31.062738,45.590437 v -8.811883 h 0.816545 0.816545 v 8.811883 8.811883 h -0.816545 -0.816545 z"
   id="path39" /><path
   style="fill:#888888;fill-opacity:1;stroke:#000000;stroke-width:0.0680454;stroke-linecap:round;stroke-linejoin:round;stroke-miterlimit:3;stroke-dasharray:none;stroke-opacity:1"
   d="M 34.70863,53.16049 C 34.590297,49.904313 34.534612,46.337727 34.533868,41.967018 l -8.13e-4,-4.780192 h 0.774189 0.774189 l 0.04494,4.984328 c 0.04471,4.958266 0.133696,9.60911 0.216779,11.329564 l 0.04354,0.901602 h -0.816468 -0.816468 z"
   id="path40" /><path
   style="fill:#222222;fill-opacity:1;stroke:#000000;stroke-width:2;stroke-linecap:round;stroke-linejoin:round;stroke-miterlimit:3;stroke-dasharray:none;stroke-opacity:1"
   d="m 18.848583,50.016269 c -0.172227,-0.108872 -0.204136,-0.641135 -0.204136,-3.405151 0,-3.723963 -0.06071,-3.538882 1.156772,-3.526713 1.387609,0.01387 1.292138,-0.258196 1.241954,3.539199 -0.03058,2.314295 -0.09143,3.352064 -0.200631,3.421724 -0.227317,0.145013 -1.753782,0.122767 -1.993959,-0.02906 z"
   id="path41" /><path
   style="fill:#222222;fill-opacity:1;stroke:#000000;stroke-width:0.272182;stroke-linecap:round;stroke-linejoin:round;stroke-miterlimit:3;stroke-dasharray:none;stroke-opacity:1"
   d="m 43.251623,50.054584 c -0.39086,-0.07599 -0.498383,-0.873341 -0.51023,-3.783693 -0.0099,-2.427485 0.08781,-3.145685 0.443214,-3.258487 0.471084,-0.149516 1.791838,-0.11038 1.996107,0.05915 0.313165,0.259904 0.305586,6.550215 -0.0083,6.864071 -0.206583,0.206584 -1.16487,0.265932 -1.92082,0.118961 z"
   id="path42" /><path
   style="fill:#222222;fill-opacity:1;stroke:#000000;stroke-width:0.272182;stroke-linecap:round;stroke-linejoin:round;stroke-miterlimit:3;stroke-dasharray:none;stroke-opacity:1"
   d="m 43.581594,15.043568 c -0.281514,-0.05459 -0.557098,-0.144394 -0.612409,-0.199556 -0.169091,-0.168637 -0.206333,-6.0135606 -0.04029,-6.323808 0.182174,-0.3403947 0.811487,-0.4583933 1.70891,-0.3204269 l 0.680454,0.1046105 0.0951,2.7884394 c 0.106494,3.12269 0.02482,3.744397 -0.519081,3.951187 -0.380139,0.144528 -0.565439,0.144465 -1.312675,-4.46e-4 z"
   id="path43" /><path
   style="fill:#222222;fill-opacity:1;stroke:#000000;stroke-width:0.272182;stroke-linecap:round;stroke-linejoin:round;stroke-miterlimit:3;stroke-dasharray:none;stroke-opacity:1"
   d="m 18.950652,15.079465 -0.37425,-0.0595 0.0021,-3.223119 c 0.0011,-1.772715 0.05271,-3.302931 0.114579,-3.4004801 0.166871,-0.2630901 2.023491,-0.2584888 2.28765,0.00567 0.165511,0.1655108 0.19765,0.6618211 0.179529,2.7723731 -0.01214,1.413924 -0.06261,2.876976 -0.112162,3.251226 l -0.09009,0.680454 -0.816545,0.01644 c -0.4491,0.009 -0.984958,-0.01033 -1.190795,-0.04306 z"
   id="path44" /></svg>
