<?xml version="1.0" encoding="UTF-8" standalone="no"?>
<!-- Created with Inkscape (http://www.inkscape.org/) -->

<svg
   width="63.999996"
   height="63.999996"
   viewBox="0 0 16.933332 16.933332"
   version="1.1"
   id="svg1"
   xml:space="preserve"
   xmlns="http://www.w3.org/2000/svg"
   xmlns:svg="http://www.w3.org/2000/svg"><defs
     id="defs1" /><g
     id="layer1"
     transform="rotate(180,8.4666665,8.4666665)"><path
       d="m 1.0583333,14.2875 v 1.058333 1.058333 H 7.9374998 14.816666 V 15.345833 14.2875 H 7.9374998 Z"
       id="path26" /><path
       d="M 2.1166666,4.7624999 V 8.4666665 12.170833 H 3.1749999 4.2333332 V 8.4666665 4.7624999 H 3.1749999 Z"
       style="display:none;fill:#ffffff"
       id="path25" /><path
       d="M 0,0 V 8.4666665 16.933333 H 8.4666665 16.933333 V 14.022916 11.1125 H 16.404166 15.875 v 0.529166 0.529167 H 15.345833 14.816666 V 12.7 13.229166 H 14.2875 13.758333 V 12.7 12.170833 H 13.229166 12.7 V 11.641666 11.1125 H 12.170833 11.641666 V 10.583333 10.054166 H 12.7 13.758333 V 6.8791665 3.7041666 H 14.2875 14.816666 V 6.8791665 10.054166 H 15.875 16.933333 V 5.0270832 0 H 8.4666665 Z M 6.3499999,0.52916666 H 8.4666665 10.583333 V 6.8791665 13.229166 H 8.4666665 6.3499999 V 6.8791665 Z M 1.0583333,3.7041666 H 3.1749999 5.2916666 V 8.4666665 13.229166 H 3.1749999 1.0583333 V 8.4666665 Z m 0,10.5833334 h 6.8791665 6.8791662 v 1.058333 1.058333 H 7.9374998 1.0583333 v -1.058333 z"
       style="fill:#ffffff;fill-opacity:0"
       id="path21" /></g><g
     id="layer4"
     style="display:inline"
     transform="rotate(180,8.4666665,8.4666665)"><path
       style="fill:#ff0000;fill-opacity:1;stroke-width:0.264999;stroke-dasharray:none"
       d="M 13.758333,3.7041666 V 10.050169 H 11.6375 l 2.649935,2.649936 2.642628,-2.642627 H 14.815084 V 3.7037711 Z"
       id="path30" /><rect
       style="fill:#000000;fill-opacity:1;stroke-width:0.26495;stroke-dasharray:none"
       id="rect32"
       width="4.2334461"
       height="1.0583333"
       x="1.0582203"
       y="3.7041667" /><rect
       style="fill:#000000;fill-opacity:1;stroke-width:0.270058;stroke-dasharray:none"
       id="rect33"
       width="4.2333331"
       height="1.0583333"
       x="1.0583333"
       y="12.170833" /><rect
       style="fill:#000000;fill-opacity:1;stroke-width:0.282342;stroke-dasharray:none"
       id="rect34"
       width="1.0583333"
       height="7.6729164"
       x="1.0583333"
       y="4.630208" /><rect
       style="fill:#000000;fill-opacity:1;stroke-width:0.282342;stroke-dasharray:none"
       id="rect34-7"
       width="1.0583333"
       height="7.6729164"
       x="4.2333331"
       y="4.630208" /></g><g
     id="layer5"
     style="display:inline;fill:#000000;fill-opacity:1"
     transform="rotate(180,8.4666665,8.4666665)"><rect
       style="fill:#000000;fill-opacity:1;stroke-width:0.257087;stroke-dasharray:none"
       id="rect35-6"
       width="1.0583333"
       height="12.7"
       x="9.5249996"
       y="0.52916664" /><rect
       style="fill:#000000;fill-opacity:1;stroke-width:0.257087;stroke-dasharray:none"
       id="rect35"
       width="1.0583333"
       height="12.7"
       x="6.3499999"
       y="0.52916664" /><rect
       style="fill:#000000;fill-opacity:1;stroke-width:0.278904;stroke-dasharray:none"
       id="rect36"
       width="2.3812499"
       height="1.0583333"
       x="7.2760415"
       y="0.52916664" /><rect
       style="fill:#000000;fill-opacity:1;stroke-width:0.278904;stroke-dasharray:none"
       id="rect36-1"
       width="2.3812499"
       height="1.0583333"
       x="7.2760415"
       y="12.170833" /></g></svg>
