<?xml version="1.0" encoding="UTF-8" standalone="no"?>
<!-- Created with Inkscape (http://www.inkscape.org/) -->

<svg
   width="55.999996"
   height="60"
   viewBox="0 0 14.816665 15.875"
   version="1.1"
   id="svg1"
   xml:space="preserve"
   xmlns="http://www.w3.org/2000/svg"
   xmlns:svg="http://www.w3.org/2000/svg"><defs
     id="defs1" /><g
     id="layer2"
     transform="translate(-2.1166667,-0.52916663)"><rect
       style="fill:#000000;fill-opacity:1;stroke:#0000ff;stroke-width:0;stroke-linecap:butt;stroke-linejoin:bevel;stroke-miterlimit:3.5;stroke-dasharray:none;stroke-opacity:1"
       id="rect30-5"
       width="1.0583333"
       height="2.1166666"
       x="3.175"
       y="14.287499" /><path
       id="path28"
       style="fill:#000000;fill-opacity:1;stroke:#0000ff;stroke-width:0;stroke-linecap:butt;stroke-linejoin:bevel;stroke-miterlimit:3.5;stroke-dasharray:none;stroke-opacity:1"
       d="m 12.170832,0.52916666 a 4.7625003,4.7624998 0 0 0 -4.7624988,4.76249994 4.7625003,4.7624998 0 0 0 4.7624988,4.7624994 4.7625003,4.7624998 0 0 0 4.7625,-4.7624994 4.7625003,4.7624998 0 0 0 -4.7625,-4.76249994 z m 0,1.05833334 A 3.7041667,3.7041667 0 0 1 15.874999,5.2916666 3.7041667,3.7041667 0 0 1 12.170832,8.9958332 3.7041667,3.7041667 0 0 1 8.4666662,5.2916666 3.7041667,3.7041667 0 0 1 12.170832,1.5875 Z" /><g
       id="layer2-4"
       transform="translate(1.8018579,-1.0721065)"><path
         style="fill:#000000;fill-opacity:0;stroke:#ff0000;stroke-width:1.02187;stroke-linecap:round;stroke-dasharray:none;stroke-opacity:1"
         d="M 2.0393702,12.698273 C 3.250354,10.001481 4.6315629,7.2920371 6.6293746,4.405118"
         id="path1-2" /></g><rect
       style="fill:#000000;fill-opacity:1;stroke:#0000ff;stroke-width:0;stroke-linecap:butt;stroke-linejoin:bevel;stroke-miterlimit:3.5;stroke-dasharray:none;stroke-opacity:1"
       id="rect30"
       width="1.0583333"
       height="2.1166666"
       x="3.175"
       y="11.1125" /><rect
       style="fill:#000000;fill-opacity:1;stroke:#0000ff;stroke-width:0;stroke-linecap:butt;stroke-linejoin:bevel;stroke-miterlimit:3.5;stroke-dasharray:none;stroke-opacity:1"
       id="rect30-4"
       width="1.0583333"
       height="2.1166666"
       x="13.229166"
       y="-6.3499999"
       transform="rotate(90)" /><rect
       style="fill:#000000;fill-opacity:1;stroke:#0000ff;stroke-width:0;stroke-linecap:butt;stroke-linejoin:bevel;stroke-miterlimit:3.5;stroke-dasharray:none;stroke-opacity:1"
       id="rect30-0"
       width="1.0583333"
       height="1.0583333"
       x="2.1166666"
       y="13.229167" /><rect
       style="fill:#ff0000;fill-opacity:1;stroke:#0000ff;stroke-width:0;stroke-linecap:butt;stroke-linejoin:bevel;stroke-miterlimit:3.5;stroke-dasharray:none;stroke-opacity:1"
       id="rect31"
       width="1.0583333"
       height="1.0583333"
       x="3.175"
       y="13.229166" /></g></svg>
