<?xml version="1.0" encoding="UTF-8" standalone="no"?>
<svg
   width="64"
   height="64"
   viewBox="0 0 64 64"
   version="1.1"
   id="svg6"
   sodipodi:docname="MenuId.Constr.BSpline.Points.svg"
   xml:space="preserve"
   inkscape:version="1.3 (0e150ed6c4, 2023-07-21)"
   xmlns:inkscape="http://www.inkscape.org/namespaces/inkscape"
   xmlns:sodipodi="http://sodipodi.sourceforge.net/DTD/sodipodi-0.dtd"
   xmlns="http://www.w3.org/2000/svg"
   xmlns:svg="http://www.w3.org/2000/svg"><defs
   id="defs6" /><sodipodi:namedview
   id="namedview6"
   pagecolor="#ffffff"
   bordercolor="#000000"
   borderopacity="0.25"
   inkscape:showpageshadow="2"
   inkscape:pageopacity="0.0"
   inkscape:pagecheckerboard="0"
   inkscape:deskcolor="#d1d1d1"
   showgrid="true"
   inkscape:zoom="8.905126"
   inkscape:cx="26.164706"
   inkscape:cy="30.824943"
   inkscape:window-width="1920"
   inkscape:window-height="991"
   inkscape:window-x="-9"
   inkscape:window-y="-9"
   inkscape:window-maximized="1"
   inkscape:current-layer="svg6"><inkscape:grid
     id="grid7"
     units="px"
     originx="0"
     originy="0"
     spacingx="1"
     spacingy="1"
     empcolor="#0099e5"
     empopacity="0.30196078"
     color="#0099e5"
     opacity="0.14901961"
     empspacing="5"
     dotted="false"
     gridanglex="30"
     gridanglez="30"
     visible="true" /></sodipodi:namedview>&#10;	&#10;	&#10;	&#10;	&#10;&#10;  <desc
   id="hotspot"
   x="4"
   y="28" /><path
   style="fill:none;stroke:#ff0000;stroke-width:5.081;stroke-linecap:round;stroke-linejoin:round;stroke-miterlimit:3;stroke-dasharray:none;stroke-opacity:1"
   d="m 55.000008,60 c 0,0 -47.2148907,4.970086 -47.5295133,-11.312622 C 7.2864328,39.161597 32.434192,50.175566 35,41 38.937528,26.919034 -3.4304173,20.945948 5.0000075,9 16.533439,-7.3429213 60.000008,33 60.000008,33"
   id="path1"
   sodipodi:nodetypes="caaac" /><g
   id="g1397"
   transform="matrix(1.8830419,-0.61183742,0.61183742,1.8830419,-158.05871,-492.68775)"><path
     id="path4696"
     d="m 18.441177,273.90514 5.409761,5.40969 -12.983304,12.98331 -5.4097609,-5.40969 z"
     style="fill:#000000;fill-opacity:1;stroke-width:0.0529167;stroke-linejoin:round"
     inkscape:connector-curvature="0" /><path
     id="path4694"
     d="m 24.878538,278.2327 -5.355367,-5.35536 2.295188,-2.29519 c 0.845079,-0.84501 2.215166,-0.84501 3.060247,0 l 2.295121,2.29519 c 0.845079,0.84501 0.845079,2.21516 0,3.06018 z"
     style="fill:#000000;fill-opacity:1;stroke-width:0.0529167;stroke-linejoin:round"
     inkscape:connector-curvature="0" /><path
     id="path4138"
     d="m 4.1054837,294.19146 -0.5409964,-0.54093 1.4200394,-4.53065 3.6516077,3.65161 z"
     style="fill:#000000;fill-opacity:1;stroke-width:0.0529167;stroke-linejoin:round"
     inkscape:connector-curvature="0" /></g></svg>
