<?xml version="1.0" encoding="UTF-8" standalone="no"?>
<svg
   width="64"
   height="64"
   viewBox="0 0 64 64"
   version="1.1"
   id="svg6"
   sodipodi:docname="MenuId.Projection.Direction.FromTop.svg"
   xml:space="preserve"
   inkscape:version="1.3 (0e150ed6c4, 2023-07-21)"
   xmlns:inkscape="http://www.inkscape.org/namespaces/inkscape"
   xmlns:sodipodi="http://sodipodi.sourceforge.net/DTD/sodipodi-0.dtd"
   xmlns="http://www.w3.org/2000/svg"
   xmlns:svg="http://www.w3.org/2000/svg"><defs
   id="defs6" /><sodipodi:namedview
   id="namedview6"
   pagecolor="#ffffff"
   bordercolor="#000000"
   borderopacity="0.25"
   inkscape:showpageshadow="2"
   inkscape:pageopacity="0.0"
   inkscape:pagecheckerboard="0"
   inkscape:deskcolor="#d1d1d1"
   showgrid="true"
   inkscape:zoom="8.905126"
   inkscape:cx="29.252815"
   inkscape:cy="33.183135"
   inkscape:window-width="1920"
   inkscape:window-height="991"
   inkscape:window-x="-9"
   inkscape:window-y="-9"
   inkscape:window-maximized="1"
   inkscape:current-layer="svg6"><inkscape:grid
     id="grid7"
     units="px"
     originx="0"
     originy="0"
     spacingx="1"
     spacingy="1"
     empcolor="#0099e5"
     empopacity="0.30196078"
     color="#0099e5"
     opacity="0.14901961"
     empspacing="5"
     dotted="false"
     gridanglex="30"
     gridanglez="30"
     visible="true" /></sodipodi:namedview>&#10;	&#10;	&#10;	&#10;	&#10;&#10;  <desc
   id="hotspot"
   x="4"
   y="28" /><path
   style="fill:none;stroke:#000000;stroke-width:2.58928;stroke-opacity:1"
   d="m 19.552665,50.442222 c 0.335374,0.06525 0.670593,0.0833 1.294639,0.315799 0.448559,0.167112 1.4069,0.635151 1.941959,0.816387 1.60211,0.542683 3.617182,0.832757 5.178556,1.040278 0.493393,0.06559 0.805077,0.09068 1.294639,0.09304 1.313002,0.0062 3.339287,1.25e-4 4.693067,1.25e-4 1.085384,0 1.719778,-0.05528 2.912937,-0.188806 1.616008,-0.180811 4.645425,-1.256497 5.987707,-1.660882 0.696073,-0.209703 1.040894,-0.260018 1.45647,-0.415933"
   id="path155" /><path
   style="fill:none;stroke:#000000;stroke-width:2.58928;stroke-opacity:1"
   d="m 44.798128,39.761448 c 0.44758,0.01916 0.805934,0.01605 1.294639,0.185807 C 47.539334,40.449716 48,42.510404 48,44 c 0,1.516968 -0.425959,3.760912 -1.907233,4.252152 -0.492695,0.163383 -0.852427,0.191011 -1.294639,0.24813"
   id="path151"
   sodipodi:nodetypes="ccssc" /><path
   style="fill:none;stroke:#000000;stroke-width:2.58928;stroke-opacity:1"
   d="m 43.988978,34.906552 c 0.363752,0.551105 0.644441,1.741893 0.64732,3.236598 9.64e-4,0.502498 0.01476,0.873244 0.02253,1.456469 0.0101,0.758687 -0.02253,1.373933 -0.02253,2.265619 0,1.346684 0,3.388974 0,4.693066 0,0.716806 0.0246,1.208737 0.0246,1.941961 0,1.870029 0.317199,3.823122 -1.322114,5.310416 -1.211997,1.099495 -3.210987,1.680596 -4.85202,1.79562 -2.670628,0.187177 -5.413648,0.01452 -8.091495,0.01452 -1.84339,0 -3.841328,0.215868 -5.664045,-0.07105 -1.468755,-0.231198 -3.479511,-0.786332 -4.494903,-1.88789 -0.405768,-0.440206 -0.763679,-1.434376 -0.843112,-1.924982 -0.08092,-0.499841 -0.118459,-0.74065 -0.135368,-1.294638 -0.01372,-0.45175 -0.02851,-1.182608 -0.02884,-1.780129"
   id="path149" /><path
   style="fill:none;stroke:#000000;stroke-width:2.58928;stroke-opacity:1"
   d="m 19.876326,34.906552 c -0.280873,0.523596 -0.389985,1.480588 -0.499976,3.074768 -0.03374,0.488977 -0.01165,1.120355 -0.406197,1.523021 -0.37165,0.379192 -1.204827,0.390875 -1.652641,0.722991 C 16.497343,40.835606 16.067263,41.758632 16,42.739981 15.96823,43.203634 16,43.55493 16,44 c 0,0.444668 9.36e-4,1.133386 0.03279,1.596514 0.0646,0.938066 0.576742,2.092556 1.419089,2.529269 0.368565,0.191091 0.812955,0.341018 1.267666,0.276201 0.636021,-0.09065 0.506347,-1.018354 0.509589,-1.68185 0.01061,-2.186283 -1.25e-4,-5.410604 -1.25e-4,-6.958686"
   id="path148"
   sodipodi:nodetypes="cscscscsccc" /><path
   style="fill:none;stroke:#000000;stroke-width:2.58928;stroke-opacity:1"
   d="m 19.876326,33.520419 c 0,2.001973 0,5.317945 0,7.606004 0,0.648633 -0.166802,1.224361 0.166334,1.666372 0.295698,0.392366 0.978874,0.462069 1.451972,0.649197 1.167126,0.461645 3.02032,0.926907 4.369406,1.055389 2.541794,0.242072 5.212927,0.02747 7.767835,0.02747 2.827189,0 5.482699,-0.139329 8.253325,-1.001945 0.88076,-0.274224 1.374624,-0.204138 1.844311,-0.707638 0.361984,-0.388051 0.259225,-0.970151 0.259477,-1.527015 0.001,-2.221872 0.370927,-6.512951 0,-7.767834"
   id="path145" /><path
   style="fill:none;stroke:#222322;stroke-width:2.58928"
   d="m 43.988978,14.644364 c 0,0.338278 0,0.648849 0,1.294639 0,0.503506 0,1.502456 0,2.103789 0,2.143841 0,3.588772 0,5.502215"
   id="path139" /><path
   style="fill:none;stroke:#000000;stroke-width:2.58928;stroke-opacity:1"
   d="M 19.392058,26.074759 C 18.892377,26.011609 18.544266,25.971395 17.935589,25.887088 16.642327,25.707936 16.060022,24.368689 16,23 c -0.05888,-1.342467 -0.14607,-3.390905 0.4249,-4.632078 0.27871,-0.605845 0.731153,-0.807146 1.348984,-1.041956 0.725265,-0.27564 1.130628,-0.303559 1.618174,-0.313673"
   id="path138"
   sodipodi:nodetypes="ccccsc" /><path
   style="fill:none;stroke:#000000;stroke-width:2.58928;stroke-opacity:1"
   d="m 44.607942,26.074759 c 0.499681,-0.06315 0.847792,-0.103364 1.456469,-0.187671 C 47.357673,25.707936 47.939978,24.368689 48,23 c 0.05888,-1.342467 0.14607,-3.390905 -0.4249,-4.632078 -0.27871,-0.605845 -0.731153,-0.807146 -1.348984,-1.041956 -0.725265,-0.27564 -1.130628,-0.303559 -1.618174,-0.313673"
   id="path138-4"
   sodipodi:nodetypes="ccccsc" /><path
   style="fill:none;stroke:#222322;stroke-width:2.58928"
   d="m 19.876326,14.482534 h 1.780128 4.531237 10.357112 5.664047 l 1.780128,0.16183"
   id="path137" /><path
   style="fill:none;stroke:#000000;stroke-width:2.58928;stroke-opacity:1"
   d="m 43.988978,23.545007 v 1.920497 2.343227 L 44,33 c 0.0019,0.872342 0.263648,2.085837 -0.358653,2.50594 -0.479317,0.323579 -0.805081,0.294008 -1.270668,0.415439 -0.74104,0.193264 -3.272226,0.868392 -4.207576,0.891307 -3.597803,0.08811 -7.334269,0.0024 -11.004433,0.0024 -1.560573,0 -3.889829,-0.419499 -5.340387,-0.935767 -0.73075,-0.260078 -0.83956,-0.128222 -1.419506,-0.535064 -0.441418,-0.309664 -0.516186,-1.037799 -0.521828,-1.442106 -0.0091,-0.648724 -6.23e-4,-1.686463 -6.23e-4,-2.427449 0,-1.956627 0.0023,-4.406587 0,-6.311366 -6.81e-4,-0.568103 -0.0246,-0.896633 -0.0246,-1.456469 0,-0.593379 0.02434,-1.041731 0.0246,-1.618299 4.89e-4,-1.525551 0,-3.781814 0,-5.340387 0,-1.217446 -0.0355,-1.287111 -0.02253,-2.265617 0.0096,-0.727614 0.0049,-1.08618 0.06867,-1.618299 0.05399,-0.450909 0.109087,-0.996561 0.271838,-1.456469 0.243729,-0.688528 0.646779,-1.366083 1.187187,-1.8887603 1.368876,-1.323955 3.161594,-1.186008 4.96803,-1.186008 h 10.357113 c 1.470598,0 3.378272,-0.14197 4.693066,0.401701 0.934385,0.386369 1.857854,1.234695 2.242269,2.1875783 0.209473,0.51922 0.301338,1.260926 0.347009,1.780128 0.04047,0.460026 0,1.26375 0,1.941931"
   id="path136"
   sodipodi:nodetypes="cccssscssscssscsccccsssssc" /><path
   style="fill:#c83737;fill-opacity:1;stroke:#000000;stroke-width:0.238213;stroke-linecap:round;stroke-linejoin:round;stroke-miterlimit:3;stroke-dasharray:none"
   d="M 26.282878,35.43384 C 24.947541,35.322366 23.57269,35.033424 21.908049,34.514416 L 21.255407,34.310932 21.2282,28.898643 c -0.01496,-2.97676 -0.01505,-7.13636 -1.89e-4,-9.243556 l 0.02702,-3.831266 h 10.711782 10.71178 l 0.02051,9.270472 c 0.01128,5.098759 5.15e-4,9.297609 -0.02392,9.330776 -0.06178,0.08387 -3.134814,0.830637 -4.005204,0.973293 -0.585979,0.09604 -1.70104,0.115149 -6.193548,0.106133 -3.0134,-0.006 -5.800496,-0.03784 -6.193549,-0.07066 z"
   id="path7" /><path
   style="fill:#c83737;fill-opacity:1;stroke:#000000;stroke-width:0.238213;stroke-linecap:round;stroke-linejoin:round;stroke-miterlimit:3;stroke-dasharray:none"
   d="m 28.585608,51.346801 c -0.131017,-0.01925 -0.756328,-0.10778 -1.389578,-0.196744 -2.315334,-0.325273 -3.498279,-0.629812 -5.085468,-1.309211 -0.547876,-0.234519 -1.108186,-0.448807 -1.245133,-0.476197 -0.218282,-0.04366 -0.255767,-0.09034 -0.303908,-0.37844 -0.0302,-0.180752 -0.08766,-0.349471 -0.127672,-0.374931 -0.04259,-0.0271 -0.03327,-0.142324 0.02249,-0.277916 0.06608,-0.1607 0.09036,-0.772615 0.07928,-1.998374 -0.0088,-0.971712 0.0084,-1.76675 0.03815,-1.76675 0.02976,0 0.468921,0.139522 0.975909,0.310048 2.259391,0.75995 3.531565,0.962885 6.361002,1.014695 2.451167,0.04488 8.849429,-0.09264 10.004963,-0.215039 1.110872,-0.117672 2.762554,-0.432048 3.890819,-0.740565 0.545905,-0.149275 1.108685,-0.296237 1.25062,-0.326583 l 0.258065,-0.05517 v 2.390935 c 0,1.843736 -0.02272,2.397834 -0.09926,2.421079 -0.05459,0.01658 -1.099752,0.336832 -2.322581,0.711675 -4.09564,1.255468 -4.043178,1.24768 -8.615384,1.2789 -1.899752,0.01297 -3.561291,0.0078 -3.692308,-0.01141 z"
   id="path8" /><path
   style="fill:#c83737;fill-opacity:1;stroke:#000000;stroke-width:0.238213;stroke-linecap:round;stroke-linejoin:round;stroke-miterlimit:3;stroke-dasharray:none"
   d="m 31.85622,13.143923 -10.625169,-0.02043 0.05178,-0.376882 c 0.218377,-1.589498 1.008,-2.58806 2.328291,-2.9443737 0.382179,-0.1031404 1.527743,-0.1256713 7.753643,-0.1524981 7.687307,-0.033124 8.627296,-0.00252 9.457082,0.3079475 0.573213,0.2144663 1.30515,0.8901463 1.5297,1.4121253 0.260499,0.605547 0.417822,1.851295 0.229099,1.814104 -0.05459,-0.01076 -4.880582,-0.02875 -10.724425,-0.03999 z"
   id="path9" /><path
   style="fill:#888888;fill-opacity:1;stroke:#000000;stroke-width:0.168442;stroke-linecap:round;stroke-linejoin:round;stroke-miterlimit:3;stroke-dasharray:none"
   d="m 45.958429,44.113961 c -9.63e-4,-1.474572 0.0098,-2.68104 0.02396,-2.68104 0.06509,0 0.337148,0.549661 0.452757,0.914735 0.417167,1.317339 0.263018,3.254699 -0.335989,4.222755 l -0.13897,0.22459 z"
   id="path10" /><path
   style="fill:#888888;fill-opacity:1;stroke:#000000;stroke-width:0.168442;stroke-linecap:round;stroke-linejoin:round;stroke-miterlimit:3;stroke-dasharray:none"
   d="m 17.662467,46.475194 c -0.286016,-0.500796 -0.312909,-0.712176 -0.312909,-2.459491 v -1.600202 l 0.160741,-0.347953 c 0.08841,-0.191374 0.208423,-0.391104 0.2667,-0.443845 0.103704,-0.09385 0.10596,-0.04013 0.10596,2.523666 0,1.440757 -0.01212,2.619558 -0.02694,2.619558 -0.01482,0 -0.101915,-0.13128 -0.193554,-0.291733 z"
   id="path11" /><path
   style="fill:#888888;fill-opacity:1;stroke:#000000;stroke-width:0.168442;stroke-linecap:round;stroke-linejoin:round;stroke-miterlimit:3;stroke-dasharray:none"
   d="m 18.241164,24.592892 c -0.33353,-0.05463 -0.497792,-0.185031 -0.656988,-0.52157 -0.226573,-0.478974 -0.277424,-0.912487 -0.281791,-2.402299 -0.0031,-1.07125 0.01722,-1.490849 0.092,-1.896443 0.137665,-0.746593 0.226732,-0.907711 0.600866,-1.086933 0.169846,-0.08136 0.36566,-0.16518 0.435142,-0.186263 l 0.126332,-0.03833 v 3.091892 c 0,1.700541 -0.01895,3.088731 -0.04211,3.084865 -0.02316,-0.0039 -0.146215,-0.02408 -0.273453,-0.04492 z"
   id="path12" /><path
   style="fill:#888888;fill-opacity:1;stroke:#000000;stroke-width:0.168442;stroke-linecap:round;stroke-linejoin:round;stroke-miterlimit:3;stroke-dasharray:none"
   d="m 45.339055,21.531071 v -3.117635 l 0.378996,0.141279 c 0.6581,0.245321 0.721139,0.334438 0.892322,1.261442 0.122586,0.66384 0.122064,3.05331 -7.94e-4,3.636987 -0.102292,0.485975 -0.339398,0.947979 -0.537897,1.048104 -0.07869,0.03969 -0.275727,0.08911 -0.437853,0.109813 l -0.294774,0.03764 z"
   id="path13" /><path
   style="fill:#888888;fill-opacity:1;stroke:#000000;stroke-width:3;stroke-linecap:round;stroke-linejoin:round;stroke-miterlimit:3;stroke-dasharray:none"
   d="M 27.989497,54.005165 36,54"
   id="path14" /><path
   style="fill:#ffff6b;fill-opacity:1;stroke:#000000;stroke-width:0.0842212;stroke-linecap:round;stroke-linejoin:round;stroke-miterlimit:3;stroke-dasharray:none"
   d="m 26.024337,54.36911 c -1.917335,-0.104896 -4.051088,-0.792907 -4.749585,-1.531464 -0.112765,-0.119232 -0.373869,-0.553198 -0.373869,-0.621387 0,-0.0067 0.230556,0.08846 0.512346,0.211561 0.635809,0.277746 1.054296,0.430024 1.64637,0.599077 0.788741,0.225206 2.114079,0.503063 3.098088,0.649514 l 0.329866,0.0491 v 0.243987 c 0,0.134193 0.0079,0.283467 0.01755,0.331718 l 0.01755,0.08773 -0.164934,-0.0053 c -0.09071,-0.0029 -0.240732,-0.0095 -0.333375,-0.01452 z"
   id="path15" /><path
   style="fill:#ffff6b;fill-opacity:1;stroke:#000000;stroke-width:0.0842212;stroke-linecap:round;stroke-linejoin:round;stroke-miterlimit:3;stroke-dasharray:none"
   d="m 37.498796,54.200553 c 0.01445,-0.08939 0.01907,-0.226769 0.01026,-0.305279 l -0.01601,-0.142746 0.329566,-0.06401 c 0.914788,-0.177684 2.13427,-0.526677 4.524765,-1.294903 0.330969,-0.106363 0.605598,-0.189551 0.610286,-0.184863 0.02737,0.02737 -0.202301,0.321038 -0.42248,0.540195 -0.878472,0.874393 -2.606193,1.481129 -4.467226,1.568787 -0.200727,0.0095 -0.416815,0.02353 -0.480195,0.03127 l -0.115237,0.01408 z"
   id="path16" /></svg>
