<?xml version="1.0" encoding="UTF-8" standalone="no"?>
<!-- Created with Inkscape (http://www.inkscape.org/) -->

<svg
   width="63.999996"
   height="63.999996"
   viewBox="0 0 16.933332 16.933332"
   version="1.1"
   id="svg1"
   xml:space="preserve"
   sodipodi:docname="MenuId.Constr.Point.svg"
   inkscape:version="1.4.2 (ebf0e940, 2025-05-08)"
   xmlns:inkscape="http://www.inkscape.org/namespaces/inkscape"
   xmlns:sodipodi="http://sodipodi.sourceforge.net/DTD/sodipodi-0.dtd"
   xmlns="http://www.w3.org/2000/svg"
   xmlns:svg="http://www.w3.org/2000/svg"><sodipodi:namedview
     id="namedview1"
     pagecolor="#ffffff"
     bordercolor="#000000"
     borderopacity="0.25"
     inkscape:showpageshadow="2"
     inkscape:pageopacity="0.0"
     inkscape:pagecheckerboard="0"
     inkscape:deskcolor="#d1d1d1"
     inkscape:zoom="8"
     inkscape:cx="35.125"
     inkscape:cy="38.5"
     inkscape:window-width="1280"
     inkscape:window-height="1387"
     inkscape:window-x="1280"
     inkscape:window-y="25"
     inkscape:window-maximized="0"
     inkscape:current-layer="svg1" /><defs
     id="defs1" /><g
     id="layer1"
     style="fill:#ff0000"
     transform="matrix(0.55413973,0.4319532,-0.4319532,0.55413973,1.5234243,14.825112)"><path
       style="fill:#ff0000;stroke-width:0.313686"
       d="M 9.6006247,-3.9572526 -0.88287695,-5.0117643 -0.7328495,-6.4975642 9.7559111,-5.4425213 Z"
       id="path12" /><path
       style="fill:#ff0000;stroke-width:0.265197"
       d="m 9.1274401,-4.1736858 c 0.1395406,0.1385155 0.335582,0.219241 0.5327766,0.2193865 0.1971946,1.457e-4 0.3931163,-0.080288 0.5324503,-0.2186004 0.139334,-0.1383095 0.220367,-0.3327896 0.220223,-0.5285341 -1.47e-4,-0.1957444 -0.08146,-0.3903445 -0.221009,-0.5288597 C 10.05234,-5.3688089 9.8562999,-5.4495344 9.6591052,-5.44968 c -0.1971947,-1.455e-4 -0.3931161,0.080288 -0.5324511,0.2186005 -0.139335,0.1383094 -0.2203685,0.3327896 -0.220223,0.5285341 1.456e-4,0.1957445 0.081467,0.3903445 0.221009,0.5288596 z"
       id="path17-2" /><path
       style="fill:#ff0000;stroke-width:0.255847"
       d="M 3.3938007,0.37935485 C 3.5216738,0.51765298 3.7022621,0.59730609 3.8845808,0.59582682 4.0668997,0.59434807 4.2487061,0.51175688 4.3786699,0.37136374 4.5086343,0.2309739 4.5851586,0.03451512 4.5866395,-0.16254702 4.5881153,-0.35960907 4.5145417,-0.55484988 4.3866611,-0.69314783 4.2587878,-0.83144601 4.0782007,-0.91109913 3.895882,-0.90961994 c -0.1823191,0.00148 -0.3641251,0.0840699 -0.4940903,0.22446309 -0.1299651,0.14039002 -0.2064895,0.33684865 -0.2079691,0.53391084 -0.00148,0.19706213 0.072104,0.39230276 0.1999781,0.53060086 z"
       id="path17-2-0" /><path
       style="fill:#ff0000;stroke-width:0.265197"
       d="m -1.3413623,-5.2256596 c 0.1395406,0.1385156 0.3355821,0.2192411 0.53277666,0.2193865 0.19719461,1.458e-4 0.39311641,-0.080288 0.53245041,-0.2186004 0.13933399,-0.1383094 0.22036699,-0.3327895 0.22022299,-0.528534 -1.4701e-4,-0.1957444 -0.08146001,-0.3903444 -0.22100899,-0.5288597 -0.13954101,-0.1385153 -0.33558121,-0.2192408 -0.53277591,-0.2193865 -0.19719466,-1.454e-4 -0.39311606,0.080288 -0.53245116,0.2186005 -0.1393349,0.1383095 -0.2203685,0.3327895 -0.2202231,0.528534 1.457e-4,0.1957445 0.081468,0.3903446 0.2210091,0.5288596 z"
       id="path17-2-8" /><path
       style="fill:#ff0000;stroke-width:0.312951"
       d="M 3.6312154,-4.7395088 3.2002811,-0.24729152 4.5834681,-0.10376534 5.0258644,-4.594791 Z"
       id="path18" /><circle
       style="fill:#ff0000;stroke-width:0.313812"
       id="path1"
       cx="3.8980277"
       cy="-5.6401362"
       transform="rotate(5.6735387)"
       r="1.8828727" /></g><g
     id="layer2"><g
       id="g1397"
       transform="matrix(0.43124117,-0.14043742,0.14011875,0.43222193,-36.202112,-113.35028)"
       style="fill:#000000;stroke-width:1.15401"><path
         id="path4696"
         d="m 18.441177,273.90514 5.409761,5.40969 -12.983304,12.98331 -5.4097609,-5.40969 z"
         style="fill:#000000;fill-opacity:1;stroke-width:0.0610663;stroke-linejoin:round" /><path
         id="path4694"
         d="m 24.878538,278.2327 -5.355367,-5.35536 2.295188,-2.29519 c 0.845079,-0.84501 2.215166,-0.84501 3.060247,0 l 2.295121,2.29519 c 0.845079,0.84501 0.845079,2.21516 0,3.06018 z"
         style="fill:#000000;fill-opacity:1;stroke-width:0.0610663;stroke-linejoin:round" /><path
         id="path4138"
         d="m 4.1054837,294.19146 -0.5409964,-0.54093 1.4200394,-4.53065 3.6516077,3.65161 z"
         style="fill:#000000;fill-opacity:1;stroke-width:0.0610663;stroke-linejoin:round" /></g></g></svg>
