<?xml version="1.0" encoding="UTF-8" standalone="no"?>
<!-- Created with Inkscape (http://www.inkscape.org/) -->

<svg
   width="63.999996"
   height="63.999996"
   viewBox="0 0 16.933332 16.933332"
   version="1.1"
   id="svg1"
   xml:space="preserve"
   xmlns="http://www.w3.org/2000/svg"
   xmlns:svg="http://www.w3.org/2000/svg"><defs
     id="defs1" /><path
     style="fill:#000000"
     d="M 1.0583333,15.874999 V 15.345833 H 0.52916664 0 V 14.816666 14.287499 H 0.52916664 1.0583333 v -0.529166 -0.529167 h 0.5291666 0.5291667 v 0.529167 0.529166 h 0.5291666 0.5291666 v 0.529167 0.529167 H 2.6458332 2.1166666 v 0.529166 0.529167 H 1.5874999 1.0583333 Z m 6.3499996,0 V 15.345833 H 6.8791663 6.3499997 v -0.529167 -0.529167 h 0.5291666 0.5291666 v -0.529166 -0.529167 h 0.5291667 0.5291666 v 0.529167 0.529166 h 0.5291667 0.5291666 v 0.529167 0.529167 H 8.9958329 8.4666662 v 0.529166 0.529167 H 7.9374996 7.4083329 Z m 6.3500001,0 v -0.529166 h -0.529167 -0.529167 v -0.529167 -0.529167 h 0.529167 0.529167 v -0.529166 -0.529167 h 0.529166 0.529167 v 0.529167 0.529166 h 0.529167 0.529166 v 0.529167 0.529167 h -0.529166 -0.529167 v 0.529166 0.529167 H 14.287499 13.758333 Z M 1.0583333,9.5249995 V 8.9958329 H 0.52916664 0 V 8.4666662 7.9374996 H 0.52916664 1.0583333 V 7.4083329 6.8791663 H 1.5874999 2.1166666 V 7.4083329 7.9374996 H 2.6458332 3.1749998 V 8.4666662 8.9958329 H 2.6458332 2.1166666 V 9.5249995 10.054166 H 1.5874999 1.0583333 Z m 6.3499996,0 V 8.9958329 H 6.8791663 6.3499997 V 8.4666662 7.9374996 H 6.8791663 7.4083329 V 7.4083329 6.8791663 H 7.9374996 8.4666662 V 7.4083329 7.9374996 H 8.9958329 9.5249995 V 8.4666662 8.9958329 H 8.9958329 8.4666662 V 9.5249995 10.054166 H 7.9374996 7.4083329 Z m 6.3500001,0 V 8.9958329 H 13.229166 12.699999 V 8.4666662 7.9374996 h 0.529167 0.529167 V 7.4083329 6.8791663 h 0.529166 0.529167 v 0.5291666 0.5291667 h 0.529167 0.529166 V 8.4666662 8.9958329 H 15.345833 14.816666 V 9.5249995 10.054166 H 14.287499 13.758333 Z M 1.0583333,3.1749998 V 2.6458332 H 0.52916664 0 V 2.1166666 1.5874999 H 0.52916664 1.0583333 V 1.0583333 0.52916664 H 1.5874999 2.1166666 V 1.0583333 1.5874999 H 2.6458332 3.1749998 V 2.1166666 2.6458332 H 2.6458332 2.1166666 V 3.1749998 3.7041665 H 1.5874999 1.0583333 Z m 6.3499996,0 V 2.6458332 H 6.8791663 6.3499997 V 2.1166666 1.5874999 H 6.8791663 7.4083329 V 1.0583333 0.52916664 H 7.9374996 8.4666662 V 1.0583333 1.5874999 H 8.9958329 9.5249995 V 2.1166666 2.6458332 H 8.9958329 8.4666662 V 3.1749998 3.7041665 H 7.9374996 7.4083329 Z m 6.3500001,0 V 2.6458332 H 13.229166 12.699999 V 2.1166666 1.5874999 h 0.529167 0.529167 V 1.0583333 0.52916664 h 0.529166 0.529167 V 1.0583333 1.5874999 h 0.529167 0.529166 v 0.5291667 0.5291666 h -0.529166 -0.529167 v 0.5291666 0.5291667 h -0.529167 -0.529166 z"
     id="path2" /></svg>
