<?xml version="1.0" encoding="UTF-8" standalone="no"?>
<svg
   width="64"
   height="64"
   viewBox="0 0 64 64"
   version="1.1"
   id="svg6"
   sodipodi:docname="MenuId.Tools.svg"
   xml:space="preserve"
   inkscape:version="1.3 (0e150ed6c4, 2023-07-21)"
   xmlns:inkscape="http://www.inkscape.org/namespaces/inkscape"
   xmlns:sodipodi="http://sodipodi.sourceforge.net/DTD/sodipodi-0.dtd"
   xmlns="http://www.w3.org/2000/svg"
   xmlns:svg="http://www.w3.org/2000/svg"><defs
   id="defs6" /><sodipodi:namedview
   id="namedview6"
   pagecolor="#ffffff"
   bordercolor="#000000"
   borderopacity="0.25"
   inkscape:showpageshadow="2"
   inkscape:pageopacity="0.0"
   inkscape:pagecheckerboard="0"
   inkscape:deskcolor="#d1d1d1"
   showgrid="true"
   inkscape:zoom="8.905126"
   inkscape:cx="26.220853"
   inkscape:cy="30.824943"
   inkscape:window-width="1920"
   inkscape:window-height="991"
   inkscape:window-x="-9"
   inkscape:window-y="-9"
   inkscape:window-maximized="1"
   inkscape:current-layer="svg6"><inkscape:grid
     id="grid7"
     units="px"
     originx="0"
     originy="0"
     spacingx="1"
     spacingy="1"
     empcolor="#0099e5"
     empopacity="0.30196078"
     color="#0099e5"
     opacity="0.14901961"
     empspacing="5"
     dotted="false"
     gridanglex="30"
     gridanglez="30"
     visible="true" /></sodipodi:namedview>&#10;	&#10;	&#10;	&#10;	&#10;&#10;  <desc
   id="hotspot"
   x="4"
   y="28" /><path
   style="fill:#da2525;stroke-width:0.153715;fill-opacity:1"
   d="M 30.54219,37.16786 26.54743,33.1731 6.1364795,53.82266 c -1.08308,1.08308 -1.08308,2.91154 0,4.08423 1.08308,1.08308 2.91152,1.08308 3.9152895,0 z"
   id="path1" /><path
   style="fill:#d82727;stroke-width:0.153715;fill-opacity:1"
   d="m 24.38112,19.83749 -3.16992,3.16992 33.65722,33.98518 c 0.83468,0.83468 2.24579,0.83468 3.16992,0 0.83468,-0.91415 0.83468,-2.33525 0,-3.2494 z"
   id="path2" /><polygon
   style="fill:#777777;fill-opacity:1"
   points="64.346,167.935 176.572,54.093 168.426,45.43 97.445,57.39 26.398,129.471 "
   id="polygon2"
   transform="matrix(0.15371544,0,0,0.15371577,1.9097695,2.0225997)" /><path
   style="fill:#da2525;stroke-width:0.153715;fill-opacity:1"
   d="m 36.12682,23.50423 -1.74897,1.74897 3.99476,3.99477 1.74897,-1.74898 C 39.20743,26.91272 38.29313,26.16735 37.53793,25.33268 36.9615,24.7564 36.54416,24.17013 36.12682,23.50423 Z"
   id="path3" /><path
   style="fill:#da2525;stroke-width:0.153715;fill-opacity:1"
   d="m 40.04211,23.08688 c 3.99476,4.1637 10.66262,4.66051 14.99509,0.33788 1.99738,-1.99739 3.08046,-4.74997 3.08046,-7.58203 l -2.74259,2.7426 c -3.08046,2.91152 -7.41308,2.83205 -10.41407,0 -2.83205,-2.91154 -2.83205,-7.58204 0,-10.4141003 l 2.75258,-2.83205 h -0.0795 c -2.83205,0 -5.49517,1.08307 -7.41308,3.16992 C 36.3752,12.50386 36.29573,19.00266 40.04208,23.08688 Z"
   id="path4" /><path
   style="fill:#000000;stroke-width:0.153715;fill-opacity:1"
   d="M 60.37359,51.49724 40.70785,31.66269 43.21203,29.07904 c 5.1673,1.58004 9.8278,0.58627 14.08095,-3.32903 3.57742,-3.66689 4.91889,-8.99314 3.41832,-13.91204 -0.41734,-1.16271 -1.74897,-1.58004 -2.75258,-0.66574 l -5.07784,5.07784 c -1.58004,1.50057 -3.91528,1.58004 -5.6641,0 -1.58004,-1.58004 -1.58004,-4.1637 0,-5.74374 l 5.16729,-5.0778503 c 0.83468,-0.91414 0.49681,-2.33525 -0.66574,-2.75259 -5.16729,-1.58004 -10.24528,-0.2484 -13.91201,3.49796 -3.66673,3.74636 -4.74996,9.3310103 -3.16992,14.0809803 l -2.58365,2.58365 -5.33623,-5.41571 5.91266,-6.00199 c 0.66574,-0.66574 0.66574,-1.6695003 0,-2.3352503 l -3.08046,-3.08046 c -0.41733,-0.41734 -0.91414,-0.58627 -1.50057,-0.49681 l -12.24281,2.16616 c -0.33787,0.0795 -0.66575,0.2484 -0.91415,0.49681 L 2.4697495,20.75164 c -0.66574,0.66574 -0.66574,1.6695 0,2.33524 l 8.1682895,8.24793 c 0.74521,0.58627 1.500571,0.66574 2.335241,0 l 5.91267,-5.91267 5.33623,5.41571 -20.5004205,20.65939 c -2.41471,2.41473 -2.41471,6.33003 0,8.74474 2.58365,2.50419 6.4989395,2.24579 8.6652505,0 L 32.79796,39.58259 52.37424,59.40731 c 2.16631,2.08685 5.24677,2.33525 7.83041,0 2.24579,-2.24579 2.24579,-5.74374 0.16894,-7.91007 z m -2.41487,5.49535 c -0.83468,0.83468 -2.24578,0.83468 -3.16992,0 l -33.5776,-33.98518 3.16992,-3.16992 33.5776,33.98517 c 0.9143,0.83468 0.9143,2.33525 0,3.16993 z M 6.1364795,57.82727 c -1.08308,-1.08308 -1.08308,-2.91154 0,-4.08423 L 26.54743,33.16311 l 3.99476,3.99476 -20.490421,20.6694 c -0.9937695,1.08323 -2.8320595,1.08323 -3.9152895,0 z M 27.79944,9.0058997 29.05146,10.33755 11.800739,27.83685 5.9676995,21.92418 16.87858,10.92382 Z m 19.82468,-3.66672 h 0.0795 l -2.75258,2.83205 c -2.83205,2.9115303 -2.83205,7.5820303 0,10.4141003 3.00099,2.83205 7.24415,2.91152 10.41422,0 l 2.75258,-2.7526 c 0,2.7526 -1.08307,5.49519 -3.08045,7.58204 -4.4121,4.33262 -11.00049,3.91528 -14.99525,-0.33788 -3.74635,-4.08422 -3.66688,-10.58302 0.2484,-14.5777903 1.83844,-1.98738 4.50156,-3.15992 7.33361,-3.15992 z M 38.3826,29.24797 34.38784,25.2532 36.13681,23.50423 c 0.41734,0.66574 0.83468,1.25201 1.42095,1.82845 0.74521,0.83467 1.6695,1.58004 2.58365,2.16631 z"
   id="path5" /></svg>
