<?xml version="1.0" encoding="UTF-8" standalone="no"?>
<!-- Created with Inkscape (http://www.inkscape.org/) -->

<svg
   width="63.999996"
   height="63.999996"
   viewBox="0 0 16.933332 16.933332"
   version="1.1"
   id="svg1"
   xml:space="preserve"
   xmlns="http://www.w3.org/2000/svg"
   xmlns:svg="http://www.w3.org/2000/svg"><defs
     id="defs1" /><g
     id="layer1"><path
       id="path8"
       style="fill:#000000;fill-opacity:1;stroke:none;stroke-width:0.0517305"
       d="m 10.057267,2.6458333 c -1.2871903,0 -2.439901,0.4734064 -3.3605183,1.3802775 -0.9163736,0.9026906 -1.4050821,2.0784164 -1.4050821,3.3796386 0,1.2992133 0.4733582,2.4419811 1.392163,3.3625856 0.7948649,0.796422 1.864342,1.301678 2.9372884,1.386478 1.435312,0.113438 2.78231,-0.370599 3.787882,-1.361157 0.930984,-0.9170831 1.407666,-2.0644042 1.407666,-3.3879066 0,-1.3773149 -0.496404,-2.526172 -1.492932,-3.4550862 C 12.797648,3.4602725 12.403836,3.2040214 11.826151,2.9760457 11.237683,2.7438155 10.713819,2.6458333 10.057267,2.6458333 Z m -0.0031,0.79375 a 3.96875,3.96875 0 0 1 3.96875,3.9687499 3.96875,3.96875 0 0 1 -3.96875,3.9687498 A 3.96875,3.96875 0 0 1 6.0854166,7.4083332 3.96875,3.96875 0 0 1 10.054167,3.4395833 Z" /></g><g
     id="layer2"><path
       style="fill:#000000;fill-opacity:0;stroke:#ff0000;stroke-width:1.02187;stroke-linecap:round;stroke-dasharray:none;stroke-opacity:1"
       d="M 3.8375831,12.661525 C 4.3113943,9.2218404 4.3338219,8.5471587 6.1170783,5.5439552"
       id="path1" /></g></svg>
