<?xml version="1.0" encoding="UTF-8" standalone="no"?>
<svg
   width="64"
   height="64"
   viewBox="0 0 64 64"
   version="1.1"
   id="svg6"
   sodipodi:docname="MenuId.Projection.Direction.FromRight.svg"
   xml:space="preserve"
   inkscape:version="1.3 (0e150ed6c4, 2023-07-21)"
   xmlns:inkscape="http://www.inkscape.org/namespaces/inkscape"
   xmlns:sodipodi="http://sodipodi.sourceforge.net/DTD/sodipodi-0.dtd"
   xmlns="http://www.w3.org/2000/svg"
   xmlns:svg="http://www.w3.org/2000/svg"><defs
   id="defs6" /><sodipodi:namedview
   id="namedview6"
   pagecolor="#ffffff"
   bordercolor="#000000"
   borderopacity="0.25"
   inkscape:showpageshadow="2"
   inkscape:pageopacity="0.0"
   inkscape:pagecheckerboard="0"
   inkscape:deskcolor="#d1d1d1"
   showgrid="true"
   inkscape:zoom="7.3480323"
   inkscape:cx="41.167484"
   inkscape:cy="32.59376"
   inkscape:window-width="1920"
   inkscape:window-height="991"
   inkscape:window-x="-9"
   inkscape:window-y="-9"
   inkscape:window-maximized="1"
   inkscape:current-layer="svg6"><inkscape:grid
     id="grid7"
     units="px"
     originx="0"
     originy="0"
     spacingx="1"
     spacingy="1"
     empcolor="#0099e5"
     empopacity="0.30196078"
     color="#0099e5"
     opacity="0.14901961"
     empspacing="5"
     dotted="false"
     gridanglex="30"
     gridanglez="30"
     visible="true" /></sodipodi:namedview>&#10;	&#10;	&#10;	&#10;	&#10;&#10;  <desc
   id="hotspot"
   x="4"
   y="28" /><path
   style="fill:none;stroke:#000000;stroke-width:3;stroke-dasharray:none;stroke-opacity:1"
   d="m 9.3270872,40.085505 c 0.282401,2.097116 1.5115118,4.202184 3.7047038,4.928578 0.677294,0.224321 1.384455,0.374103 2.116973,0.336189 0.603253,-0.03123 1.145447,-0.123179 1.720042,-0.295147 2.15136,-0.643926 3.820533,-3.002973 3.837015,-4.96962"
   id="path210" /><path
   style="fill:none;stroke:#000000;stroke-width:3;stroke-dasharray:none;stroke-opacity:1"
   d="m 43.066355,39.953193 c 0.05137,1.124029 0.620053,2.625124 1.493705,3.560556 1.072062,1.147867 2.790254,1.916115 4.327972,1.836523 0.554898,-0.02872 1.057412,-0.112544 1.58773,-0.25809 2.192656,-0.601737 3.963663,-3.035532 3.969324,-5.006677"
   id="path209" /><path
   style="fill:none;stroke:#000000;stroke-width:1;stroke-dasharray:none;stroke-opacity:1"
   d="m 48.226477,37.377009 c 0.728743,-0.167303 1.507757,-0.0013 2.103091,0.511283 0.539249,0.464332 0.681162,1.019765 0.67299,1.667969 -0.01197,0.940156 -0.463461,1.820939 -1.452973,2.091956 -1.45042,0.397255 -3.024382,-0.4969 -3.019358,-2.091956 0.0034,-1.051154 0.56757,-1.920145 1.69625,-2.179252"
   id="path208" /><path
   style="fill:none;stroke:#000000;stroke-width:1;stroke-dasharray:none;stroke-opacity:1"
   d="m 14.487212,37.375587 c 0.715769,-0.155268 1.39078,-0.02658 1.977515,0.414181 0.57688,0.433362 0.805098,1.086704 0.798459,1.766493 -0.0093,0.943733 -0.562975,1.847144 -1.585178,2.098496 -0.894273,0.219894 -1.962741,0.04317 -2.528507,-0.787331 -0.281337,-0.412987 -0.379287,-0.965408 -0.365178,-1.443476 0.03094,-1.048149 0.585603,-1.805974 1.702889,-2.048363"
   id="path207" /><path
   style="fill:none;stroke:#000000;stroke-width:3;stroke-dasharray:none;stroke-opacity:1"
   d="m 25.468939,39.820814 c 0.924432,0.273256 2.647267,0.132303 4.498568,0.132303 h 7.806342 c 1.17337,0 2.552724,7.2e-5 3.704703,0 0.570411,-4.1e-5 0.740153,0.108366 1.171198,-0.07982 0.368733,-0.160981 0.39618,-0.588792 0.419188,-0.846444 0.03444,-0.385531 0.104979,-0.790064 0.214497,-1.190695 0.459358,-1.680533 1.855792,-3.098562 3.487551,-3.69745 0.835366,-0.306599 1.460344,-0.443312 2.381594,-0.398879 1.794548,0.08655 3.524771,1.141576 4.486625,2.640911 0.446696,0.696311 0.743894,1.620653 0.84307,2.381594 0.06404,0.491336 0.0922,0.845534 0.09504,1.190798 0.435283,0 0.737465,0 1.323109,0 1.320644,0 3.217114,0.341509 4.205771,-0.492694 0.668248,-0.563853 0.653333,-1.262224 0.72557,-2.021212 0.129321,-1.358835 -0.07449,-2.289508 -0.432773,-2.910839"
   id="path206" /><path
   style="fill:none;stroke:#000000;stroke-width:3;stroke-dasharray:none;stroke-opacity:1"
   d="m 29.438336,30.559124 h 1.455421"
   id="path202" /><path
   style="fill:none;stroke:#000000;stroke-width:3;stroke-dasharray:none;stroke-opacity:1"
   d="m 41.478634,26.5898 c -0.271398,0.195213 -0.515605,0.394992 -1.455421,0.396932 -0.911356,0.0019 -2.459743,0 -3.440081,0 h -6.747853 c -0.889772,0 -2.199758,0 -3.043151,0 -0.654609,0 -0.712261,0 -1.323107,0 -0.538911,0 -0.940059,0 -1.587731,0 -1.883216,0 -4.166023,0 -6.0863,0 H 13.0318 c -0.622309,0 -1.55837,0.0034 -2.116974,-1.07e-4 -0.743727,-0.0047 -0.9408638,-0.131128 -1.1907958,-0.264516"
   id="path199" /><path
   style="fill:none;stroke:#000000;stroke-width:3;stroke-dasharray:none;stroke-opacity:1"
   d="m 25.468989,18.783417 c 0,1.339106 0,2.696035 0,4.630882 0,0.627215 0,1.533759 0,2.116973 0,0.567665 0,0.764161 0,1.323107 0,0.559577 0,1.003096 0,1.852351 0,2.065024 0,4.151617 0,6.218612 0,1.090199 7.2e-5,2.369594 0,3.440081 -4.1e-5,0.557621 0.108389,0.740114 -0.07982,1.171197 -0.181619,0.415984 -0.722914,0.41546 -1.243274,0.416533 -1.742402,0.0036 -2.133149,0 -3.30777,0 -0.0068,-0.325488 -0.03929,-0.631513 -0.09504,-1.058487 -0.09353,-0.716217 -0.466779,-1.827584 -0.892994,-2.513906 -1.053607,-1.696597 -3.369944,-2.767802 -5.230567,-2.634273 -0.784707,0.05632 -1.6786,0.344602 -2.381594,0.699534 -1.200379,0.606059 -2.208034,1.858942 -2.6175268,3.125538 -0.147884,0.457401 -0.263255,1.145557 -0.293924,1.587116 -0.01671,0.240903 -0.02236,0.57508 -0.306071,0.714642 -0.376196,0.18512 -0.580839,0.07964 -1.016425,0.07982 -0.531574,2.44e-4 -1.432183,0.02624 -1.984662,-0.01174 -0.952168,-0.06562 -1.672391,-0.285456 -2.295228,-1.179467 -0.360575,-0.517566 -0.430147,-1.126282 -0.534245,-1.719531 -0.20323,-1.158157 0.122073,-2.127891 0.534245,-3.17546 0.170058,-0.432224 0.242701,-0.854287 0.288102,-1.32311 0.132641,-1.369663 -0.25433,-2.747678 0.128848,-3.969324 0.515453,-1.643388 2.211717,-1.587642 3.598322,-1.58773 0.82545,-5.7e-5 1.406689,0.138873 1.873078,-0.35763 0.332397,-0.35385 0.297437,-0.744136 0.6214298,-1.2301 0.883586,-1.325298 2.660299,-2.814602 3.735945,-3.969327 0.408581,-0.438619 0.753103,-0.765656 1.178954,-1.190796 0.617504,-0.616469 1.188924,-1.174291 1.984665,-1.441538 0.57126,-0.191849 0.970874,-0.146145 1.58773,-0.14619 0.562975,-4e-5 0.885385,0 1.455419,0 1.221711,0 2.650279,-8.1e-5 3.837015,0 0.564693,3.9e-5 0.788187,0.01129 1.323107,0.01829 0.537142,0.0072 0.987777,-0.01829 1.58773,-0.01829 2.153864,-1.47e-4 4.616093,-0.09315 6.615544,0.72158 2.556931,1.04189 4.820494,3.756622 6.87955,5.573191 0.579183,0.510975 0.953139,1.422913 1.246842,1.6646 0.465761,0.383269 0.760859,0.357558 1.532298,0.376212 0.915282,0.02213 1.950407,0.170148 2.91084,0.285142 3.132159,0.374999 6.295328,0.807616 9.394069,1.491047 1.030441,0.227265 2.551417,0.612787 3.290109,1.310553 0.336665,0.318009 0.58109,0.711865 0.510768,1.139444 -0.09527,0.579215 -0.730843,0.536688 -1.41928,0.537004 -0.604791,2.74e-4 -1.100506,-0.149622 -1.550777,0.135984 -0.387145,0.245571 -0.387242,0.677519 -0.31965,1.05481 0.115953,0.647205 0.535979,1.235068 1.208872,1.513098 0.53429,0.220752 1.266675,0.209461 1.852351,0.206842 0.388549,-0.0017 0.883603,0.116722 1.187124,-0.245734 0.263595,-0.314786 0.08192,-0.867683 0.02418,-1.341892 -0.124489,-1.022662 -0.507906,-1.337426 -0.814386,-1.58773"
   id="path196" /><path
   style="fill:#c83737;fill-opacity:1;stroke:#c83737;stroke-width:0.288692;stroke-linecap:round;stroke-linejoin:round;stroke-miterlimit:3;stroke-dasharray:none;stroke-opacity:1"
   d="m 5.7793562,38.349028 c -0.552599,-0.106366 -0.865686,-0.503901 -1.013396,-1.286736 -0.148155,-0.785193 -0.08662,-1.229338 0.340719,-2.459233 0.39954,-1.149889 0.504085,-2.060647 0.453826,-3.95356 -0.04216,-1.587782 0.02032,-1.812129 0.552822,-1.98493 0.435017,-0.141167 2.50405,-0.16946 10.8954608,-0.14899 l 6.904558,0.01684 v 4.959631 4.959632 l -0.828881,-0.02781 -0.82888,-0.0278 -0.232129,-0.804905 c -0.413103,-1.432433 -0.838105,-2.170253 -1.811634,-3.145062 -1.486422,-1.488381 -3.190489,-2.204066 -5.247938,-2.204066 -0.857591,0 -1.275548,0.04842 -1.857101,0.215135 -0.935311,0.26813 -1.956261,0.767449 -2.603403,1.273254 -1.1604168,0.906978 -2.1986008,2.550447 -2.5179888,3.986034 l -0.161903,0.727729 -0.83236,-0.01107 c -0.457797,-0.0061 -1.003095,-0.04393 -1.211772,-0.0841 z"
   id="path24" /><path
   style="fill:#c83737;fill-opacity:1;stroke:#c83737;stroke-width:0.288692;stroke-linecap:round;stroke-linejoin:round;stroke-miterlimit:3;stroke-dasharray:none;stroke-opacity:1"
   d="m 26.99273,33.491272 v -4.95292 l 7.145135,-0.04346 c 3.929823,-0.0239 7.253394,-0.05118 7.385711,-0.06061 0.812868,-0.05794 5.64627,0.480145 9.131543,1.016585 1.734139,0.266912 4.923774,0.883488 5.00845,0.968164 0.02884,0.02884 -0.03381,0.09964 -0.139218,0.157333 -0.712005,0.389663 -1.17829,1.414414 -1.06853,2.348299 0.24613,2.09419 1.829151,3.302289 4.331323,3.305494 l 0.567531,7.27e-4 -0.06589,0.93825 c -0.04434,0.631367 -0.11297,0.985462 -0.209836,1.082596 -0.112424,0.112734 -0.465764,0.151038 -1.613409,0.174902 l -1.469461,0.03055 -0.123443,-0.621039 c -0.252337,-1.269503 -0.940335,-2.530736 -1.908807,-3.499207 -1.943099,-1.943099 -4.730872,-2.616913 -7.340026,-1.774109 -1.252187,0.404479 -2.018926,0.8758 -2.991866,1.839125 -1.105906,1.094977 -1.776099,2.322508 -1.968498,3.605521 l -0.06549,0.436713 H 34.295342 26.99273 Z m 3.945462,-2.938004 v -1.539692 h -0.769847 -0.769846 v 1.539692 1.539693 h 0.769846 0.769847 z"
   id="path25" /><path
   style="fill:#888888;fill-opacity:1;stroke:#888888;stroke-width:0.136091;stroke-linecap:round;stroke-linejoin:round;stroke-miterlimit:3;stroke-dasharray:none;stroke-opacity:1"
   d="m 14.274314,41.034105 c -0.912137,-0.368544 -1.18632,-1.821137 -0.4907,-2.599671 0.71975,-0.80554 2.199899,-0.651534 2.681076,0.27896 0.746656,1.443874 -0.663295,2.937722 -2.190376,2.320711 z"
   id="path26" /><path
   style="fill:#888888;fill-opacity:1;stroke:#888888;stroke-width:0.136091;stroke-linecap:round;stroke-linejoin:round;stroke-miterlimit:3;stroke-dasharray:none;stroke-opacity:1"
   d="m 48.040072,40.955704 c -0.624135,-0.32119 -0.87816,-0.731822 -0.881564,-1.425052 -0.0034,-0.699827 0.242337,-1.129843 0.815022,-1.42599 0.821755,-0.424946 2.028192,-0.06535 2.315433,0.690154 0.588071,1.546742 -0.817632,2.897436 -2.248891,2.160888 z"
   id="path27" /><path
   style="fill:#888888;fill-opacity:1;stroke:#888888;stroke-width:0.136091;stroke-linecap:round;stroke-linejoin:round;stroke-miterlimit:3;stroke-dasharray:none;stroke-opacity:1"
   d="m 47.699845,43.634035 c -0.780809,-0.256932 -1.497149,-0.723819 -2.017444,-1.314906 -1.481,-1.682505 -1.3522,-4.445271 0.272055,-5.835572 0.960741,-0.822359 1.672924,-1.091283 2.902161,-1.095871 0.956669,-0.0036 1.17713,0.0449 1.817549,0.399623 1.928564,1.068209 2.797584,3.429972 1.95063,5.301288 -0.742461,1.640441 -1.99311,2.543143 -3.622947,2.614993 -0.528977,0.02332 -1.114879,-0.008 -1.302004,-0.06956 z m 2.439959,-1.616195 c 0.801167,-0.408527 1.276726,-1.141867 1.344049,-2.072604 0.110229,-1.523902 -0.260044,-2.312396 -1.34607,-2.866445 -0.704995,-0.359662 -1.993427,-0.359662 -2.698422,0 -1.960856,1.000354 -1.975016,3.830918 -0.02432,4.860767 0.751589,0.396792 2.028197,0.433469 2.724759,0.07828 z"
   id="path28" /><path
   style="fill:#888888;fill-opacity:1;stroke:#888888;stroke-width:0.136091;stroke-linecap:round;stroke-linejoin:round;stroke-miterlimit:3;stroke-dasharray:none;stroke-opacity:1"
   d="m 13.48278,43.478615 c -1.723,-0.672749 -2.859741,-2.776883 -2.521849,-4.668001 0.490428,-2.744832 3.230603,-4.207792 5.730335,-3.059385 1.552468,0.713222 2.476118,2.157528 2.477399,3.873896 0.0012,1.662729 -1.297769,3.47422 -2.814294,3.924579 -0.924036,0.274409 -2.058662,0.24632 -2.871591,-0.07109 z m 2.745445,-1.431731 c 1.011222,-0.422516 1.551073,-1.277446 1.551073,-2.456345 0,-0.901541 -0.09342,-1.223947 -0.519439,-1.79256 -0.489231,-0.652992 -1.238374,-0.985403 -2.220769,-0.985403 -1.023788,0 -1.580498,0.224291 -2.140881,0.862533 -1.203235,1.370408 -0.759842,3.667268 0.846967,4.387456 0.554134,0.248368 1.870994,0.240052 2.483049,-0.01568 z"
   id="path29" /></svg>
