<?xml version="1.0" encoding="UTF-8" standalone="no"?>
<svg
   width="64"
   height="64"
   viewBox="0 0 64 64"
   version="1.1"
   id="svg6"
   sodipodi:docname="MenuId.File.Save.svg"
   xml:space="preserve"
   inkscape:version="1.3 (0e150ed6c4, 2023-07-21)"
   xmlns:inkscape="http://www.inkscape.org/namespaces/inkscape"
   xmlns:sodipodi="http://sodipodi.sourceforge.net/DTD/sodipodi-0.dtd"
   xmlns="http://www.w3.org/2000/svg"
   xmlns:svg="http://www.w3.org/2000/svg"><defs
   id="defs6" /><sodipodi:namedview
   id="namedview6"
   pagecolor="#ffffff"
   bordercolor="#000000"
   borderopacity="0.25"
   inkscape:showpageshadow="2"
   inkscape:pageopacity="0.0"
   inkscape:pagecheckerboard="0"
   inkscape:deskcolor="#d1d1d1"
   showgrid="true"
   inkscape:zoom="8.905126"
   inkscape:cx="40.08927"
   inkscape:cy="37.225751"
   inkscape:window-width="1920"
   inkscape:window-height="991"
   inkscape:window-x="-9"
   inkscape:window-y="-9"
   inkscape:window-maximized="1"
   inkscape:current-layer="svg6"><inkscape:grid
     id="grid7"
     units="px"
     originx="0"
     originy="0"
     spacingx="1"
     spacingy="1"
     empcolor="#0099e5"
     empopacity="0.30196078"
     color="#0099e5"
     opacity="0.14901961"
     empspacing="5"
     dotted="false"
     gridanglex="30"
     gridanglez="30"
     visible="true" /></sodipodi:namedview>&#10;	&#10;	&#10;	&#10;	&#10;&#10;  <desc
   id="hotspot"
   x="4"
   y="28" /><path
   d="m 45.5,12.322987 h -6.75 v 10.125 h 6.75 z"
   id="path1"
   style="stroke-width:3.375" /><path
   d="M 10.0625,5.5729868 A 5.0625,5.0625 0 0 0 5,10.635487 v 43.875 a 5.0625,5.0625 0 0 0 5.0625,5.0625 h 43.875 A 5.0625,5.0625 0 0 0 59,54.510487 v -39.10275 a 5.0625,5.0625 0 0 0 -1.485,-3.5775 L 52.746125,7.0546118 A 5.0625,5.0625 0 0 0 49.16525,5.5729868 Z M 18.5,25.822987 a 3.375,3.375 0 0 1 -3.375,-3.375 V 8.9479868 h 33.75 V 22.447987 a 3.375,3.375 0 0 1 -3.375,3.375 z m -3.375,10.125 h 33.75 a 3.375,3.375 0 0 1 3.375,3.375 v 16.875 h -40.5 v -16.875 a 3.375,3.375 0 0 1 3.375,-3.375"
   id="path2"
   style="stroke-width:3.375" /></svg>
