<?xml version="1.0" encoding="UTF-8" standalone="no"?>
<svg
   width="64"
   height="64"
   viewBox="0 0 64 64"
   version="1.1"
   id="svg6"
   sodipodi:docname="MenuId.Object.Move.svg"
   xml:space="preserve"
   inkscape:version="1.3 (0e150ed6c4, 2023-07-21)"
   xmlns:inkscape="http://www.inkscape.org/namespaces/inkscape"
   xmlns:sodipodi="http://sodipodi.sourceforge.net/DTD/sodipodi-0.dtd"
   xmlns="http://www.w3.org/2000/svg"
   xmlns:svg="http://www.w3.org/2000/svg"><defs
   id="defs6" /><sodipodi:namedview
   id="namedview6"
   pagecolor="#ffffff"
   bordercolor="#000000"
   borderopacity="0.25"
   inkscape:showpageshadow="2"
   inkscape:pageopacity="0.0"
   inkscape:pagecheckerboard="0"
   inkscape:deskcolor="#d1d1d1"
   showgrid="true"
   inkscape:zoom="8.905126"
   inkscape:cx="31.161827"
   inkscape:cy="37.225751"
   inkscape:window-width="1920"
   inkscape:window-height="991"
   inkscape:window-x="-9"
   inkscape:window-y="-9"
   inkscape:window-maximized="1"
   inkscape:current-layer="svg6"><inkscape:grid
     id="grid7"
     units="px"
     originx="0"
     originy="0"
     spacingx="1"
     spacingy="1"
     empcolor="#0099e5"
     empopacity="0.30196078"
     color="#0099e5"
     opacity="0.14901961"
     empspacing="5"
     dotted="false"
     gridanglex="30"
     gridanglez="30"
     visible="true" /></sodipodi:namedview>&#10;	&#10;	&#10;	&#10;	&#10;&#10;  <desc
   id="hotspot"
   x="4"
   y="28" /><path
   d="m 21.862884,49.682803 8.733813,8.733812 c 0.375855,0.375855 0.828808,0.602332 1.356451,0.527643 0.602332,0 1.129975,-0.151788 1.50583,-0.527643 l 8.659123,-8.733812 c 1.204664,-1.204664 0.828809,-2.108162 -0.903498,-2.108162 h -5.87394 V 35.226837 h 12.198425 v 6.023319 c 0,1.732307 1.055286,2.033473 2.25995,0.828809 l 8.659123,-8.659124 c 0.375855,-0.375855 0.527643,-0.828808 0.527643,-1.43114 0.07469,-0.527643 -0.151788,-1.055286 -0.527643,-1.50583 l -8.659123,-8.584434 c -1.204664,-1.204664 -2.25995,-0.903498 -2.182851,0.828808 v 5.873941 H 35.343072 V 16.40276 h 5.873941 c 1.732306,0 2.108161,-0.978187 0.903498,-2.182851 L 33.461387,5.6354746 c -0.754119,-0.7541195 -2.108162,-0.8288087 -2.862281,0 l -8.733813,8.5844344 c -1.204663,1.204664 -0.828808,2.182851 0.903498,2.182851 h 5.873941 V 28.524088 H 16.521405 v -5.796843 c 0,-1.732306 -1.055286,-2.033472 -2.25995,-0.828808 l -8.6591232,8.584434 c -0.3758551,0.375855 -0.5276428,0.903498 -0.6023319,1.50583 0,0.602332 0.2264768,1.055285 0.6023319,1.43114 l 8.6591232,8.659124 c 1.204664,1.204664 2.182851,0.903498 2.182851,-0.828809 v -5.94863 h 12.198426 v 12.273115 h -5.873941 c -1.732306,0 -2.108161,0.903498 -0.903498,2.108162 z"
   id="path1"
   style="fill:#000000;fill-opacity:1;stroke-width:2.40933" /></svg>
