<?xml version="1.0" encoding="UTF-8" standalone="no"?>
<svg
   width="64"
   height="64"
   viewBox="0 0 64 64"
   version="1.1"
   id="svg6"
   sodipodi:docname="MenuId.Projection.Direction.FromBack.svg"
   xml:space="preserve"
   inkscape:version="1.3 (0e150ed6c4, 2023-07-21)"
   xmlns:inkscape="http://www.inkscape.org/namespaces/inkscape"
   xmlns:sodipodi="http://sodipodi.sourceforge.net/DTD/sodipodi-0.dtd"
   xmlns="http://www.w3.org/2000/svg"
   xmlns:svg="http://www.w3.org/2000/svg"><defs
   id="defs6" /><sodipodi:namedview
   id="namedview6"
   pagecolor="#ffffff"
   bordercolor="#000000"
   borderopacity="0.25"
   inkscape:showpageshadow="2"
   inkscape:pageopacity="0.0"
   inkscape:pagecheckerboard="0"
   inkscape:deskcolor="#d1d1d1"
   showgrid="true"
   inkscape:zoom="5.1958435"
   inkscape:cx="58.98946"
   inkscape:cy="18.765"
   inkscape:window-width="1920"
   inkscape:window-height="991"
   inkscape:window-x="-9"
   inkscape:window-y="-9"
   inkscape:window-maximized="1"
   inkscape:current-layer="svg6"><inkscape:grid
     id="grid7"
     units="px"
     originx="0"
     originy="0"
     spacingx="1"
     spacingy="1"
     empcolor="#0099e5"
     empopacity="0.30196078"
     color="#0099e5"
     opacity="0.14901961"
     empspacing="5"
     dotted="false"
     gridanglex="30"
     gridanglez="30"
     visible="true" /></sodipodi:namedview>&#10;	&#10;	&#10;	&#10;	&#10;&#10;  <desc
   id="hotspot"
   x="4"
   y="28" /><path
   style="fill:none;stroke:#000000;stroke-width:3.55389;stroke-opacity:1"
   d="m 5.1831114,45.956579 c 0,1.954368 -0.627598,3.467165 0.714847,5.196888 0.77226,0.995057 1.675597,1.167971 2.825159,1.292958 1.5019216,0.163301 3.0077926,0.29412 4.3727846,-0.361996 1.642482,-0.789513 1.747201,-2.462705 1.855644,-4.045496 0.06042,-0.881723 0.01848,-1.363278 0.01848,-1.874121"
   id="path241" /><path
   style="fill:none;stroke:#000000;stroke-width:3.55389;stroke-opacity:1"
   d="m 49.329054,45.956586 c 1.087322,0 4.38415,-0.02985 6.663538,-0.1896 0.940487,-0.06592 1.177059,-0.02026 2.290591,-0.22688"
   id="path240" /><path
   style="fill:none;stroke:#000000;stroke-width:3.55389;stroke-opacity:1"
   d="m 60.157155,35.9613 c 0,1.583587 0.110597,2.704419 -0.01848,4.581181 -0.124314,1.805158 -1.074126,2.785814 -1.581845,4.581184 -0.286373,1.01262 -0.06052,1.872252 -0.06557,2.915296 -0.0071,1.476335 0.0039,3.456682 -1.668941,4.162946 -0.908423,0.383567 -1.844595,0.427898 -2.91208,0.414387 -1.401905,-0.01777 -3.057793,-0.179756 -4.09932,-1.462947 -0.50145,-0.617819 -0.617011,-1.301295 -0.67146,-2.073207 -0.08547,-1.211818 0.08604,-2.72581 -0.501308,-3.11775 -0.393742,-0.262739 -0.704907,-0.209147 -1.39145,-0.213873 -2.638211,-0.01812 -6.226307,-1.53e-4 -8.954133,-1.53e-4 -4.428918,0 -8.902757,-0.185549 -13.327077,0.0082 -2.472045,0.108251 -5.25547,0.19987 -7.704713,0.200048 -1.053668,6.4e-5 -1.362451,0.03163 -2.290594,0.03163 -0.808336,0 -1.482807,-0.03127 -2.290591,-0.03163 -1.056077,-6.4e-5 -4.0594666,0.0043 -4.9976536,-1.53e-4 -0.616002,-0.003 -0.920912,0.03963 -1.453792,-0.119055 -0.834486,-0.248549 -1.253038,-1.022724 -1.588923,-1.754928 -1.247293,-2.719008 -0.705524,-6.225639 -0.705524,-7.912954"
   id="path237" /><path
   style="fill:none;stroke:#000000;stroke-width:3.55389;stroke-opacity:1"
   d="m 52.452494,24.716516 c 1.658965,0.03412 2.241579,0.175633 3.956479,0.847076 0.873009,0.341813 1.81711,0.92604 2.365947,1.660113 0.571078,0.763816 1.127926,1.860688 0.716293,2.63251 -0.327988,0.614958 -1.388408,0.48237 -2.041065,0.482661 -1.524184,6.89e-4 -3.868243,-0.384353 -5.186283,0.435106 -0.873727,0.543226 -1.206264,1.50602 -1.301473,2.480194 -0.07172,0.733654 -0.05022,1.472354 0.514319,1.959759 0.448173,0.386947 1.060089,0.448408 1.600493,0.503557 1.246856,0.127265 3.324096,0.03554 4.581181,0.03554 0.721066,0 1.642269,0.199942 2.164942,-0.214015 0.619059,-0.490301 0.333888,-1.453263 0.333888,-2.284808 0,-1.469788 -0.07634,-2.204828 -0.208222,-2.9153"
   id="path234" /><path
   style="fill:none;stroke:#000000;stroke-width:3.55389;stroke-opacity:1"
   d="m 12.054744,24.508269 c 0.0068,-0.826638 0.02026,-1.212298 0.211456,-2.082354 0.471104,-2.143897 1.729702,-5.382948 3.182983,-7.079859 1.016973,-1.187453 2.203463,-2.124005 3.685576,-2.693715 2.739375,-1.052984 6.189752,-1.054676 9.162366,-1.054676 5.26326,0 11.423465,-0.780412 16.450613,0.809647 1.307717,0.413622 2.433581,1.201292 3.312329,2.113848 0.910027,0.945043 1.48915,2.105728 2.038162,3.323571 0.626831,1.390454 1.503219,3.606833 1.832992,4.997653 0.155767,0.656901 0.209146,1.114731 0.312991,1.665885 -0.393124,0.09361 -0.760188,0.187397 -1.457968,0.205202 -0.69018,0.01777 -1.925784,0.003 -2.706744,0.003 H 41.624194 23.091231 c -2.962706,0 -6.230825,0.0046 -9.162366,0 -0.932,-0.0015 -1.285441,-0.09802 -2.082357,-0.08853 -0.757103,0.0089 -1.235957,0.148126 -2.0823536,0.345794 -1.78058,0.415836 -3.990785,1.069204 -4.968573,2.866288 -0.478111,0.878723 -0.453213,1.562989 -0.652984,2.290594 -0.206339,0.751459 -0.207689,1.205475 -0.20904,1.874117 -0.0035,1.738129 -0.08053,2.979587 0.208223,3.956479 1.668034,-0.493048 2.668859,-0.195144 5.414126,-0.2084 1.1054646,-0.0053 2.7488036,-0.05569 3.2944926,-1.05324 0.723362,-1.322341 -0.02665,-3.553259 -1.428727,-4.09754 -1.34671,-0.522827 -3.8395866,-0.263201 -5.1975346,-0.263201 -0.88227,0 -1.267462,0 -1.665884,0"
   id="path232" /><path
   style="fill:none;fill-opacity:1;stroke:#000000;stroke-width:5;stroke-linecap:round;stroke-linejoin:round;stroke-miterlimit:3;stroke-dasharray:none;stroke-opacity:1"
   d="M 20,38 H 43"
   id="path30" /><path
   style="fill:none;fill-opacity:1;stroke:#000000;stroke-width:0.340227;stroke-linecap:round;stroke-linejoin:round;stroke-miterlimit:3;stroke-dasharray:none;stroke-opacity:1"
   d="m 48.924663,44.101239 c -0.333237,-0.133754 -0.553458,-0.13769 -10.717155,-0.191545 -10.154465,-0.05381 -11.076437,-0.04498 -16.364926,0.156722 -1.047899,0.03997 -4.856756,0.07093 -8.464127,0.06882 C 7.5529799,44.13182 6.8065674,44.119595 6.7030412,44.025904 6.5042139,43.845968 6.0965762,42.891164 5.917948,42.18699 5.6911496,41.292924 5.5808518,39.81661 5.6452062,38.536396 c 0.047548,-0.945879 0.057809,-0.999703 0.1964796,-1.030648 0.080472,-0.01796 0.9577536,-0.01285 1.9495157,0.01134 3.8161265,0.0931 4.9708535,-0.138315 6.0620765,-1.214851 2.058437,-2.030733 1.025393,-6.28538 -1.79443,-7.39046 -0.864639,-0.338849 -1.415684,-0.400742 -3.5678966,-0.400742 H 6.502907 l 0.3182461,-0.323086 c 0.5736061,-0.582331 1.5343362,-0.996152 3.3604659,-1.447477 l 0.977831,-0.241669 20.120782,0.0043 c 14.017093,0.003 20.259427,-0.01781 20.577824,-0.06868 0.310732,-0.04964 0.470812,-0.05073 0.500058,-0.0034 0.02366,0.03828 0.378456,0.09986 0.78844,0.13684 0.847404,0.07644 1.412633,0.220445 2.355983,0.60025 0.848198,0.341497 1.366949,0.656211 1.698096,1.030197 0.145959,0.16484 0.256903,0.308186 0.246543,0.318546 -0.01036,0.01036 -0.630518,-0.0038 -1.378127,-0.03148 -3.061426,-0.113331 -4.335726,0.206632 -5.513467,1.384374 -0.837461,0.837461 -1.251467,1.810693 -1.389102,3.265463 -0.142634,1.507616 0.194908,2.576108 1.065618,3.373216 0.991798,0.907961 1.946668,1.086495 5.811534,1.086591 l 2.287744,5.7e-5 0.04693,0.414779 c 0.07256,0.641375 -0.02965,2.476324 -0.168315,3.021515 -0.06663,0.261975 -0.359826,1.014361 -0.651548,1.671969 l -0.530403,1.19565 -1.499983,0.08413 c -0.824991,0.04627 -2.55639,0.102192 -3.847552,0.124272 -1.291162,0.02208 -2.362877,0.06045 -2.38159,0.08527 -0.01871,0.02482 -0.187125,-0.01633 -0.374249,-0.09144 z m -4.834932,-3.812848 c 1.025763,-0.503643 1.617188,-1.662443 1.397751,-2.738666 -0.172478,-0.845907 -0.668297,-1.488695 -1.428068,-1.851366 l -0.374249,-0.178646 -12.041076,-0.01776 c -13.284487,-0.01959 -12.396114,-0.04734 -13.074261,0.408425 -0.693469,0.466063 -1.079395,1.21439 -1.079395,2.092989 0,0.877794 0.375696,1.606009 1.076657,2.086896 0.658637,0.45185 -0.249396,0.423341 13.040011,0.409417 l 12.078064,-0.01265 z"
   id="path31" /><path
   style="fill:#888888;fill-opacity:1;stroke:#000000;stroke-width:0.340227;stroke-linecap:round;stroke-linejoin:round;stroke-miterlimit:3;stroke-dasharray:none;stroke-opacity:1"
   d="M 10.036701,50.753471 C 9.1073179,50.676988 8.3291344,50.574191 8.0207583,50.487167 7.6197101,50.373991 7.245647,50.011711 7.0326417,49.530177 6.8781911,49.181016 6.8013919,48.491125 6.8677289,48.048758 l 0.047221,-0.31489 2.87075,7.48e-4 c 1.5789121,4.12e-4 2.9853771,0.0197 3.1254761,0.04285 l 0.254727,0.04211 -0.03825,0.382429 c -0.180887,1.808333 -0.334409,2.111416 -1.205803,2.380501 -0.432614,0.13359 -1.339685,0.215853 -1.885145,0.170965 z"
   id="path32" /><path
   style="fill:#888888;fill-opacity:1;stroke:#000000;stroke-width:0.340227;stroke-linecap:round;stroke-linejoin:round;stroke-miterlimit:3;stroke-dasharray:none;stroke-opacity:1"
   d="M 52.769229,50.730697 C 52.20553,50.628385 51.918874,50.528544 51.590003,50.31998 51.105212,50.012535 50.985764,49.693918 50.945731,48.601447 l -0.03179,-0.867579 0.842588,-4.56e-4 c 1.007448,-5.45e-4 4.027332,-0.116419 4.541165,-0.174246 l 0.364351,-0.041 -0.0321,1.111524 c -0.04524,1.566374 -0.133498,1.784109 -0.81193,2.003034 -0.405725,0.130924 -2.496982,0.19813 -3.048783,0.09798 z"
   id="path33" /><path
   style="fill:#ff0000;fill-opacity:1;stroke:#000000;stroke-width:0.340227;stroke-linecap:round;stroke-linejoin:round;stroke-miterlimit:3;stroke-dasharray:none;stroke-opacity:1"
   d="m 6.481327,33.872592 -0.7314884,-0.0246 v -0.837528 -0.837527 l 1.2357259,-0.04476 c 2.3986252,-0.08688 3.4565235,-0.02568 3.7996355,0.219825 0.245149,0.175409 0.475374,0.625937 0.52229,1.022072 0.03896,0.328973 0.0327,0.346127 -0.155791,0.426502 -0.198001,0.08443 -3.0429431,0.130734 -4.670372,0.07601 z"
   id="path34" /><path
   style="fill:#ff0000;fill-opacity:1;stroke:#000000;stroke-width:0.340227;stroke-linecap:round;stroke-linejoin:round;stroke-miterlimit:3;stroke-dasharray:none;stroke-opacity:1"
   d="m 53.619797,33.946429 c -0.1497,-0.0142 -0.406312,-0.0436 -0.570249,-0.06533 l -0.298068,-0.0395 0.03506,-0.419784 c 0.05482,-0.656344 0.220104,-0.990445 0.565571,-1.143262 0.433672,-0.191834 0.911128,-0.217211 3.047315,-0.161968 l 1.949523,0.05042 -1.46e-4,0.893834 -1.47e-4,0.893833 -2.228341,0.0088 c -1.225588,0.0048 -2.350823,-0.0028 -2.500523,-0.01703 z"
   id="path35" /><path
   style="fill:#7b2222;fill-opacity:1;stroke:#000000;stroke-width:0.340227;stroke-linecap:round;stroke-linejoin:round;stroke-miterlimit:3;stroke-dasharray:none;stroke-opacity:1"
   d="m 49.026731,43.908201 c -0.295407,-0.125651 -4.326772,-0.180918 -14.017358,-0.192168 -6.365588,-0.0074 -9.834752,0.01451 -10.853246,0.0685 -1.672505,0.08866 -16.3559868,0.181095 -16.951351,0.10671 C 6.8801379,43.85068 6.8123092,43.815529 6.6981505,43.628696 6.4944672,43.295347 6.1764654,42.418389 6.0598281,41.868386 5.8971242,41.101155 5.7912821,39.435264 5.8482132,38.537691 l 0.050271,-0.792565 2.6985285,-0.03258 c 3.4291033,-0.04141 3.9264513,-0.131192 4.9660813,-0.896525 1.090313,-0.802642 1.648908,-2.112795 1.553595,-3.643871 C 15.0006,31.307315 13.962331,29.620451 12.485493,28.897268 11.498748,28.414076 11.346398,28.390284 9.0312154,28.357821 L 6.971026,28.328934 7.2280115,28.123922 C 7.7558222,27.702858 8.6969974,27.33465 10.234129,26.947867 l 0.925321,-0.232836 20.481674,-0.03187 c 11.26492,-0.01753 20.527604,-0.03642 20.583742,-0.04198 0.05614,-0.0056 0.25517,0.01922 0.442295,0.05507 0.187125,0.03585 0.600501,0.101085 0.918613,0.14497 1.010503,0.139405 2.611082,0.768269 3.153191,1.238881 l 0.261261,0.226804 -1.792283,8.89e-4 c -1.472272,7.3e-4 -1.895553,0.02297 -2.370668,0.124555 -1.055675,0.225715 -1.727555,0.595747 -2.49636,1.374849 -0.384476,0.389624 -0.554177,0.631356 -0.793795,1.130728 -0.39265,0.818299 -0.530273,1.438357 -0.57149,2.574846 -0.05066,1.396959 0.188282,2.149931 0.935684,2.94857 1.038449,1.109636 2.099839,1.333344 6.341074,1.336498 l 1.884091,0.0014 0.04841,0.322819 c 0.02663,0.17755 0.01466,0.830099 -0.02659,1.450109 -0.08697,1.307239 -0.171093,1.623301 -0.834116,3.133999 l -0.436391,0.994315 -0.681362,0.04158 c -0.374748,0.02287 -1.691836,0.07216 -2.92686,0.109546 -1.235025,0.03738 -2.658875,0.08169 -3.164112,0.09846 -0.567324,0.01883 -0.983667,0.0028 -1.088727,-0.04186 z M 44.158874,40.48703 c 1.093247,-0.55014 1.736551,-1.772789 1.530557,-2.908943 -0.160171,-0.883422 -0.597434,-1.509263 -1.378876,-1.973544 l -0.486367,-0.288966 -11.058849,-0.02132 c -11.776938,-0.0227 -13.526051,0.0081 -13.993048,0.24633 -0.474403,0.242023 -0.956815,0.735103 -1.197479,1.223961 -0.213189,0.43305 -0.223228,0.488759 -0.223228,1.238824 0,0.750066 0.01004,0.805775 0.223228,1.238825 0.253265,0.514454 0.755731,1.014655 1.239749,1.23416 0.473198,0.214598 1.560495,0.232157 13.813222,0.223065 l 11.125427,-0.0083 z"
   id="path36" /></svg>
