<?xml version="1.0" encoding="UTF-8" standalone="no"?>
<svg
   width="64"
   height="64"
   viewBox="0 0 64 64"
   version="1.1"
   id="svg6"
   sodipodi:docname="MenuId.Edit.Cut.svg"
   xml:space="preserve"
   inkscape:version="1.3 (0e150ed6c4, 2023-07-21)"
   xmlns:inkscape="http://www.inkscape.org/namespaces/inkscape"
   xmlns:sodipodi="http://sodipodi.sourceforge.net/DTD/sodipodi-0.dtd"
   xmlns="http://www.w3.org/2000/svg"
   xmlns:svg="http://www.w3.org/2000/svg"><defs
   id="defs6" /><sodipodi:namedview
   id="namedview6"
   pagecolor="#ffffff"
   bordercolor="#000000"
   borderopacity="0.25"
   inkscape:showpageshadow="2"
   inkscape:pageopacity="0.0"
   inkscape:pagecheckerboard="0"
   inkscape:deskcolor="#d1d1d1"
   showgrid="true"
   inkscape:zoom="8.905126"
   inkscape:cx="40.145417"
   inkscape:cy="37.225751"
   inkscape:window-width="1920"
   inkscape:window-height="991"
   inkscape:window-x="-9"
   inkscape:window-y="-9"
   inkscape:window-maximized="1"
   inkscape:current-layer="svg6"><inkscape:grid
     id="grid7"
     units="px"
     originx="0"
     originy="0"
     spacingx="1"
     spacingy="1"
     empcolor="#0099e5"
     empopacity="0.30196078"
     color="#0099e5"
     opacity="0.14901961"
     empspacing="5"
     dotted="false"
     gridanglex="30"
     gridanglez="30"
     visible="true" /></sodipodi:namedview>&#10;	&#10;	&#10;	&#10;	&#10;&#10;  <desc
   id="hotspot"
   x="4"
   y="28" /><path
   id="path892"
   d="M 18.8125,38.4375 A 8.4375,8.4375 0 0 0 10.375,46.875 8.4375,8.4375 0 0 0 18.8125,55.3125 8.4375,8.4375 0 0 0 27.25,46.875 8.4375,8.4375 0 0 0 18.8125,38.4375 Z m 0,3.375 A 5.0625,5.0625 0 0 1 23.875,46.875 5.0625,5.0625 0 0 1 18.8125,51.9375 5.0625,5.0625 0 0 1 13.75,46.875 5.0625,5.0625 0 0 1 18.8125,41.8125 Z"
   style="fill:#373737;fill-opacity:1;stroke:none;stroke-width:1.6875;stroke-linejoin:bevel;stroke-miterlimit:4;stroke-dasharray:none;stroke-dashoffset:0;stroke-opacity:1" /><path
   id="path897"
   d="M 44.125,8.0625 20.5,41.8125 h 3.375 v 3.375 l 20.25,-30.375 z M 30.625,30 A 1.6875,1.6875 0 0 1 32.3125,31.6875 1.6875,1.6875 0 0 1 30.625,33.375 1.6875,1.6875 0 0 1 28.9375,31.6875 1.6875,1.6875 0 0 1 30.625,30 Z"
   style="fill:#373737;fill-opacity:1;stroke:none;stroke-width:3.375px;stroke-linecap:butt;stroke-linejoin:miter;stroke-opacity:1" /><path
   id="path892-6"
   d="M 42.4375,38.4375 A 8.4375,8.4375 0 0 1 50.875,46.875 8.4375,8.4375 0 0 1 42.4375,55.3125 8.4375,8.4375 0 0 1 34,46.875 8.4375,8.4375 0 0 1 42.4375,38.4375 Z m 0,3.375 A 5.0625,5.0625 0 0 0 37.375,46.875 5.0625,5.0625 0 0 0 42.4375,51.9375 5.0625,5.0625 0 0 0 47.5,46.875 5.0625,5.0625 0 0 0 42.4375,41.8125 Z"
   style="fill:#373737;fill-opacity:1;stroke:none;stroke-width:1.6875;stroke-linejoin:bevel;stroke-miterlimit:4;stroke-dasharray:none;stroke-dashoffset:0;stroke-opacity:1" /><path
   id="path897-7"
   d="m 17.125,8.0625 v 6.75 l 20.25,30.375 v -3.375 H 40.75 Z M 30.625,30 A 1.6875,1.6875 0 0 1 32.3125,31.6875 1.6875,1.6875 0 0 1 30.625,33.375 1.6875,1.6875 0 0 1 28.9375,31.6875 1.6875,1.6875 0 0 1 30.625,30 Z"
   style="fill:#373737;fill-opacity:1;stroke:none;stroke-width:3.375px;stroke-linecap:butt;stroke-linejoin:miter;stroke-opacity:1" /></svg>
