<?xml version="1.0" encoding="UTF-8" standalone="no"?>
<!-- Created with Inkscape (http://www.inkscape.org/) -->

<svg
   width="63.999996"
   height="63.999996"
   viewBox="0 0 16.933332 16.933332"
   version="1.1"
   id="svg1"
   xml:space="preserve"
   xmlns="http://www.w3.org/2000/svg"
   xmlns:svg="http://www.w3.org/2000/svg"><defs
     id="defs1"><rect
       x="19.84775"
       y="1.8984804"
       width="16.050789"
       height="27.959438"
       id="rect9" /></defs><g
     id="layer1"><g
       id="g1397"
       transform="matrix(0.51748941,-0.16290741,0.1681425,0.50137744,-43.654199,-131.48631)"><path
         id="path4696"
         d="m 18.441177,273.90514 5.409761,5.40969 -12.983304,12.98331 -5.4097609,-5.40969 z"
         style="fill:#000000;fill-opacity:1;stroke-width:0.0529167;stroke-linejoin:round" /><path
         id="path4694"
         d="m 24.878538,278.2327 -5.355367,-5.35536 2.295188,-2.29519 c 0.845079,-0.84501 2.215166,-0.84501 3.060247,0 l 2.295121,2.29519 c 0.845079,0.84501 0.845079,2.21516 0,3.06018 z"
         style="fill:#000000;fill-opacity:1;stroke-width:0.0529167;stroke-linejoin:round" /><path
         id="path4138"
         d="m 4.1054837,294.19146 -0.5409964,-0.54093 1.4200394,-4.53065 3.6516077,3.65161 z"
         style="fill:#000000;fill-opacity:1;stroke-width:0.0529167;stroke-linejoin:round" /></g><text
       xml:space="preserve"
       style="font-size:9.53464px;text-align:start;writing-mode:lr-tb;direction:ltr;text-anchor:start;fill:#ff0000;stroke-width:0.794552"
       x="-0.42905974"
       y="7.4029799"
       id="text8"
       transform="scale(0.94467109,1.0585695)"><tspan
         id="tspan8"
         style="fill:#ff0000;stroke-width:0.794552"
         x="-0.42905974"
         y="7.4029799">3</tspan></text><text
       xml:space="preserve"
       transform="matrix(0.61674382,0,0,0.86465057,-7.6671434,-3.1446742)"
       id="text9"
       style="font-style:normal;font-variant:normal;font-weight:normal;font-stretch:normal;font-size:12px;font-family:sans-serif;-inkscape-font-specification:'sans-serif, Normal';font-variant-ligatures:normal;font-variant-caps:normal;font-variant-numeric:normal;font-variant-east-asian:normal;text-align:start;writing-mode:lr-tb;direction:ltr;white-space:pre;shape-inside:url(#rect9);fill:#ff0000"><tspan
         x="19.847656"
         y="12.81694"
         id="tspan1">D</tspan></text></g></svg>
