<?xml version="1.0" encoding="UTF-8" standalone="no"?>
<svg
   width="64"
   height="64"
   viewBox="0 0 64 64"
   version="1.1"
   id="svg6"
   sodipodi:docname="MenuId.Edit.Paste.svg"
   xml:space="preserve"
   inkscape:version="1.3 (0e150ed6c4, 2023-07-21)"
   xmlns:inkscape="http://www.inkscape.org/namespaces/inkscape"
   xmlns:sodipodi="http://sodipodi.sourceforge.net/DTD/sodipodi-0.dtd"
   xmlns="http://www.w3.org/2000/svg"
   xmlns:svg="http://www.w3.org/2000/svg"><defs
   id="defs6" /><sodipodi:namedview
   id="namedview6"
   pagecolor="#ffffff"
   bordercolor="#000000"
   borderopacity="0.25"
   inkscape:showpageshadow="2"
   inkscape:pageopacity="0.0"
   inkscape:pagecheckerboard="0"
   inkscape:deskcolor="#d1d1d1"
   showgrid="true"
   inkscape:zoom="8.905126"
   inkscape:cx="31.161827"
   inkscape:cy="37.225751"
   inkscape:window-width="1920"
   inkscape:window-height="991"
   inkscape:window-x="-9"
   inkscape:window-y="-9"
   inkscape:window-maximized="1"
   inkscape:current-layer="svg6"><inkscape:grid
     id="grid7"
     units="px"
     originx="0"
     originy="0"
     spacingx="1"
     spacingy="1"
     empcolor="#0099e5"
     empopacity="0.30196078"
     color="#0099e5"
     opacity="0.14901961"
     empspacing="5"
     dotted="false"
     gridanglex="30"
     gridanglez="30"
     visible="true" /></sodipodi:namedview>&#10;	&#10;	&#10;	&#10;	&#10;&#10;  <desc
   id="hotspot"
   x="4"
   y="28" /><path
   d="M 8.2491698,54.49992 H 20.749606 V 51.999833 H 10.749257 V 11.998435 h 5.000175 v 5.000175 h 25.000874 v -5.000175 h 5.000174 v 7.500262 h 1.000036 a 2.4725864,2.4725864 0 0 1 1.500052,0.552519 V 9.4983472 H 40.750306 V 6.99826 h -7.500262 a 5.0001748,5.0001748 0 0 0 -10.000349,0 H 15.749432 V 9.4983472 H 8.2491698 Z M 18.249519,9.4983472 h 7.500262 V 6.0357259 A 1.5375537,1.5375537 0 0 1 27.284835,4.498172 h 1.927567 a 1.5375537,1.5375537 0 0 1 1.537554,1.5375539 v 3.4626213 h 7.500262 V 14.498523 H 18.249519 Z M 28.249868,44.499571 h 22.500787 v 2.500087 H 28.249868 Z M 23.249694,21.998784 V 62.000183 H 55.75083 V 30.999099 L 46.750515,21.998784 Z M 53.250742,59.500095 H 25.749781 V 24.498872 h 17.500611 v 10.00035 h 10.00035 z m 0,-27.500961 h -7.500263 v -7.500262 h 0.775029 l 6.725234,6.725234 z m -25.000874,5.000175 h 22.500787 v 2.500087 H 28.249868 Z m 0,15.000524 H 45.750479 V 54.49992 H 28.249868 Z"
   id="path1"
   style="stroke-width:1;stroke-dasharray:none;stroke:#000000;stroke-opacity:1;fill:#000000;fill-opacity:1" /></svg>
