<?xml version="1.0" encoding="UTF-8" standalone="no"?>
<svg
   width="64"
   height="64"
   viewBox="0 0 64 64"
   version="1.1"
   id="svg6"
   sodipodi:docname="MenuId.Object.Rotate.svg"
   xml:space="preserve"
   inkscape:version="1.3 (0e150ed6c4, 2023-07-21)"
   xmlns:inkscape="http://www.inkscape.org/namespaces/inkscape"
   xmlns:sodipodi="http://sodipodi.sourceforge.net/DTD/sodipodi-0.dtd"
   xmlns="http://www.w3.org/2000/svg"
   xmlns:svg="http://www.w3.org/2000/svg"><defs
   id="defs6" /><sodipodi:namedview
   id="namedview6"
   pagecolor="#ffffff"
   bordercolor="#000000"
   borderopacity="0.25"
   inkscape:showpageshadow="2"
   inkscape:pageopacity="0.0"
   inkscape:pagecheckerboard="0"
   inkscape:deskcolor="#d1d1d1"
   showgrid="true"
   inkscape:zoom="8.905126"
   inkscape:cx="31.10568"
   inkscape:cy="37.225751"
   inkscape:window-width="1920"
   inkscape:window-height="991"
   inkscape:window-x="-9"
   inkscape:window-y="-9"
   inkscape:window-maximized="1"
   inkscape:current-layer="svg6"><inkscape:grid
     id="grid7"
     units="px"
     originx="0"
     originy="0"
     spacingx="1"
     spacingy="1"
     empcolor="#0099e5"
     empopacity="0.30196078"
     color="#0099e5"
     opacity="0.14901961"
     empspacing="5"
     dotted="false"
     gridanglex="30"
     gridanglez="30"
     visible="true" /></sodipodi:namedview>&#10;	&#10;	&#10;	&#10;	&#10;&#10;  <desc
   id="hotspot"
   x="4"
   y="28" /><path
   id="primary"
   d="m 57.296409,13.15144 a 2.6991044,2.6991044 0 0 0 -3.508836,1.511499 l -2.699104,6.612805 a 24.29194,24.29194 0 1 0 -3.562818,26.775116 2.6991044,2.6991044 0 0 0 -0.242919,-3.805738 2.6991044,2.6991044 0 0 0 -3.805738,0.24292 18.893731,18.893731 0 1 1 3.238926,-19.784435 l -8.313242,-3.454854 a 2.7015328,2.7015328 0 1 0 -1.997337,5.020335 l 13.495521,5.398209 a 2.6991044,2.6991044 0 0 0 0.99867,0.188937 2.6991044,2.6991044 0 0 0 2.510167,-1.700436 L 58.807908,16.660276 A 2.6991044,2.6991044 0 0 0 57.296409,13.15144 Z"
   style="fill:#000000;stroke-width:1.3;stroke:#000000;stroke-opacity:1;stroke-dasharray:none;stroke-linejoin:bevel" /></svg>
