<?xml version="1.0" encoding="UTF-8" standalone="no"?>
<svg
   width="64"
   height="64"
   viewBox="0 0 64 64"
   version="1.1"
   id="svg6"
   sodipodi:docname="MenuId.Projection.Direction.svg"
   xml:space="preserve"
   inkscape:version="1.3 (0e150ed6c4, 2023-07-21)"
   xmlns:inkscape="http://www.inkscape.org/namespaces/inkscape"
   xmlns:sodipodi="http://sodipodi.sourceforge.net/DTD/sodipodi-0.dtd"
   xmlns="http://www.w3.org/2000/svg"
   xmlns:svg="http://www.w3.org/2000/svg"><defs
   id="defs6" /><sodipodi:namedview
   id="namedview6"
   pagecolor="#ffffff"
   bordercolor="#000000"
   borderopacity="0.25"
   inkscape:showpageshadow="2"
   inkscape:pageopacity="0.0"
   inkscape:pagecheckerboard="0"
   inkscape:deskcolor="#d1d1d1"
   showgrid="true"
   inkscape:zoom="6.296875"
   inkscape:cx="27.712159"
   inkscape:cy="24.377171"
   inkscape:window-width="1920"
   inkscape:window-height="991"
   inkscape:window-x="-9"
   inkscape:window-y="-9"
   inkscape:window-maximized="1"
   inkscape:current-layer="svg6"><inkscape:grid
     id="grid7"
     units="px"
     originx="0"
     originy="0"
     spacingx="1"
     spacingy="1"
     empcolor="#0099e5"
     empopacity="0.30196078"
     color="#0099e5"
     opacity="0.14901961"
     empspacing="5"
     dotted="false"
     gridanglex="30"
     gridanglez="30"
     visible="true" /></sodipodi:namedview>&#10;	&#10;	&#10;	&#10;	&#10;&#10;  <desc
   id="hotspot"
   x="4"
   y="28" /><g
   id="g4"
   transform="matrix(0.12292563,0,0,0.12292659,2,1.9997657)">&#10;	<g
   id="g3">&#10;		<path
   d="m 299.9,86.8 c 14.2,-6.3 30.3,-9.8 46.2,-9.8 9.2,0 18,1.1 26.3,3.2 3.3,0.8 6.5,-2 6,-5.4 l -1.2,-9.6 v 0 c -1,-16 -19.3,-28.9 -41.2,-28.9 -22.5,0 -44,13.5 -44,30.2 l 1,16 c 0.3,3.5 3.8,5.7 6.9,4.3 z"
   id="path1-0" />&#10;		<path
   d="m 487.3,361.9 -0.5,-2.9 c 0,-0.2 -0.1,-0.4 -0.1,-0.6 l -18.5,-94 C 465.8,242.7 450,223.8 427,212.1 l -8.8,-68.3 c 0,-29 -32.8,-52.7 -72.1,-52.7 -39.3,0 -76.7,23.5 -76.7,52.6 0,1.4 0.1,2.9 0.3,4.3 l 0.5,7.4 c -7.8,-2.8 -16.7,-4.4 -26.1,-4.4 -9.5,0 -18.4,1.6 -26.3,4.5 l 0.5,-7.5 c 0.2,-1.4 0.3,-2.8 0.3,-4.3 0,-29 -37.5,-52.6 -76.7,-52.6 -39.3,0 -72.1,23.7 -72.1,52.7 L 61,212.1 c -23,11.6 -38.8,30.6 -41.2,52.3 l -18.5,94 c 0,0.2 -0.1,0.4 -0.1,0.6 l -0.5,2.9 v 0 c -0.4,3 -0.7,6 -0.7,9.1 0,44.6 46.7,80.8 104.2,80.8 57.5,0 104.2,-36.2 104.2,-80.8 v 0 0 -37 c 10.3,4.8 22.6,7.5 35.7,7.5 13.1,0 25.3,-2.7 35.6,-7.4 v 36.9 0 0 c 0,44.6 46.7,80.8 104.2,80.8 57.4,0 104.2,-36.2 104.2,-80.8 -0.1,-3.1 -0.4,-6.1 -0.8,-9.1 z M 104.2,422.7 C 63.5,422.7 29.1,399 29.1,371 c 0,-28.1 34.4,-51.7 75.1,-51.7 40.7,0 75.1,23.7 75.1,51.7 0,28 -34.4,51.7 -75.1,51.7 z M 244.1,315.9 c -17.1,0 -31,-9.7 -31,-21.6 0,-11.9 13.9,-21.6 31,-21.6 17.1,0 31,9.7 31,21.6 0,11.9 -13.9,21.6 -31,21.6 z m 139.7,106.8 c -40.7,0 -75.1,-23.7 -75.1,-51.7 0,-28.1 34.4,-51.7 75.1,-51.7 40.7,0 75.1,23.7 75.1,51.7 0,28 -34.4,51.7 -75.1,51.7 z"
   id="path2-1" />&#10;		<path
   d="m 115.5,80.2 c 8.3,-2.1 17.2,-3.2 26.3,-3.2 15.9,0 32.1,3.5 46.2,9.8 3.1,1.4 6.6,-0.8 6.8,-4.2 l 1,-16 c 0,-16.7 -21.5,-30.2 -44,-30.2 -21.9,0 -40.1,12.9 -41.2,28.9 v 0 l -1.2,9.6 c -0.4,3.3 2.7,6.2 6.1,5.3 z"
   id="path3-0" />&#10;	</g>&#10;</g></svg>
