<?xml version="1.0" encoding="UTF-8" standalone="no"?>
<svg
   width="64"
   height="64"
   viewBox="0 0 64 64"
   version="1.1"
   id="svg6"
   sodipodi:docname="MenuId.Projection.Direction.Isometric.svg"
   xml:space="preserve"
   inkscape:version="1.3 (0e150ed6c4, 2023-07-21)"
   xmlns:inkscape="http://www.inkscape.org/namespaces/inkscape"
   xmlns:sodipodi="http://sodipodi.sourceforge.net/DTD/sodipodi-0.dtd"
   xmlns="http://www.w3.org/2000/svg"
   xmlns:svg="http://www.w3.org/2000/svg"><defs
   id="defs6" /><sodipodi:namedview
   id="namedview6"
   pagecolor="#ffffff"
   bordercolor="#000000"
   borderopacity="0.25"
   inkscape:showpageshadow="2"
   inkscape:pageopacity="0.0"
   inkscape:pagecheckerboard="0"
   inkscape:deskcolor="#d1d1d1"
   showgrid="true"
   inkscape:zoom="12.59375"
   inkscape:cx="23.305211"
   inkscape:cy="33.866005"
   inkscape:window-width="1920"
   inkscape:window-height="991"
   inkscape:window-x="-9"
   inkscape:window-y="-9"
   inkscape:window-maximized="1"
   inkscape:current-layer="svg6"><inkscape:grid
     id="grid7"
     units="px"
     originx="0"
     originy="0"
     spacingx="1"
     spacingy="1"
     empcolor="#0099e5"
     empopacity="0.30196078"
     color="#0099e5"
     opacity="0.14901961"
     empspacing="5"
     dotted="false"
     gridanglex="30"
     gridanglez="30"
     visible="true" /></sodipodi:namedview>&#10;	&#10;	&#10;	&#10;	&#10;&#10;  <desc
   id="hotspot"
   x="4"
   y="28" /><path
   style="fill:none;stroke:#222322;stroke-width:3;stroke-dasharray:none"
   d="m 37.799834,52.725685 c 0,-0.687604 0.05383,-1.160432 -0.106227,-2.072585 -0.151188,-0.861563 -0.404411,-1.944726 -0.80214,-2.763447 -0.822305,-1.692694 -1.978741,-3.255945 -3.754958,-4.006304 -0.661881,-0.279608 -1.570682,-0.345914 -2.2453,-0.113274 -1.42897,0.492773 -1.614928,1.648609 -1.89987,2.737863"
   id="path153" /><path
   style="fill:none;stroke:#222322;stroke-width:3;stroke-dasharray:none"
   d="m 46.26289,43.399052 c -0.546472,0.04314 -0.847723,0.09349 -1.381724,0.173379 -1.723959,0.257968 -3.185643,0.479997 -4.317885,0.690198"
   id="path152" /><path
   style="fill:none;stroke:#222322;stroke-width:3;stroke-dasharray:none"
   d="m 31.927521,37.526706 c 0.173517,0.393343 0.325255,0.825944 0.881697,1.272174 0.577718,0.463298 1.692072,1.024106 2.399896,1.458625 1.74127,1.068929 3.811125,2.001924 4.92452,3.662203 0.493226,0.735505 0.249346,1.133358 0.257609,1.897338 0.0094,0.882056 0.03794,2.436432 1.553913,2.569406 2.483043,0.217787 4.980229,-1.03923 4.589204,-3.778411 -0.08219,-0.575599 -0.288769,-1.224978 -0.05237,-1.690376 0.190622,-0.375273 0.429879,-0.465751 0.819859,-0.700989 0.744906,-0.449331 1.789558,-1.014009 2.588062,-1.448223 1.320949,-0.718311 3.579152,-2.041243 4.836032,-2.612848 0.629762,-0.286395 1.030177,-0.347622 1.554438,-0.456181"
   id="path150" /><path
   style="fill:none;stroke:#222322;stroke-width:3;stroke-dasharray:none"
   d="m 14.483244,39.599296 c 0,-0.476634 0.02542,-0.821105 -0.0069,-1.554439 -0.04477,-1.020701 -0.288042,-2.206833 -0.731238,-3.108877 -0.853952,-1.738076 -2.016145,-3.300683 -3.7525654,-4.05309 -1.488406,-0.644941 -3.12603,-0.04104 -3.942864,1.12359 -0.395313,0.563633 -0.618694,0.888802 -0.893168,1.202346"
   id="path146" /><path
   style="fill:none;stroke:#222322;stroke-width:3;stroke-dasharray:none"
   d="m 27.954958,26.472921 c 0.05557,0.43004 0.09512,0.830908 0.275986,1.381724 0.174594,0.53167 0.522172,1.172154 0.76016,1.727154 0.636267,1.483777 1.951314,4.287441 2.277559,5.699609 0.210491,0.91113 0.398077,1.196188 0.658742,1.554439"
   id="path144" /><path
   style="fill:none;stroke:#222322;stroke-width:3;stroke-dasharray:none"
   d="m 7.4019196,23.88219 c -0.464541,0.03673 -0.818923,0.04996 -1.381724,0.205379 -0.790976,0.218396 -1.610595,0.925205 -2.057795,1.694496 -0.734535,1.263583 -0.533505,2.833033 -0.532936,4.317886 2.62e-4,0.690483 0.01382,1.854372 0.442856,2.378706 0.268358,0.328026 0.687933,0.418485 1.057345,0.716183 0.637057,0.513382 0.50573,1.160642 0.585983,1.913858 0.12687,1.190634 1.048869,2.983221 1.918128,3.972455 1.074602,1.222913 2.8853504,2.857741 4.6314594,2.520766 0.750276,-0.144804 1.325493,-0.634136 1.751147,-1.143174 0.264904,-0.316802 0.506224,-0.69858 1.014967,-0.752564 0.400489,-0.0425 0.640229,0.07003 1.033625,0.226409 0.675293,0.268469 1.738615,0.935863 2.418016,1.32056 2.674633,1.514466 5.431798,3.13048 8.117625,4.587217 0.957568,0.51937 1.529549,0.370625 2.192931,0.838255 0.704543,0.496653 0.437448,1.261348 0.661806,2.247304 0.532337,2.339333 2.299,4.74627 4.572026,5.508774 1.17341,0.393625 2.305895,0.215051 3.166709,-0.703925 0.287158,-0.306562 0.582515,-0.750264 0.994053,-0.871566 0.834028,-0.245836 1.896147,0.243764 2.920571,0.193745 0.520666,-0.02542 0.839383,-0.13259 1.381723,-0.254126 1.424355,-0.319175 2.683445,-1.139214 3.972455,-1.840165 2.957128,-1.608053 5.869224,-3.304099 8.808486,-4.944779 1.43555,-0.801317 3.715565,-1.675078 4.714761,-2.992139 0.354713,-0.467556 0.58479,-1.393941 0.623293,-1.86775 0.04761,-0.585961 0.01603,-0.895318 0.01603,-1.209271"
   id="path143" /><path
   style="fill:none;stroke:#222322;stroke-width:3;stroke-dasharray:none"
   d="m 20.182861,23.018613 c -0.330094,1.014787 -1.554967,4.831035 -1.865081,5.868066 -0.151796,0.507637 -0.253933,0.640293 -0.38022,0.867835"
   id="path142" /><path
   style="fill:none;stroke:#222322;stroke-width:3;stroke-dasharray:none"
   d="m 12.928813,17.146288 0.744434,0.778422 4.264313,2.735193 1.378529,0.880097 1.256984,1.144642 1.855088,0.755228 4.145171,2.299411 1.209008,0.487492 2.2453,-0.664076 7.94491,-4.542835 3.28133,-1.794854 1.209271,-1.042427"
   id="path141" /><path
   style="fill:none;stroke:#222322;stroke-width:3;stroke-dasharray:none"
   d="m 49.371768,26.991068 c -0.36991,-1.763776 -1.905469,-3.374921 -3.350622,-5.181463 -0.627305,-0.784167 -1.284212,-1.648051 -1.93706,-2.415349 -0.542464,-0.637563 -0.997867,-0.765624 -1.549379,-1.297104 -0.361495,-0.348374 -0.525483,-0.776388 -0.809728,-1.06734 -0.41995,-0.429868 -1.269033,-0.903697 -1.85256,-1.239398 C 36.110694,13.626326 31.580288,9.5071739 27.091478,9.3963479 22.817194,9.2908399 18.024634,13.365567 14.48339,15.445785 c -0.845393,0.496597 -1.010847,0.876985 -1.619344,1.480613 -0.643247,0.638091 -1.189644,0.776051 -1.808178,1.602277 -0.842315,1.125148 -1.8527504,2.545328 -2.6840264,3.626361 -0.380347,0.494618 -0.768365,0.933047 -0.749095,1.5543 0.02017,0.650668 0.49312,1.011079 0.990712,1.321627 1.239019,0.773298 3.0172174,1.670998 4.3153544,2.4436 0.936029,0.557089 2.340272,1.385899 3.281593,1.783258 0.484781,0.204633 1.029135,0.260537 1.518324,0.548939 0.553239,0.326181 0.693655,0.729423 1.252587,1.114647 0.93331,0.643267 2.103831,1.225835 3.101414,1.795254 1.725363,0.984829 3.455458,1.917465 5.181462,2.944829 0.65851,0.391961 1.580404,0.979293 2.245301,1.241793 0.768575,0.303432 1.341316,0.563611 2.023271,0.260952 0.419613,-0.186228 0.628939,-0.452926 0.755629,-0.529617 0.453114,-0.274272 0.769788,-0.206816 1.884416,-0.811732 1.282157,-0.695828 2.512418,-1.457834 3.79974,-2.19586 2.663943,-1.527252 5.377518,-3.112293 8.117624,-4.603208 0.686477,-0.373524 1.606378,-0.890668 2.245301,-1.27524 0.508963,-0.306353 0.861679,-0.68088 1.554439,-0.614508 1.92127,0.184046 5.156953,2.812949 7.081332,3.967669 0.7247,0.434856 1.646163,0.930486 2.156544,1.604543 0.494776,0.653439 0.435884,1.269781 0.736177,1.884278 0.222596,0.455518 0.398406,0.714475 0.50295,1.036293 0.09899,0.304728 0.23072,1.656313 0.231356,2.072585 0.0015,0.984226 0.151906,1.596363 -0.54373,2.097768 -0.467543,0.336989 -0.708921,0.310603 -1.183424,0.464574 -0.658751,0.213753 -1.125928,0.483128 -1.701571,0.262804 -0.564793,-0.216157 -0.508109,-0.66226 -0.592242,-1.270708 -0.112003,-0.810098 -0.248296,-0.999185 -0.08876,-1.726491 0.107995,-0.492341 0.372551,-0.809363 0.678335,-1.109601 0.993948,-0.97593 1.820547,-1.336585 2.395098,-1.481807"
   id="path140" /><path
   style="fill:#ffff6b;fill-opacity:1;stroke:#000000;stroke-width:0.119107;stroke-linecap:round;stroke-linejoin:round;stroke-miterlimit:3;stroke-dasharray:none"
   d="m 42.928203,46.867918 c 1.232666,-0.127305 2.040128,-0.714832 2.105737,-1.532181 l 0.02109,-0.262704 -0.114972,0.02366 c -0.132273,0.02722 -2.969646,0.461617 -3.015189,0.461617 -0.04191,0 0.01093,0.978981 0.06268,1.16129 0.03236,0.114 0.06276,0.148964 0.129727,0.149229 0.0481,1.89e-4 0.176794,0.0076 0.285975,0.01657 0.109181,0.0089 0.345411,0.0011 0.524956,-0.01749 z"
   id="path1" /><path
   style="fill:#ffff6b;fill-opacity:1;stroke:#000000;stroke-width:0.119107;stroke-linecap:round;stroke-linejoin:round;stroke-miterlimit:3;stroke-dasharray:none"
   d="m 58.581907,38.764962 0.496278,-0.144982 -0.0097,-0.709494 c -0.0054,-0.390221 -0.0234,-0.788023 -0.04009,-0.884004 l -0.03035,-0.17451 -0.297377,0.239383 c -0.45065,0.362766 -0.703413,0.646737 -0.737528,0.828587 -0.027,0.143904 0.04076,0.790558 0.09727,0.928394 0.02187,0.05333 0.09192,0.04214 0.521539,-0.08337 z"
   id="path2" /><path
   style="fill:#c83737;fill-opacity:1;stroke:#000000;stroke-width:0.119107;stroke-linecap:round;stroke-linejoin:round;stroke-miterlimit:3;stroke-dasharray:none"
   d="m 41.23534,42.604787 c 0.0091,-0.0086 0.918723,-0.153813 2.021388,-0.322787 1.809556,-0.2773 2.010522,-0.315424 2.063125,-0.391387 0.128261,-0.18522 0.431163,-0.480293 0.656595,-0.639625 0.30691,-0.216918 1.244802,-0.757762 2.739454,-1.579731 0.655087,-0.360259 1.789578,-0.989022 2.521092,-1.397253 2.022872,-1.128889 3.100689,-1.651251 3.851116,-1.866435 0.207623,-0.05954 0.228126,-0.07765 0.416874,-0.368365 0.421287,-0.648873 1.718478,-1.766147 2.41191,-2.077387 0.136628,-0.06132 0.136364,-0.136856 -0.0011,-0.316269 -0.231425,-0.302037 -0.501566,-0.499019 -1.577059,-1.149965 -0.371216,-0.224679 -1.344913,-0.8593 -2.163772,-1.410268 -2.434131,-1.637802 -3.376906,-2.175417 -4.179638,-2.383426 l -0.233915,-0.06061 -0.363943,0.234858 c -0.489453,0.315853 -1.138706,0.688575 -2.746077,1.576465 -2.476621,1.368051 -6.622564,3.73296 -9.548387,5.446545 -1.943751,1.138408 -2.664516,1.530201 -3.173253,1.724913 -0.09229,0.03532 -0.08562,0.04402 0.158809,0.207099 0.140327,0.09363 0.532062,0.328167 0.870523,0.5212 0.338462,0.193033 0.847643,0.488618 1.131514,0.656856 0.283871,0.168237 0.891315,0.524654 1.349876,0.792037 1.028371,0.599635 1.71392,1.04951 2.249426,1.476129 0.466805,0.371889 1.019535,0.895712 1.224519,1.160479 0.121361,0.156755 0.256832,0.227221 0.320927,0.16693 z"
   id="path3" /><path
   style="fill:#c83737;fill-opacity:1;stroke:#000000;stroke-width:0.238213;stroke-linecap:round;stroke-linejoin:round;stroke-miterlimit:3;stroke-dasharray:none"
   d="m 41.529798,51.399671 c 1.436578,-0.351493 1.868935,-0.574205 9.687345,-4.99006 1.834243,-1.035984 3.745905,-2.088248 4.248138,-2.338364 1.31114,-0.652958 2.482079,-1.36407 2.825892,-1.716167 l 0.297391,-0.304555 -0.671143,0.04736 c -1.486252,0.104887 -2.484803,-0.595646 -2.774498,-1.946445 -0.0483,-0.225229 -0.104152,-0.409507 -0.124109,-0.409507 -0.07135,0 -0.741562,0.360739 -3.285542,1.768433 -3.80028,2.102859 -3.829709,2.120598 -3.767595,2.271046 0.107534,0.260461 0.135357,1.953019 0.03967,2.413132 -0.457607,2.200364 -2.655979,3.708327 -5.419022,3.717152 -1.418455,0.0045 -2.124018,-0.234345 -2.773558,-0.939012 -0.679736,-0.737427 -0.941366,-1.654525 -0.942417,-3.303482 l -6e-4,-0.941217 -0.537354,-0.537354 c -0.602635,-0.602635 -1.25412,-1.045089 -3.27406,-2.223567 -2.550344,-1.487928 -2.83572,-1.662518 -3.240623,-1.982575 -0.221422,-0.175024 -0.538696,-0.514237 -0.705052,-0.753805 -0.27593,-0.397368 -0.3291,-0.435843 -0.606081,-0.438592 -0.706517,-0.007 -1.987551,-0.575934 -4.023927,-1.787076 C 25.80573,36.602414 24.01913,35.583413 22.51243,34.74057 18.444691,32.465091 18.175365,32.299886 17.512246,31.673461 16.975678,31.166584 16.846154,31.086762 16.248285,30.894518 15.38743,30.617711 14.580554,30.210697 12.150147,28.827289 11.058336,28.20582 9.6002896,27.37909 8.9100456,26.990111 c -0.690245,-0.38898 -1.46954,-0.880303 -1.731767,-1.09183 -0.541794,-0.437041 -0.675582,-0.442911 -1.20591,-0.0529 -0.843987,0.620675 -1.009251,1.181296 -1.00581,3.411997 l 0.0025,1.63096 0.155354,-0.207982 c 0.412535,-0.552266 1.59994,-1.251836 2.474926,-1.458117 0.592055,-0.139579 1.555358,-0.155033 2.144913,-0.03441 0.5780524,0.11827 1.7442054,0.692711 2.3661914,1.165576 1.427614,1.085342 2.868852,3.174829 3.436081,4.981583 0.239965,0.764345 0.454738,1.972955 0.454738,2.558987 0,0.418436 0.0058,0.429182 0.297767,0.549405 0.627331,0.258336 0.965892,0.444139 4.903225,2.6909 4.596472,2.622885 6.185879,3.499133 6.471464,3.567745 0.179648,0.04316 0.223865,-0.0016 0.465315,-0.471229 0.688109,-1.338347 2.029024,-2.106726 3.676492,-2.106726 0.921292,0 1.393564,0.107439 2.250253,0.511923 1.697279,0.801365 3.059537,2.268197 4.13354,4.450856 0.509438,1.035312 0.837487,2.204142 1.105531,3.938977 0.04417,0.285868 0.04521,0.28653 0.594062,0.377171 0.643647,0.106295 1.187386,0.105187 1.630887,-0.0033 z"
   id="path4" /><path
   style="fill:#c83737;fill-opacity:1;stroke:#000000;stroke-width:0.238213;stroke-linecap:round;stroke-linejoin:round;stroke-miterlimit:3;stroke-dasharray:none"
   d="m 28.705977,24.352689 c 0.537733,-0.16624 1.482024,-0.669782 4.645161,-2.477024 2.183623,-1.247603 4.655243,-2.641337 5.49249,-3.097187 0.837246,-0.455851 1.507227,-0.853154 1.488846,-0.882895 -0.01838,-0.02974 -0.471144,-0.312685 -1.006138,-0.628762 -0.534994,-0.316076 -2.151873,-1.35243 -3.593064,-2.303007 -2.970333,-1.959165 -4.202662,-2.686483 -5.428576,-3.203937 -2.264967,-0.956035 -3.80576,-1.051828 -5.774892,-0.359032 -1.653684,0.581812 -3.04681,1.354605 -6.424324,3.563693 -1.179156,0.771236 -2.349379,1.524594 -2.600496,1.67413 -0.251117,0.149536 -0.454779,0.290335 -0.452583,0.312886 0.0022,0.02255 1.131311,0.755642 2.509145,1.629091 1.585356,1.005003 2.75735,1.807528 3.192037,2.185751 0.576886,0.501951 0.820403,0.652321 1.520632,0.938984 0.458561,0.187727 1.704289,0.824529 2.768284,1.415114 2.073262,1.150793 2.681075,1.457354 2.869433,1.447245 0.06551,-0.0035 0.422829,-0.100288 0.794045,-0.21505 z"
   id="path5" /><path
   style="fill:#888888;fill-opacity:1;stroke:#000000;stroke-width:0.238213;stroke-linecap:round;stroke-linejoin:round;stroke-miterlimit:3;stroke-dasharray:none"
   d="m 35.495058,52.937215 c 0.131018,-0.08443 0.35974,-0.281283 0.508271,-0.437448 l 0.270058,-0.283936 -0.04849,-0.698486 c -0.06284,-0.905208 -0.379377,-2.179674 -0.729641,-2.937774 -0.998229,-2.160537 -2.83656,-3.704758 -4.002985,-3.362556 -0.409945,0.120269 -0.62874,0.378022 -0.808203,0.952108 -0.14917,0.477184 -0.155061,0.58375 -0.07048,1.275046 0.134933,1.10286 0.214403,1.466421 0.448921,2.053746 0.560581,1.403917 1.652547,2.685944 2.748229,3.226572 0.757404,0.373716 1.323552,0.44522 1.684323,0.212728 z"
   id="path6" /><path
   style="fill:#888888;fill-opacity:1;stroke:#000000;stroke-width:0.238213;stroke-linecap:round;stroke-linejoin:round;stroke-miterlimit:3;stroke-dasharray:none"
   d="m 12.010425,39.973222 c 0.185189,-0.09225 0.484731,-0.344522 0.665649,-0.560609 l 0.328942,-0.392885 -0.08636,-0.968921 c -0.109081,-1.223844 -0.243304,-1.739475 -0.689703,-2.649563 -0.912568,-1.860481 -2.3811684,-3.214076 -3.4871524,-3.214076 -0.500098,0 -0.923853,0.191471 -1.283772,0.580068 -0.348417,0.376176 -0.605538,0.768395 -0.556131,0.848337 0.02321,0.03755 0.07556,0.422919 0.116348,0.856379 0.08859,0.941478 0.376235,1.752154 0.95597,2.694192 0.693166,1.126356 1.901828,2.280765 2.8260524,2.699197 0.616608,0.279162 0.828404,0.298043 1.210156,0.107881 z"
   id="path7" /></svg>
