<?xml version="1.0" encoding="UTF-8" standalone="no"?>
<!-- Created with Inkscape (http://www.inkscape.org/) -->

<svg
   width="63.999996"
   height="60"
   viewBox="0 0 16.933332 15.875"
   version="1.1"
   id="svg1"
   xml:space="preserve"
   xmlns="http://www.w3.org/2000/svg"
   xmlns:svg="http://www.w3.org/2000/svg"><defs
     id="defs1" /><g
     id="layer6"
     transform="translate(0,-0.52916663)"><path
       id="path26"
       style="fill:#000000;fill-opacity:1;stroke:#008000;stroke-width:0;stroke-linecap:butt;stroke-linejoin:bevel;stroke-miterlimit:3.5;stroke-dasharray:none;stroke-opacity:1"
       d="M 13.229166,0.52916666 A 3.7041664,3.7041667 0 0 0 9.5249998,4.2333333 3.7041664,3.7041667 0 0 0 13.229166,7.9374998 3.7041664,3.7041667 0 0 0 16.933333,4.2333333 3.7041664,3.7041667 0 0 0 13.229166,0.52916666 Z m 0,1.05833334 A 2.6458333,2.6458333 0 0 1 15.875,4.2333333 2.6458333,2.6458333 0 0 1 13.229166,6.8791665 2.6458333,2.6458333 0 0 1 10.583333,4.2333333 2.6458333,2.6458333 0 0 1 13.229166,1.5875 Z" /><path
       id="path26-9"
       style="fill:#000000;fill-opacity:1;stroke:#008000;stroke-width:0;stroke-linecap:butt;stroke-linejoin:bevel;stroke-miterlimit:3.5;stroke-dasharray:none;stroke-opacity:1"
       d="M 3.7041662,8.9958332 A 3.7041664,3.7041667 0 0 0 0,12.7 3.7041664,3.7041667 0 0 0 3.7041662,16.404166 3.7041664,3.7041667 0 0 0 7.4083332,12.7 3.7041664,3.7041667 0 0 0 3.7041662,8.9958332 Z m 0,1.0583328 A 2.6458333,2.6458333 0 0 1 6.3500002,12.7 2.6458333,2.6458333 0 0 1 3.7041662,15.345833 2.6458333,2.6458333 0 0 1 1.0583332,12.7 2.6458333,2.6458333 0 0 1 3.7041662,10.054166 Z" /></g><g
     id="layer7"
     transform="translate(0,-0.52916663)"><g
       id="layer2-4"
       transform="translate(1.2845631,-5.1601849)"><path
         style="fill:#000000;fill-opacity:0;stroke:#ff0000;stroke-width:1.02187;stroke-linecap:round;stroke-dasharray:none;stroke-opacity:1"
         d="M 5.5803321,18.129645 C 5.9396779,12.667359 8.0293451,11.430086 8.9922126,8.1906638"
         id="path1-2" /></g></g></svg>
