<?xml version="1.0" encoding="UTF-8" standalone="no"?>
<svg
   width="64"
   height="64"
   viewBox="0 0 64 64"
   version="1.1"
   id="svg6"
   sodipodi:docname="MenuId.Object.Snap.svg"
   xml:space="preserve"
   inkscape:version="1.3 (0e150ed6c4, 2023-07-21)"
   xmlns:inkscape="http://www.inkscape.org/namespaces/inkscape"
   xmlns:sodipodi="http://sodipodi.sourceforge.net/DTD/sodipodi-0.dtd"
   xmlns="http://www.w3.org/2000/svg"
   xmlns:svg="http://www.w3.org/2000/svg"><defs
   id="defs6" /><sodipodi:namedview
   id="namedview6"
   pagecolor="#ffffff"
   bordercolor="#000000"
   borderopacity="0.25"
   inkscape:showpageshadow="2"
   inkscape:pageopacity="0.0"
   inkscape:pagecheckerboard="0"
   inkscape:deskcolor="#d1d1d1"
   showgrid="true"
   inkscape:zoom="8.905126"
   inkscape:cx="31.161827"
   inkscape:cy="37.225751"
   inkscape:window-width="1920"
   inkscape:window-height="991"
   inkscape:window-x="-9"
   inkscape:window-y="-9"
   inkscape:window-maximized="1"
   inkscape:current-layer="svg6"><inkscape:grid
     id="grid7"
     units="px"
     originx="0"
     originy="0"
     spacingx="1"
     spacingy="1"
     empcolor="#0099e5"
     empopacity="0.30196078"
     color="#0099e5"
     opacity="0.14901961"
     empspacing="5"
     dotted="false"
     gridanglex="30"
     gridanglez="30"
     visible="true" /></sodipodi:namedview>&#10;	&#10;	&#10;	&#10;	&#10;&#10;  <desc
   id="hotspot"
   x="4"
   y="28" /><path
   d="M 9.9999988,-1.2279053e-7 H 19.999999 c 3.681899,0 6.666666,0 6.666666,0 v 0 m -53.33333,0 v 0 c 0,0 2.984667,0 6.666667,0 H 3.3333338 m 23.3333312,0 v 0 c 0,0 -2.984767,0 -6.666666,0 H 3.3333338 m 23.3333312,0 H 3.3333338 v 0 m -29.9999988,0 h 21.6666648 m -21.6666648,0 h 13.333332 m -13.333332,0 v 0"
   stroke="#000000"
   stroke-width="0"
   stroke-linecap="round"
   stroke-linejoin="round"
   id="path1" /><polygon
   class="st0"
   points="14,10 3,29 18,29 29,10 "
   id="polygon1"
   style="fill:none;stroke:#000000;stroke-width:3.11110293;stroke-linecap:round;stroke-linejoin:round;stroke-miterlimit:10;stroke-dasharray:none"
   transform="matrix(1.9285765,0,0,1.9285765,1.1428468,1.142776)" /><polyline
   class="st0"
   points="3,6 29,6 25,3 "
   id="polyline1"
   style="fill:none;stroke:#000000;stroke-width:3.11110293;stroke-linecap:round;stroke-linejoin:round;stroke-miterlimit:10;stroke-dasharray:none"
   transform="matrix(1.9285765,0,0,1.9285765,1.1428468,1.142776)" /></svg>
