<?xml version="1.0" encoding="UTF-8" standalone="no"?>
<svg
   width="64"
   height="64"
   viewBox="0 0 64 64"
   version="1.1"
   id="svg6"
   sodipodi:docname="MenuId.Projection.Direction.FromFront.svg"
   xml:space="preserve"
   inkscape:version="1.3 (0e150ed6c4, 2023-07-21)"
   xmlns:inkscape="http://www.inkscape.org/namespaces/inkscape"
   xmlns:sodipodi="http://sodipodi.sourceforge.net/DTD/sodipodi-0.dtd"
   xmlns="http://www.w3.org/2000/svg"
   xmlns:svg="http://www.w3.org/2000/svg"><defs
   id="defs6" /><sodipodi:namedview
   id="namedview6"
   pagecolor="#ffffff"
   bordercolor="#000000"
   borderopacity="0.25"
   inkscape:showpageshadow="2"
   inkscape:pageopacity="0.0"
   inkscape:pagecheckerboard="0"
   inkscape:deskcolor="#d1d1d1"
   showgrid="true"
   inkscape:zoom="8.905126"
   inkscape:cx="42.840494"
   inkscape:cy="32.060186"
   inkscape:window-width="1920"
   inkscape:window-height="991"
   inkscape:window-x="-9"
   inkscape:window-y="-9"
   inkscape:window-maximized="1"
   inkscape:current-layer="svg6"><inkscape:grid
     id="grid7"
     units="px"
     originx="0"
     originy="0"
     spacingx="1"
     spacingy="1"
     empcolor="#0099e5"
     empopacity="0.30196078"
     color="#0099e5"
     opacity="0.14901961"
     empspacing="5"
     dotted="false"
     gridanglex="30"
     gridanglez="30"
     visible="true" /></sodipodi:namedview>&#10;	&#10;	&#10;	&#10;	&#10;&#10;  <desc
   id="hotspot"
   x="4"
   y="28" /><path
   style="fill:none;stroke:#000000;stroke-width:3.04426;stroke-opacity:1"
   d="m 48.704517,45.853084 c 1.202282,0 1.85474,0 3.92424,0 0.741969,0 1.411746,0.02009 2.140496,-0.07571 0.845434,-0.111055 1.290157,-0.0786 2.140496,-0.281046"
   id="path211" /><path
   style="fill:none;stroke:#000000;stroke-width:3.04426;stroke-opacity:1"
   d="m 40.499149,34.691918 c 0.259614,-0.02953 0.816406,-0.122684 1.058407,0.209628 0.374703,0.514547 0.04694,0.96816 0.01187,1.675975 -0.03044,0.614338 0.0022,1.225573 -0.457361,1.630694 -0.402132,0.354529 -0.894203,0.317337 -1.326387,0.328814 -1.022643,0.02709 -2.653037,0.0026 -3.745865,0.0026 h -8.38361 c -1.398022,0 -2.914377,0.274927 -4.092156,-0.07735 -0.835119,-0.249781 -0.832039,-1.091142 -0.971012,-1.884768 -0.109533,-0.625413 -0.289235,-1.038099 0.07364,-1.497743 0.297637,-0.377019 0.951036,-0.283847 1.243668,-0.285856 0.570096,-0.004 1.643575,-1.43e-4 2.318868,-1.43e-4 4.285688,0 10.608294,0.313017 14.269836,-0.101861"
   id="path205" /><path
   style="fill:none;stroke:#000000;stroke-width:3.04426;stroke-opacity:1"
   d="m 48.347766,33.639438 c 1.224983,-0.277241 3.209993,-0.488649 4.243008,0.237148 0.66417,0.466646 0.908971,1.261797 0.914992,1.987445 0.0088,1.048821 -0.556214,2.05476 -1.590641,2.380807 -1.379455,0.434799 -4.353009,0.76407 -5.475391,-0.168896 -0.494939,-0.411404 -0.580696,-1.090706 -0.56623,-1.676803 0.03757,-1.520757 0.914459,-2.406673 2.474262,-2.75971"
   id="path204" /><path
   style="fill:none;stroke:#000000;stroke-width:3.04426;stroke-opacity:1"
   d="m 11.962097,33.647353 c 1.496735,-0.443235 4.062907,-0.352065 5.338714,0.68611 0.694155,0.564865 0.896415,1.236679 0.896415,2.065765 0,0.666464 -0.08984,1.393747 -0.73208,1.781406 -1.943118,1.172847 -6.441816,0.341615 -6.700061,-1.959782 -0.110172,-0.981844 0.115073,-2.25309 1.197012,-2.573499"
   id="path203" /><path
   style="fill:none;stroke:#000000;stroke-width:3;stroke-opacity:1;stroke-dasharray:none"
   d="m 8.7486125,27.837233 c -0.0467,0.534776 -0.06518,0.934333 -0.403822,1.605373 -0.503541,0.997835 -1.592199,2.122074 -1.831643,3.389117 -0.193554,1.024162 -0.08341,2.115271 -0.08341,3.210742 0,2.425401 -0.310119,6.236952 0.311881,8.383336 0.214529,0.740324 0.396527,0.953398 0.579992,1.248895"
   id="path201" /><path
   style="fill:none;stroke:#000000;stroke-width:3.04426;stroke-opacity:1"
   d="m 53.163896,27.302122 c -0.479008,0.255627 -1.25556,0.356748 -2.853994,0.356748 -0.597622,0 -1.029341,0 -1.605373,0"
   id="path200" /><path
   style="fill:none;stroke:#000000;stroke-width:3.04426;stroke-opacity:1"
   d="m 11.067471,24.269753 c -0.109258,1.384362 -0.178363,1.644509 -0.178363,3.032369"
   id="path198" /><path
   style="fill:none;stroke:#000000;stroke-width:3;stroke-opacity:1;stroke-dasharray:none"
   d="m 52.985508,23.73463 c 0.292828,-0.123567 0.527013,-0.257149 1.248896,-0.347256 1.422211,-0.177511 4.707504,-0.734315 5.808735,0.403955 0.434066,0.448657 0.448316,1.017684 0.431213,1.727046 -0.01431,0.590355 -0.05324,1.220294 -0.499889,1.67873 -0.630901,0.647532 -1.744334,0.461701 -2.707964,0.461765 -0.95155,6.7e-5 -1.463981,0 -1.96212,0"
   id="path197" /><path
   style="fill:none;stroke:#000000;stroke-width:3;stroke-opacity:1;stroke-dasharray:none"
   d="m 15.883586,27.65887 c 0.576811,0 1.007549,0 1.605372,0 2.390201,0 5.724868,0 8.205231,0 h 14.805094 c 1.840541,0 4.289804,6.88e-4 6.064739,0 0.638704,-2.5e-4 1.399991,0.208836 1.762827,-0.310782 0.178363,-0.255444 -0.004,-1.616859 -0.164481,-2.186461 -0.571481,-2.028229 -1.044221,-6.598109 -3.044069,-7.753384 -0.783872,-0.452831 -1.303235,-0.447439 -2.121773,-0.451708 -1.312621,-0.0067 -2.775525,-1.43e-4 -4.102616,-1.43e-4 H 24.802312 c -1.899344,0 -4.238392,-0.459838 -5.878652,0.5504 -1.011921,0.623245 -1.189545,1.804996 -1.486594,2.838721 -0.513257,1.786119 -1.151154,3.597734 -1.571515,5.351237 -0.155196,0.64735 0.02983,1.349219 -0.573797,1.751813 -0.593384,0.39576 -1.250004,0.210359 -2.262166,0.210298 -1.488131,-9.7e-5 -2.261644,0.0037 -3.9242435,0.07224 -0.728421,0.03014 -0.950464,-0.06402 -1.605369,-0.07157 -1.148304,-0.01309 -3.304234,0.423039 -3.770368,-1.250138 -0.313517,-1.125356 -0.369443,-2.224152 0.585362,-2.796467 0.905945,-0.543026 2.982188,-0.492555 4.076877,-0.383028 0.452358,0.04527 1.224063,0.202138 1.604547,0.35124 0.5766075,0.225945 0.8230685,0.48857 1.0710745,0.688588 0.380158,-0.407505 0.731366,-0.734565 0.984776,-1.426997 0.239248,-0.653707 0.578199,-1.943307 0.803374,-2.675619 0.96244,-3.130026 1.54762,-6.706326 5.16846,-7.708369 0.569724,-0.157662 1.010643,-0.139153 1.605372,-0.140127 1.766795,-0.0028 3.742976,0 5.529613,0 h 14.626718 c 1.669899,0 3.522085,-0.0079 5.172865,1.4e-4 1.115719,0.0055 1.796899,0.108619 2.853994,0.751485 2.822858,1.716692 3.355716,6.216513 4.20543,9.058979 0.259401,0.867803 0.467546,1.051773 0.796491,1.783748 0.294167,0.654598 0.305732,0.958479 0.342296,1.783744 0.02557,0.576331 -0.06073,0.784896 0.06372,1.238159 0.105423,0.383881 0.305223,0.550192 0.667113,0.675101 0.400247,0.138149 0.659161,0.08761 0.983266,0.359646 0.51461,0.431923 0.47225,0.959514 0.73373,1.472962 0.401197,0.787791 1.503256,2.042041 1.786497,3.032367 0.192915,0.674501 0.237026,1.245367 0.334589,1.962123 0.07778,0.571465 0.07498,0.896608 0.07583,1.426997 6.15e-4,0.382846 0,0.687412 0,1.070246 0,1.598861 0.06895,3.084028 -0.007,4.816114 -0.0561,1.279259 -0.619482,2.41198 -0.717346,3.745868 -0.06186,0.843273 0.02831,1.32331 0.0082,2.140496 -0.02192,0.890196 -0.05641,1.556707 -0.380423,2.318731 -0.576299,1.355326 -1.774998,1.544511 -3.006082,1.598489 -1.342552,0.05888 -3.008755,0.296968 -4.092847,-0.456672 -1.214224,-0.844101 -1.077939,-2.627964 -1.080018,-3.638924 -8.55e-4,-0.416333 0.149321,-1.220815 -0.413453,-1.497739 -0.535294,-0.263389 -0.992919,-0.107615 -1.727042,-0.107615 -0.847659,0 -1.660526,0 -2.497244,0 -1.763704,0 -3.56801,0 -5.35124,0 -2.562692,0 -5.335328,0 -7.848484,0 -0.398442,0 -0.675612,0 -1.070246,0 -0.598562,0 -1.138416,0 -1.783748,0 -2.225457,0 -4.544179,0 -6.778234,0 -1.070584,0 -2.75332,-0.0012 -3.745868,0 -0.578105,7.07e-4 -1.129555,0.03349 -1.783748,0.02466 -0.570625,-0.0076 -0.863108,-0.02405 -1.426997,-0.02466 -0.672897,-8.7e-4 -1.160475,-0.02283 -1.783745,-0.04542 -1.079025,-0.039 -2.295004,-0.104022 -3.3891175,-0.130355 -0.400646,-0.0097 -1.161476,-0.08561 -1.497742,0.180707 -0.523196,0.414376 -0.286283,0.922837 -0.286009,1.778792 2.04e-4,0.637824 -0.02405,1.061777 0.106671,1.605372 0.159398,0.662742 0.497505,1.504273 1.149802,1.885454 0.573521,0.335148 1.146709,0.374081 1.7759005,0.417456 1.294304,0.08923 2.748958,0.162564 3.923552,-0.247072 0.976054,-0.340385 1.314061,-1.163407 1.470905,-2.055847 0.186674,-1.062179 0.135165,-2.564299 0.135165,-3.210745"
   id="path195" /><path
   style="fill:#ffff6b;fill-opacity:1;stroke:#000000;stroke-width:0.336885;stroke-linecap:round;stroke-linejoin:round;stroke-miterlimit:3;stroke-dasharray:none;stroke-opacity:1"
   d="m 13.948989,36.990877 c -1.291774,-0.304177 -1.972434,-1.081656 -1.505731,-1.719911 0.220399,-0.301413 1.808543,-0.3782 2.772697,-0.134059 1.054399,0.266992 1.283832,0.468029 1.324887,1.160905 0.03236,0.546184 0.02135,0.569537 -0.325568,0.690474 -0.417766,0.145633 -1.652818,0.147046 -2.266285,0.0026 z"
   id="path17" /><path
   style="fill:#ffff6b;fill-opacity:1;stroke:#000000;stroke-width:0.336885;stroke-linecap:round;stroke-linejoin:round;stroke-miterlimit:3;stroke-dasharray:none;stroke-opacity:1"
   d="m 48.174501,37.058266 c -0.06176,-0.0206 -0.257546,-0.06969 -0.435074,-0.109075 -0.310601,-0.06891 -0.32055,-0.09139 -0.263711,-0.595666 0.04247,-0.376802 0.140053,-0.593709 0.347288,-0.771966 0.409253,-0.352025 1.790748,-0.635799 2.83784,-0.582923 0.727109,0.03672 0.881594,0.08108 1.063132,0.305266 0.284605,0.351472 0.268136,0.83575 -0.04026,1.18392 -0.203298,0.229516 -0.447517,0.318501 -1.249953,0.455441 -0.908622,0.155061 -1.97626,0.209407 -2.259262,0.115003 z"
   id="path18" /><path
   style="fill:#c83737;fill-opacity:1;stroke:#c83737;stroke-width:0.336885;stroke-linecap:round;stroke-linejoin:round;stroke-miterlimit:3;stroke-dasharray:none;stroke-opacity:1"
   d="m 48.300053,44.332301 c -0.02211,-0.02211 -7.765641,-0.03759 -17.207845,-0.03441 -10.666159,0.0036 -18.23034,-0.04044 -19.973771,-0.116293 C 9.5750677,44.114453 8.2989224,44.046124 8.2825591,44.029761 8.2661958,44.013397 8.1898366,43.701219 8.1128719,43.33603 8.0105107,42.850339 7.9817527,41.392023 8.0057713,37.90495 8.0432174,32.468432 7.9604989,32.961992 9.1328585,31.179924 9.5123068,30.603137 9.8819792,29.933578 9.9543527,29.692017 l 0.1315883,-0.439202 h 2.42538 c 1.333959,0 2.601882,-0.05062 2.817606,-0.112489 0.261935,-0.07512 0.404682,-0.07512 0.429722,0 0.05089,0.152675 32.231671,0.155608 32.633131,0.003 0.202951,-0.07716 0.288048,-0.07235 0.288048,0.01628 0,0.09136 0.545574,0.102288 1.993234,0.03992 3.231805,-0.13924 3.198725,-0.144238 3.341276,0.504796 0.0391,0.178014 0.455611,0.917434 0.925583,1.643157 0.535204,0.826453 0.916418,1.552306 1.020217,1.94255 0.12605,0.473898 0.177156,1.574229 0.21348,4.596264 0.04558,3.791948 0.0364,4.023301 -0.201195,5.071209 -0.227287,1.002448 -0.274479,1.104105 -0.542295,1.168163 -0.16134,0.03859 -1.405064,0.0945 -2.763832,0.124245 -1.358768,0.02974 -2.887987,0.0695 -3.398264,0.08835 -0.510277,0.01885 -0.945868,0.01618 -0.967979,-0.0059 z m -31.45837,-4.247086 c 1.834549,-0.477839 2.628045,-1.292776 2.861276,-2.93859 0.480481,-3.390556 -2.011089,-5.482717 -6.283722,-5.276416 -1.993501,0.09625 -2.908551,0.482609 -3.5940155,1.517473 -0.4730331,0.714149 -0.6110796,1.26526 -0.6097833,2.434383 8.954e-4,0.807686 0.052134,1.123413 0.2551362,1.572128 0.5779696,1.277539 2.0406426,2.291267 3.8925156,2.697767 0.938563,0.206021 2.674652,0.202656 3.478593,-0.0067 z m 21.001689,0.02931 3.144257,-0.03013 0.582585,-0.304734 c 0.613346,-0.320824 1.044278,-0.792911 1.311728,-1.437 0.204845,-0.493319 0.452012,-2.816217 0.360532,-3.388303 -0.117089,-0.73223 -0.56231,-1.305044 -1.264058,-1.626315 L 41.355921,33.04305 39.5435,33.186801 c -1.365728,0.108321 -3.586824,0.125058 -9.011895,0.06791 -4.944558,-0.05209 -7.374124,-0.03839 -7.757095,0.04375 -0.94104,0.201817 -1.678174,0.992099 -1.871999,2.006971 -0.08134,0.425913 0.17786,2.12947 0.452961,2.976987 0.211451,0.651431 0.942644,1.437081 1.512503,1.625152 0.912978,0.301309 2.639776,0.325173 14.975397,0.206954 z m 13.842493,-0.190726 c 1.158709,-0.280994 1.638984,-0.526647 2.238049,-1.144724 1.672512,-1.725593 1.46407,-4.850128 -0.412255,-6.179668 -0.821457,-0.582075 -1.383288,-0.707894 -3.147408,-0.704849 -1.213492,0.0021 -1.828516,0.05541 -2.41434,0.20929 -1.623883,0.426554 -2.700677,1.250229 -3.293695,2.519456 -0.262477,0.561774 -0.297878,0.777006 -0.29875,1.816386 -8.36e-4,0.994882 0.03942,1.266817 0.257693,1.74057 0.470074,1.020295 1.275302,1.603339 2.649955,1.918761 0.928877,0.213135 3.188672,0.123566 4.420751,-0.175222 z"
   id="path19" /><path
   style="fill:#888888;fill-opacity:1;stroke:#888888;stroke-width:0.336885;stroke-linecap:round;stroke-linejoin:round;stroke-miterlimit:3;stroke-dasharray:none;stroke-opacity:1"
   d="m 50.703349,49.891471 c -0.420444,-0.225326 -0.560208,-0.61739 -0.562032,-1.576602 l -0.0017,-0.870285 1.937087,-7.98e-4 c 1.065397,-4.39e-4 2.286187,-0.03376 2.712866,-0.07405 l 0.775779,-0.07325 -0.07288,0.784182 c -0.16188,1.74177 -0.312935,1.846212 -2.766441,1.912759 -1.311329,0.03557 -1.81332,0.01026 -2.022721,-0.10196 z"
   id="path20" /><path
   style="fill:#888888;fill-opacity:1;stroke:#888888;stroke-width:0.336885;stroke-linecap:round;stroke-linejoin:round;stroke-miterlimit:3;stroke-dasharray:none;stroke-opacity:1"
   d="M 9.7878024,49.915899 C 9.4839248,49.861456 9.1778798,49.728472 9.0933636,49.61415 8.8698653,49.311831 8.7028527,48.552289 8.7028527,47.838179 v -0.629901 l 0.9264327,0.0611 c 0.5095376,0.0336 1.7291566,0.09241 2.7102636,0.130687 l 1.783832,0.06959 -0.05974,0.871535 c -0.06567,0.958118 -0.185759,1.274313 -0.562759,1.481757 -0.304113,0.167338 -2.930876,0.233097 -3.7130826,0.09295 z"
   id="path21" /><path
   style="fill:#888888;fill-opacity:1;stroke:#888888;stroke-width:0.336885;stroke-linecap:round;stroke-linejoin:round;stroke-miterlimit:3;stroke-dasharray:none;stroke-opacity:1"
   d="m 54.88412,26.258777 c -0.08977,-0.03622 -0.140369,-0.292677 -0.140369,-0.71147 v -0.654831 l 0.870285,-0.09334 c 1.098384,-0.117808 2.571214,-0.120999 2.981559,-0.0065 0.299392,0.08357 0.312925,0.116048 0.280737,0.673769 l -0.03382,0.585967 -1.738018,0.03114 c -0.95591,0.01713 -1.787173,0.08029 -1.847251,0.140368 -0.117823,0.117823 -0.158181,0.121594 -0.373125,0.03486 z"
   id="path22" /><path
   style="fill:#888888;fill-opacity:1;stroke:#888888;stroke-width:0.336885;stroke-linecap:round;stroke-linejoin:round;stroke-miterlimit:3;stroke-dasharray:none;stroke-opacity:1"
   d="M 5.3444794,26.005112 C 5.2517838,25.946429 5.1821826,25.704784 5.1760371,25.420305 5.1663025,24.96968 5.1893125,24.930291 5.5024488,24.861548 6.07042,24.736861 8.0673725,24.75368 8.7402715,24.888817 l 0.6363505,0.127798 v 0.545971 0.545972 l -1.9370866,-0.0017 c -1.0653976,-9.46e-4 -2.0081728,-0.04672 -2.095056,-0.101727 z"
   id="path23" /></svg>
