<?xml version="1.0" encoding="UTF-8" standalone="no"?>
<svg
   width="64"
   height="64"
   viewBox="0 0 64 64"
   version="1.1"
   id="svg6"
   sodipodi:docname="MenuId.Object.Delete.svg"
   xml:space="preserve"
   inkscape:version="1.3 (0e150ed6c4, 2023-07-21)"
   xmlns:inkscape="http://www.inkscape.org/namespaces/inkscape"
   xmlns:sodipodi="http://sodipodi.sourceforge.net/DTD/sodipodi-0.dtd"
   xmlns="http://www.w3.org/2000/svg"
   xmlns:svg="http://www.w3.org/2000/svg"><defs
   id="defs6" /><sodipodi:namedview
   id="namedview6"
   pagecolor="#ffffff"
   bordercolor="#000000"
   borderopacity="0.25"
   inkscape:showpageshadow="2"
   inkscape:pageopacity="0.0"
   inkscape:pagecheckerboard="0"
   inkscape:deskcolor="#d1d1d1"
   showgrid="true"
   inkscape:zoom="8.905126"
   inkscape:cx="31.161827"
   inkscape:cy="37.225751"
   inkscape:window-width="1920"
   inkscape:window-height="991"
   inkscape:window-x="-9"
   inkscape:window-y="-9"
   inkscape:window-maximized="1"
   inkscape:current-layer="svg6"><inkscape:grid
     id="grid7"
     units="px"
     originx="0"
     originy="0"
     spacingx="1"
     spacingy="1"
     empcolor="#0099e5"
     empopacity="0.30196078"
     color="#0099e5"
     opacity="0.14901961"
     empspacing="5"
     dotted="false"
     gridanglex="30"
     gridanglez="30"
     visible="true" /></sodipodi:namedview>&#10;	&#10;	&#10;	&#10;	&#10;&#10;  <desc
   id="hotspot"
   x="4"
   y="28" /><path
   d="m 41.72,51.301142 c 0.771429,0 1.419429,-0.555428 1.419429,-1.234285 V 26.029142 h -2.808 v 24.037715 c -0.03086,0.678857 0.586285,1.234285 1.388571,1.234285 z"
   fill="#FFA28D"
   id="path1"
   style="fill:#000000;fill-opacity:1;stroke-width:0.0602679" /><path
   d="m 32,51.301142 c 0.802286,0 1.388571,-0.555428 1.388571,-1.234285 V 26.029142 h -2.808 v 24.037715 c 0,0.678857 0.648,1.234285 1.419429,1.234285 z"
   fill="#FFD561"
   id="path2"
   style="fill:#000000;fill-opacity:1;stroke-width:0.0602679" /><path
   d="m 22.28,51.301142 c 0.771429,0 1.388571,-0.555428 1.388571,-1.234285 V 26.029142 h -2.777142 v 24.037715 c 0,0.678857 0.648,1.234285 1.388571,1.234285 z"
   fill="#FFA28D"
   id="path3"
   style="fill:#000000;fill-opacity:1;stroke-width:0.0602679" /><path
   d="M 56.685714,12.112572 H 45.145143 V 7.0828571 C 45.145143,5.9411428 44.096,5.0154285 42.8,5.0154285 H 21.2 c -1.296,0 -2.345143,0.9565714 -2.376,2.0674286 V 12.143428 H 7.3451429 C 6.0491429,12.143428 5,13.069142 5,14.210857 v 9.750857 c 0,1.141714 1.0491429,2.067428 2.3451429,2.067428 h 3.4560001 v 30.888001 c 0,1.141715 1.018286,2.067429 2.314286,2.067429 h 37.769142 c 1.296,0 2.345143,-0.956573 2.345143,-2.067429 V 26.029142 h 3.456 C 57.950857,26.029142 59,25.103428 59,23.961714 v -9.781715 c 0,-1.110857 -1.049143,-2.067427 -2.314286,-2.067427 z M 23.514286,9.1502856 H 40.454857 V 11.742286 H 23.514286 Z M 48.508571,54.849714 h -33.048 V 26.029142 H 48.539429 V 54.849714 Z M 54.309714,21.894285 H 9.659429 v -5.616 h 44.650285 z"
   fill="#5FFFBA"
   id="path4"
   style="fill:#000000;fill-opacity:1;stroke:none;stroke-width:0.0602486;stroke-dasharray:none;stroke-opacity:1" /></svg>
