<?xml version="1.0" encoding="UTF-8" standalone="no"?>
<svg
   width="64"
   height="64"
   viewBox="0 0 64 64"
   version="1.1"
   id="svg6"
   sodipodi:docname="MenuId.Object.Scale.svg"
   xml:space="preserve"
   inkscape:version="1.3 (0e150ed6c4, 2023-07-21)"
   xmlns:inkscape="http://www.inkscape.org/namespaces/inkscape"
   xmlns:sodipodi="http://sodipodi.sourceforge.net/DTD/sodipodi-0.dtd"
   xmlns="http://www.w3.org/2000/svg"
   xmlns:svg="http://www.w3.org/2000/svg"><defs
   id="defs6" /><sodipodi:namedview
   id="namedview6"
   pagecolor="#ffffff"
   bordercolor="#000000"
   borderopacity="0.25"
   inkscape:showpageshadow="2"
   inkscape:pageopacity="0.0"
   inkscape:pagecheckerboard="0"
   inkscape:deskcolor="#d1d1d1"
   showgrid="true"
   inkscape:zoom="8.905126"
   inkscape:cx="31.161827"
   inkscape:cy="37.225751"
   inkscape:window-width="1920"
   inkscape:window-height="991"
   inkscape:window-x="-9"
   inkscape:window-y="-9"
   inkscape:window-maximized="1"
   inkscape:current-layer="svg6"><inkscape:grid
     id="grid7"
     units="px"
     originx="0"
     originy="0"
     spacingx="1"
     spacingy="1"
     empcolor="#0099e5"
     empopacity="0.30196078"
     color="#0099e5"
     opacity="0.14901961"
     empspacing="5"
     dotted="false"
     gridanglex="30"
     gridanglez="30"
     visible="true" /></sodipodi:namedview>&#10;	&#10;	&#10;	&#10;	&#10;&#10;  <desc
   id="hotspot"
   x="4"
   y="28" /><path
   d="M 9.9999988,-1.2279053e-7 H 19.999999 c 3.681899,0 6.666666,0 6.666666,0 v 0 m -53.33333,0 v 0 c 0,0 2.984667,0 6.666667,0 H 3.3333338 m 23.3333312,0 v 0 c 0,0 -2.984767,0 -6.666666,0 H 3.3333338 m 23.3333312,0 H 3.3333338 v 0 m -29.9999988,0 h 21.6666648 m -21.6666648,0 h 13.333332 m -13.333332,0 v 0"
   stroke="#000000"
   stroke-width="0"
   stroke-linecap="round"
   stroke-linejoin="round"
   id="path1" /><path
   d="m 28.666666,2 c 1.841,0 3.333335,1.4924 3.333335,3.3333331 0,1.709438 -1.286758,3.118355 -2.944588,3.310908 l -0.388747,0.022426 H 8.6666671 V 55.333334 H 55.333334 v -20 c 0,-1.841 1.492333,-3.333333 3.333333,-3.333333 1.7095,0 3.118363,1.286756 3.310907,2.944586 L 62,35.333334 v 20 c 0,3.514636 -2.7195,6.393893 -6.169113,6.64838 L 55.333334,62 H 8.6666671 C 5.1521261,62 2.272783,59.2805 2.018286,55.830887 L 2,55.333334 V 8.6666671 C 2,5.1521261 4.719591,2.272783 8.1691251,2.018286 L 8.6666671,2 Z M 57.833334,2 C 60.134667,2 62,3.865467 62,6.1666671 V 18.666666 C 62,20.5076 60.507667,22 58.666667,22 c -1.841,0 -3.333333,-1.4924 -3.333333,-3.333334 V 13.3807 L 33.380667,35.333334 h 5.286 c 1.841,0 3.333334,1.492333 3.333334,3.333333 0,1.841 -1.492334,3.333334 -3.333334,3.333334 H 26.166666 C 23.865466,42.000001 22,40.134667 22,37.833334 V 25.333333 C 22,23.4924 23.4924,22 25.333333,22 c 1.841,0 3.333333,1.4924 3.333333,3.333333 v 5.286 L 50.619334,8.6666671 h -5.286 c -1.841,0 -3.333333,-1.4924 -3.333333,-3.333334 C 42.000001,3.4924 43.492334,2 45.333334,2 Z"
   id="形状"
   fill="#09244b"
   style="fill:#000000;fill-opacity:1;stroke:none;stroke-width:3.33333;stroke-opacity:1" /></svg>
