<?xml version="1.0" encoding="UTF-8" standalone="no"?>
<svg
   width="64"
   height="64"
   viewBox="0 0 64 64"
   version="1.1"
   id="svg6"
   sodipodi:docname="Modelling.svg"
   xml:space="preserve"
   inkscape:version="1.3 (0e150ed6c4, 2023-07-21)"
   xmlns:inkscape="http://www.inkscape.org/namespaces/inkscape"
   xmlns:sodipodi="http://sodipodi.sourceforge.net/DTD/sodipodi-0.dtd"
   xmlns="http://www.w3.org/2000/svg"
   xmlns:svg="http://www.w3.org/2000/svg"><defs
   id="defs6" /><sodipodi:namedview
   id="namedview6"
   pagecolor="#ffffff"
   bordercolor="#000000"
   borderopacity="0.25"
   inkscape:showpageshadow="2"
   inkscape:pageopacity="0.0"
   inkscape:pagecheckerboard="0"
   inkscape:deskcolor="#d1d1d1"
   showgrid="true"
   inkscape:zoom="8.905126"
   inkscape:cx="23.413481"
   inkscape:cy="37.225751"
   inkscape:window-width="1920"
   inkscape:window-height="991"
   inkscape:window-x="-9"
   inkscape:window-y="-9"
   inkscape:window-maximized="1"
   inkscape:current-layer="svg6"><inkscape:grid
     id="grid7"
     units="px"
     originx="0"
     originy="0"
     spacingx="1"
     spacingy="1"
     empcolor="#0099e5"
     empopacity="0.30196078"
     color="#0099e5"
     opacity="0.14901961"
     empspacing="5"
     dotted="false"
     gridanglex="30"
     gridanglez="30"
     visible="true" /></sodipodi:namedview>&#10;	&#10;	&#10;	&#10;	&#10;&#10;  <desc
   id="hotspot"
   x="4"
   y="28" /><path
   d="m 35.46144,36.23026 2.99641,-1.13612 3.0039,-1.46212 10.28631,-8.97558 8.46022,-6.79268 L 62,14.05606 56.62858,8.18 h -4.1572 l -8.34622,8.71779 -6.5436,5.50514 -0.0177,-0.0192 -0.12949,0.14174 -3.8972,4.27085 -1.10396,2.10173 -1.41262,2.68893 -8.88373,8.35383 c 0.0192,-0.48783 -0.014,-0.93159 -0.0733,-1.32379 -0.43066,-2.84751 -2.53988,-5.33685 -6.26898,-7.39928 -2.71089,-1.49921 -4.98448,-2.22815 -6.94908,-2.22815 -1.50365,0 -2.79903,0.43151 -3.84888,1.2821 -2.58038,2.08556 -2.58753,6.01032 -1.98604,7.99346 0.78611,2.58854 2.34745,3.54939 3.52423,3.90143 0.45193,0.13375 0.93125,0.20198 1.42589,0.20198 2.61305,0 4.99572,-1.87322 5.44935,-2.24926 0.46945,-0.39203 0.75752,-0.94333 0.81231,-1.55043 0.055,-0.60932 -0.13084,-1.20146 -0.52254,-1.67023 -0.43593,-0.5227 -1.07537,-0.82183 -1.75514,-0.82183 -0.53768,0 -1.05989,0.1904 -1.45685,0.52525 -0.5918,0.48341 -1.79802,1.19891 -2.50892,1.19891 -0.0761,0 -0.11792,-0.0102 -0.13987,-0.0172 -0.042,-0.0124 -0.25727,-0.20282 -0.45193,-0.84583 -0.29777,-0.98195 -0.13255,-2.61015 0.48664,-3.11023 0.21031,-0.17066 0.53956,-0.25727 0.97771,-0.25727 0.79768,0 2.26559,0.28671 4.73044,1.65065 2.38607,1.32005 3.75649,2.7296 3.96034,4.0801 0.21235,1.40582 -0.84584,2.82676 -1.56219,3.6372 H 2 V 55.82 H 61.56628 V 46.0236 H 24.74991 Z m 9.91793,-17.99625 7.8737,-8.22453 h 2.56966 l 4.00168,4.37651 -1.08966,2.31613 -8.19938,6.58254 -7.51927,7.32373 -5.19292,-6.01661 z m -7.82078,6.87266 4.89737,5.42668 -3.33978,2.61339 -4.58752,-4.72005 z m 22.17836,22.7459 V 53.9888 H 3.82915 v -0.45738 -8.30857 -0.45737 h 0.45738 12.4898 c 0.0245,-0.0249 0.0531,-0.0543 0.0813,-0.0847 0.71617,-0.74374 2.89482,-3.01086 2.49598,-5.65471 -0.29606,-1.9605 -1.93924,-3.78011 -4.88409,-5.40746 -3.5928,-1.98704 -6.26983,-2.40766 -7.74541,-1.21302 -1.43576,1.163 -1.49701,3.70866 -1.08575,5.06376 0.34711,1.14241 0.91117,1.83748 1.67738,2.06668 1.81758,0.54755 4.31374,-1.5033 4.33739,-1.52355 0.19295,-0.16267 0.48102,-0.13698 0.64403,0.0579 0.16182,0.19313 0.13544,0.48154 -0.0575,0.64335 -0.11707,0.0972 -2.8887,2.37856 -5.18408,1.69847 C 5.97613,40.08891 5.20516,39.18879 4.7631,37.7345 4.26557,36.09303 4.36562,33.1356 6.14883,31.69372 c 1.81095,-1.46655 4.76091,-1.08915 8.76327,1.12454 3.2057,1.77214 5.00507,3.81585 5.3464,6.07208 0.38846,2.57595 -1.22408,4.74642 -2.22986,5.87523 h 1.65066 l 12.8216,-12.05604 1.85111,-3.52608 4.03264,3.98261 -3.9006,1.47811 -14.44624,13.20866 h 39.69911 z"
   id="path1"
   style="stroke:none;stroke-width:0.170154;stroke-opacity:1;fill:#000000;fill-opacity:1" /><path
   style="fill:#00ffff;fill-opacity:1;stroke:#828282;stroke-width:0.0280737;stroke-linecap:round;stroke-linejoin:round;stroke-miterlimit:3;stroke-dasharray:none;stroke-opacity:1"
   d="m 19.756424,46.100583 c -0.621733,-0.498466 -1.169674,-0.94321 -1.217646,-0.98832 -0.08075,-0.07593 -0.164529,-0.224192 -0.164529,-0.291162 0,-0.01822 0.237277,-0.03118 0.659062,-0.03599 l 0.659063,-0.0075 6.411481,-6.028544 6.411482,-6.028543 0.921117,-1.756646 0.921117,-1.756646 0.90069,0.892812 c 2.465063,2.443506 3.073825,3.052945 3.061682,3.065088 -0.0073,0.0073 -0.875014,0.339839 -1.928314,0.739035 -1.213154,0.45978 -1.941184,0.749918 -1.986281,0.791582 -0.03915,0.03617 -2.067232,1.890032 -4.506838,4.119685 -2.439606,2.229653 -5.450618,4.982284 -6.691137,6.116958 -1.24052,1.134673 -2.270123,2.065626 -2.288008,2.068782 -0.01788,0.0032 -0.541209,-0.402095 -1.162941,-0.900561 z"
   id="path6" /><path
   style="fill:#00ffff;fill-opacity:1;stroke:#828282;stroke-width:0.112295;stroke-linecap:round;stroke-linejoin:round;stroke-miterlimit:3;stroke-dasharray:none;stroke-opacity:1"
   d="M 40.756041,27.886522 C 39.524646,26.459684 38.385654,25.13484 38.224946,24.942424 l -0.292196,-0.349847 3.740488,-3.144256 c 3.602307,-3.028102 3.886314,-3.296709 7.687975,-7.271093 l 3.947488,-4.126837 1.250926,0.0092 1.250925,0.0092 1.796718,1.969777 c 0.988195,1.083378 1.863337,2.077272 1.94476,2.208654 0.131164,0.211642 0.09031,0.362971 -0.358286,1.327302 l -0.50633,1.088425 -4.021213,3.214644 c -3.525085,2.81803 -4.416071,3.598435 -7.221617,6.325336 -1.760222,1.710881 -3.481483,3.373314 -3.825024,3.694297 l -0.62462,0.583607 z"
   id="path7" /><path
   style="fill:#00ffff;fill-opacity:1;stroke:#828282;stroke-width:0.112295;stroke-linecap:round;stroke-linejoin:round;stroke-miterlimit:3;stroke-dasharray:none;stroke-opacity:1"
   d="m 36.838313,30.698495 -2.210245,-2.26005 0.265708,-0.294658 c 1.489821,-1.652148 2.598458,-2.821293 2.675278,-2.821293 0.09415,0 4.625466,4.986723 4.686363,5.157351 0.03581,0.100328 -2.944901,2.4787 -3.106444,2.4787 -0.05523,0 -1.095026,-1.017022 -2.31066,-2.26005 z"
   id="path8" /><path
   style="fill:#a0a0a0;fill-opacity:1;stroke:#828282;stroke-width:0.112295;stroke-linecap:round;stroke-linejoin:round;stroke-miterlimit:3;stroke-dasharray:none;stroke-opacity:1"
   d="m 3.9303206,49.409744 v -4.547942 h 6.4515144 6.451515 l 0.651209,-0.773635 c 1.429032,-1.697691 2.003298,-3.095536 1.920419,-4.674581 -0.06948,-1.32368 -0.5899,-2.370103 -1.764491,-3.547876 -2.044425,-2.049965 -5.928409,-3.965219 -8.3408171,-4.112989 -1.9880732,-0.121778 -2.9920446,0.474374 -3.6381845,2.160331 -0.1689011,0.440709 -0.215184,0.85131 -0.215184,1.909013 0,1.448993 0.1430337,2.033658 0.7074312,2.891701 0.8981226,1.365399 2.7224765,1.268154 4.9902634,-0.265999 0.733553,-0.496246 1.045653,-0.547356 1.15913,-0.189819 0.09196,0.289743 -0.169087,0.530988 -1.298228,1.199746 -1.1833437,0.700859 -1.950939,0.947861 -2.9758145,0.957575 -1.0372207,0.0098 -1.5266277,-0.191182 -2.2059177,-0.906032 -0.8146473,-0.857293 -1.219076,-2.080513 -1.219076,-3.687172 0,-3.062653 1.603664,-4.907001 4.2672052,-4.907644 1.514172,-3.66e-4 2.983017,0.443339 5.274741,1.59338 5.793221,2.907175 7.536749,6.832146 4.831506,10.876528 -0.365397,0.546273 -0.742209,1.057835 -0.83736,1.136804 -0.210208,0.174457 -0.22461,0.340669 -0.02952,0.340669 0.07892,0 0.224502,0.09462 0.323522,0.210268 0.09902,0.115648 0.668838,0.603417 1.266261,1.083934 l 1.086224,0.873666 -0.421883,0.432047 -0.421883,0.432047 h 19.842836 19.842835 v 3.031961 3.031962 H 31.779449 3.9303206 Z"
   id="path9" /></svg>
