<?xml version="1.0" encoding="UTF-8" standalone="no"?>
<svg
   width="64"
   height="64"
   viewBox="0 0 64 64"
   version="1.1"
   id="svg6"
   sodipodi:docname="Project.svg"
   xml:space="preserve"
   inkscape:version="1.3 (0e150ed6c4, 2023-07-21)"
   xmlns:inkscape="http://www.inkscape.org/namespaces/inkscape"
   xmlns:sodipodi="http://sodipodi.sourceforge.net/DTD/sodipodi-0.dtd"
   xmlns="http://www.w3.org/2000/svg"
   xmlns:svg="http://www.w3.org/2000/svg"><defs
   id="defs6" /><sodipodi:namedview
   id="namedview6"
   pagecolor="#ffffff"
   bordercolor="#000000"
   borderopacity="0.25"
   inkscape:showpageshadow="2"
   inkscape:pageopacity="0.0"
   inkscape:pagecheckerboard="0"
   inkscape:deskcolor="#d1d1d1"
   showgrid="true"
   inkscape:zoom="6.296875"
   inkscape:cx="37.399504"
   inkscape:cy="11.037221"
   inkscape:window-width="1920"
   inkscape:window-height="991"
   inkscape:window-x="-9"
   inkscape:window-y="-9"
   inkscape:window-maximized="1"
   inkscape:current-layer="svg6"><inkscape:grid
     id="grid7"
     units="px"
     originx="0"
     originy="0"
     spacingx="1"
     spacingy="1"
     empcolor="#0099e5"
     empopacity="0.30196078"
     color="#0099e5"
     opacity="0.14901961"
     empspacing="5"
     dotted="false"
     gridanglex="30"
     gridanglez="30"
     visible="true" /></sodipodi:namedview>&#10;	&#10;	&#10;	&#10;	&#10;&#10;  <desc
   id="hotspot"
   x="4"
   y="28" /><path
   id="path1"
   style="fill:#000000;fill-opacity:1;stroke:none;stroke-width:1.24872;stroke-dasharray:none;stroke-opacity:1"
   d="m 25.514415,13.487155 c -0.885701,0.0209 -1.77785,-0.04186 -2.659654,0.03924 -1.061347,0.194691 -1.852322,1.26603 -1.740451,2.338093 0,0.286556 0,0.573112 0,0.859669 -0.27955,0.195702 -0.752256,0.34135 -0.966739,-0.01979 -0.515601,-0.628662 -1.258543,-1.183641 -2.115561,-1.099624 -0.722766,0.03775 -1.338809,0.489868 -1.787943,1.02775 -0.588287,0.62809 -1.27787,1.173545 -1.77638,1.878861 -0.526706,0.897852 -0.272204,2.132825 0.535599,2.779095 0.193539,0.193539 0.387077,0.387077 0.580616,0.580616 -0.06489,0.334239 -0.292248,0.77137 -0.699852,0.66756 -0.78449,-0.07675 -1.670607,0.03879 -2.221921,0.663425 -0.53745,0.547223 -0.656885,1.352251 -0.586294,2.086131 0.02377,0.861661 -0.08474,1.73909 0.08301,2.589154 0.27755,0.985845 1.318694,1.653407 2.329737,1.542535 0.273157,0 0.546313,0 0.819469,0 0.195703,0.27955 0.341351,0.752256 -0.01979,0.966738 -0.62903,0.515227 -1.18342,1.25873 -1.099624,2.115562 0.03775,0.722765 0.489869,1.338808 1.027751,1.787942 0.62809,0.588288 1.173545,1.277871 1.87886,1.77638 0.897853,0.526707 2.132826,0.272205 2.779096,-0.535598 0.193538,-0.193539 0.387077,-0.387078 0.580616,-0.580616 0.334239,0.06489 0.77137,0.292247 0.66756,0.699852 -0.07185,0.766771 0.0287,1.629338 0.623803,2.183002 0.534955,0.551718 1.344528,0.701024 2.082698,0.62587 0.876011,-0.0267 1.767811,0.08602 2.632209,-0.08367 0.985845,-0.277551 1.653407,-1.318694 1.542535,-2.329738 0,-0.273156 0,-0.546312 0,-0.819469 0.279549,-0.195702 0.752256,-0.34135 0.966738,0.01979 0.501103,0.611704 1.214891,1.153891 2.046882,1.102174 0.749657,-0.01133 1.393266,-0.475292 1.856622,-1.0303 0.589578,-0.630935 1.284456,-1.176294 1.780584,-1.887272 0.520045,-0.896975 0.265485,-2.126636 -0.539802,-2.770684 -0.193539,-0.193539 -0.387078,-0.387078 -0.580616,-0.580616 0.06489,-0.33424 0.292247,-0.77137 0.699852,-0.667561 0.784489,0.07675 1.670607,-0.03879 2.221921,-0.663424 0.53745,-0.547224 0.656885,-1.352251 0.586294,-2.086132 -0.02377,-0.86166 0.08474,-1.73909 -0.08301,-2.589154 -0.277551,-0.985844 -1.318694,-1.653407 -2.329738,-1.542534 -0.273156,0 -0.546312,0 -0.819469,0 -0.195794,-0.279687 -0.341165,-0.751982 0.01966,-0.966928 0.610707,-0.500312 1.152999,-1.210953 1.102312,-2.042487 -0.0094,-0.750595 -0.47427,-1.397362 -1.030317,-1.860832 -0.628082,-0.588287 -1.173537,-1.277871 -1.878852,-1.77638 C 31.124973,15.357078 29.89,15.611581 29.243731,16.419384 29.050192,16.612923 28.856653,16.806461 28.663115,17 c -0.33424,-0.06489 -0.77137,-0.292248 -0.667561,-0.699852 0.07675,-0.78449 -0.03879,-1.670607 -0.663424,-2.221921 -0.478002,-0.455327 -1.167877,-0.649183 -1.817715,-0.591079 z m -2.462444,1.723206 c 1.075918,0 2.151835,0 3.227753,0 0.039,0.805187 -0.0724,1.624927 0.06306,2.420345 0.252805,0.604328 1.006396,0.558024 1.4983,0.852976 0.438257,0.178383 0.930156,0.580519 1.411575,0.295037 0.470569,-0.312975 0.807614,-0.786001 1.22806,-1.161037 0.18797,-0.100178 0.375929,-0.568559 0.563781,-0.38084 0.780556,0.780556 1.561112,1.561111 2.341668,2.341667 -0.537504,0.603162 -1.203413,1.098232 -1.667895,1.760707 -0.240086,0.588508 0.292099,1.075134 0.439801,1.609345 0.200434,0.435464 0.235374,1.071981 0.767237,1.241802 0.535131,0.140622 1.097785,0.02536 1.645319,0.06242 0.237799,0.02762 0.586233,-0.05539 0.753199,0.04306 0,1.13333 0,2.26666 0,3.39999 -0.805186,0.039 -1.624927,-0.0724 -2.420344,0.06306 -0.604329,0.252805 -0.558024,1.006396 -0.852976,1.4983 -0.178384,0.438257 -0.58052,0.930156 -0.295038,1.411575 0.312976,0.470569 0.786001,0.807614 1.161037,1.22806 0.100178,0.18797 0.568559,0.375929 0.38084,0.563781 -0.780555,0.780556 -1.561111,1.561112 -2.341667,2.341668 -0.603162,-0.537504 -1.098232,-1.203413 -1.760707,-1.667895 -0.588507,-0.240086 -1.075134,0.292099 -1.609345,0.439801 -0.435464,0.200434 -1.071981,0.235375 -1.241802,0.767237 -0.140621,0.535131 -0.02536,1.097785 -0.06242,1.645319 -0.02762,0.237799 0.05539,0.586233 -0.04306,0.753199 -1.13333,0 -2.26666,0 -3.39999,0 -0.039,-0.805186 0.0724,-1.624926 -0.06306,-2.420344 -0.252805,-0.604329 -1.006396,-0.558024 -1.4983,-0.852976 -0.438257,-0.178383 -0.930155,-0.58052 -1.411575,-0.295038 -0.470565,0.312968 -0.80761,0.785993 -1.228056,1.161029 -0.187969,0.100178 -0.375928,0.568559 -0.563781,0.380841 -0.780556,-0.780556 -1.561112,-1.561112 -2.341667,-2.341667 0.537504,-0.603163 1.203413,-1.098233 1.667894,-1.760708 0.240086,-0.588507 -0.292098,-1.075134 -0.439801,-1.609345 -0.200433,-0.435464 -0.235374,-1.071981 -0.767237,-1.241802 -0.53513,-0.140621 -1.097785,-0.02536 -1.645319,-0.06242 -0.237798,-0.02762 -0.586232,0.05539 -0.753199,-0.04306 0,-1.13333 0,-2.26666 0,-3.39999 0.805187,-0.039 1.624927,0.0724 2.420345,-0.06306 0.604328,-0.252805 0.558024,-1.006396 0.852976,-1.4983 0.178383,-0.438248 0.580519,-0.930147 0.295037,-1.411567 -0.312975,-0.470568 -0.786001,-0.807614 -1.161037,-1.22806 -0.100178,-0.187969 -0.568559,-0.375928 -0.38084,-0.563781 0.780556,-0.780556 1.561111,-1.561112 2.341667,-2.341667 0.603163,0.537504 1.098232,1.203413 1.760707,1.667894 0.588508,0.240086 1.075134,-0.292099 1.609345,-0.439801 0.435464,-0.200433 1.071981,-0.235374 1.241802,-0.767237 0.140622,-0.53513 0.02536,-1.097785 0.06242,-1.645319 0.02762,-0.237798 -0.05539,-0.586232 0.04306,-0.753199 0.05741,0 0.114825,0 0.172237,0 z" /><circle
   cx="24.55904"
   cy="25.975145"
   r="3.8753223"
   stroke="#000000"
   stroke-width="6"
   stroke-linecap="round"
   stroke-linejoin="round"
   id="circle1"
   style="fill:none;stroke-width:1.76542;stroke-dasharray:none" /><path
   fill="#494c4e"
   d="M 47.000811,6.9995842 V 26.999921 c 0,1.375018 -1.12502,2.500037 -2.50005,2.500037 -1.37502,0 -2.50004,-1.125019 -2.50004,-2.500037 V 8.2496027 c 0,-0.7000092 -0.55001,-1.2500185 -1.25003,-1.2500185 H 8.2501107 c -0.70001,0 -1.25002,0.5500093 -1.25002,1.2500185 V 55.750397 c 0,0.700019 0.55001,1.250029 1.25002,1.250029 H 40.750691 c 0.70002,0 1.25003,-0.55001 1.25003,-1.250029 v -1.250018 c 0,-1.375019 1.12502,-2.500037 2.50004,-2.500037 1.37503,0 2.50005,1.125018 2.50005,2.500037 v 2.500047 c 0,2.750037 -2.25004,5.000074 -5.00009,5.000074 H 7.0000907 c -2.75005,0 -5.00009,-2.250037 -5.00009,-5.000074 V 6.9995842 c 0,-2.7500468 2.25004,-5.0000842 5.00009,-5.0000842 H 42.000721 c 2.75005,0 5.00009,2.2500374 5.00009,5.0000842 z"
   id="path2"
   style="stroke-width:2.50004;fill:#000000;fill-opacity:1" /><path
   fill="#494c4e"
   d="m 61.676071,31.704995 c 0.77501,1.350029 0.1125,3.182557 -1.48753,4.107576 l -24.12543,13.925233 c -0.21,0.125 -0.44001,0.215 -0.66251,0.275 l -6.64012,1.650028 c -0.92502,0.23 -1.80003,-0.0875 -2.20004,-0.785009 -0.40501,-0.695019 -0.225,-1.625028 0.42501,-2.282547 l 4.76758,-4.895075 c 0.15751,-0.180009 0.34251,-0.307509 0.53501,-0.417509 0.01,-0.025 0.03,-0.0375 0.03,-0.0375 l 24.12544,-13.925234 c 1.60002,-0.925019 3.52006,-0.585009 4.30007,0.762509 l 0.93502,1.625028 z"
   id="path3"
   style="stroke-width:2.50004;fill:#000000;fill-opacity:1" /></svg>
