<?xml version="1.0" encoding="UTF-8" standalone="no"?>
<svg
   width="64"
   height="64"
   viewBox="0 0 64 64"
   version="1.1"
   id="svg6"
   sodipodi:docname="Settings.svg"
   xml:space="preserve"
   inkscape:version="1.3 (0e150ed6c4, 2023-07-21)"
   xmlns:inkscape="http://www.inkscape.org/namespaces/inkscape"
   xmlns:sodipodi="http://sodipodi.sourceforge.net/DTD/sodipodi-0.dtd"
   xmlns="http://www.w3.org/2000/svg"
   xmlns:svg="http://www.w3.org/2000/svg"><defs
   id="defs6" /><sodipodi:namedview
   id="namedview6"
   pagecolor="#ffffff"
   bordercolor="#000000"
   borderopacity="0.25"
   inkscape:showpageshadow="2"
   inkscape:pageopacity="0.0"
   inkscape:pagecheckerboard="0"
   inkscape:deskcolor="#d1d1d1"
   showgrid="true"
   inkscape:zoom="8.905126"
   inkscape:cx="32.509366"
   inkscape:cy="42.166725"
   inkscape:window-width="1920"
   inkscape:window-height="991"
   inkscape:window-x="-9"
   inkscape:window-y="-9"
   inkscape:window-maximized="1"
   inkscape:current-layer="svg6"><inkscape:grid
     id="grid7"
     units="px"
     originx="0"
     originy="0"
     spacingx="1"
     spacingy="1"
     empcolor="#0099e5"
     empopacity="0.30196078"
     color="#0099e5"
     opacity="0.14901961"
     empspacing="5"
     dotted="false"
     gridanglex="30"
     gridanglez="30"
     visible="true" /></sodipodi:namedview>&#10;	&#10;	&#10;	&#10;	&#10;&#10;  <desc
   id="hotspot"
   x="4"
   y="28" /><path
   id="path1"
   style="fill:#000000;fill-opacity:1;stroke:none;stroke-width:2.9;stroke-dasharray:none;stroke-opacity:1"
   d="M 34.21875,2.9980469 C 32.161809,3.0465894 30.089893,2.9008297 28.042003,3.0891836 25.577144,3.5413326 23.740192,6.0293959 24,8.5191406 c 0,0.6654948 0,1.3309896 0,1.9964844 -0.649223,0.454497 -1.74703,0.792748 -2.245141,-0.04595 -1.197426,-1.4599945 -2.922826,-2.7488718 -4.913154,-2.553753 -1.678542,0.087675 -3.109232,1.1376645 -4.152295,2.386834 -1.366232,1.45867 -2.9677111,2.725428 -4.1254423,4.363443 -1.2232176,2.085162 -0.6321652,4.953247 1.2438675,6.454136 0.4494718,0.449472 0.8989428,0.898943 1.3484148,1.348415 -0.150702,0.776233 -0.678712,1.79142 -1.625328,1.550335 -1.8218878,-0.178239 -3.8797963,0.09009 -5.1601608,1.540728 -1.2481679,1.270865 -1.525542,3.140451 -1.361602,4.844805 0.055208,2.00111 -0.1968086,4.038841 0.1927878,6.013019 C 3.8465265,38.70715 6.264465,40.257489 8.6125,40 c 0.634375,0 1.26875,0 1.903125,0 0.454497,0.649223 0.792748,1.74703 -0.04595,2.245141 -1.4608526,1.196556 -2.7483617,2.923258 -2.553753,4.913154 0.087675,1.678542 1.1376645,3.109232 2.386834,4.152295 1.45867,1.366232 2.725428,2.967711 4.363443,4.125442 2.085162,1.223218 4.953247,0.632166 6.454136,-1.243867 0.449472,-0.449472 0.898943,-0.898943 1.348415,-1.348415 0.776233,0.150702 1.79142,0.678712 1.550335,1.625328 -0.166873,1.78074 0.06665,3.783954 1.448712,5.069776 1.242373,1.281304 3.122514,1.628049 4.836832,1.453513 2.034435,-0.062 4.10554,0.199767 6.113008,-0.194314 C 38.70715,60.153473 40.257489,57.735535 40,55.3875 c 0,-0.634375 0,-1.26875 0,-1.903125 0.649223,-0.454497 1.74703,-0.792748 2.245141,0.04595 1.163755,1.420614 2.821448,2.679782 4.753652,2.559676 1.740994,-0.02631 3.235704,-1.103813 4.311797,-2.392757 1.369228,-1.465274 2.983003,-2.73181 4.135205,-4.382976 1.207747,-2.083124 0.61656,-4.938873 -1.25363,-6.434603 -0.449472,-0.449472 -0.898943,-0.898943 -1.348415,-1.348415 0.150702,-0.776233 0.678712,-1.79142 1.625328,-1.550335 1.821888,0.178239 3.879796,-0.09009 5.160161,-1.540728 1.248168,-1.270865 1.525542,-3.140451 1.361602,-4.844805 -0.05521,-2.00111 0.196808,-4.038841 -0.192788,-6.013019 C 60.153473,25.29285 57.735535,23.742511 55.3875,24 c -0.634375,0 -1.26875,0 -1.903125,0 -0.454711,-0.64954 -0.792318,-1.746392 0.04565,-2.24558 1.4183,-1.161918 2.677711,-2.812304 2.559995,-4.743448 -0.0219,-1.743163 -1.101423,-3.245206 -2.39278,-4.321562 C 52.238574,11.323178 50.971816,9.7216989 49.333801,8.5639677 47.248639,7.3407501 44.380554,7.9318025 42.879665,9.8078352 42.430193,10.257307 41.980722,10.706778 41.53125,11.15625 40.755017,11.005548 39.73983,10.477538 39.980915,9.530922 40.159154,7.7090342 39.890823,5.6511257 38.440187,4.3707612 37.330082,3.3133157 35.727926,2.8631062 34.21875,2.9980469 Z M 28.5,7 c 2.498698,0 4.997396,0 7.496094,0 0.09058,1.869955 -0.168144,3.773709 0.14644,5.620977 0.587111,1.403485 2.337241,1.295948 3.479634,1.980941 1.017801,0.414275 2.160181,1.348191 3.278223,0.685191 1.092843,-0.72685 1.875593,-1.825399 2.852032,-2.696377 0.436538,-0.232653 0.873051,-1.320415 1.309318,-0.884459 1.812753,1.812753 3.625506,3.625505 5.438259,5.438258 -1.248293,1.400777 -2.794791,2.550521 -3.873498,4.089044 -0.557572,1.366743 0.678367,2.496879 1.021389,3.737523 0.465484,1.011316 0.54663,2.489556 1.781821,2.883946 1.242781,0.326577 2.549482,0.05889 3.821069,0.144956 0.55226,0.06415 1.361458,-0.128646 1.749219,0.1 0,2.632031 0,5.264063 0,7.896094 -1.869955,0.09058 -3.773709,-0.168144 -5.620977,0.14644 -1.403485,0.587111 -1.295948,2.337241 -1.980941,3.479634 -0.414275,1.017801 -1.348191,2.160181 -0.685191,3.278223 0.72685,1.092843 1.825399,1.875593 2.696377,2.852032 0.232653,0.436538 1.320415,0.873051 0.884459,1.309318 -1.812753,1.812753 -3.625505,3.625506 -5.438258,5.438259 -1.400777,-1.248293 -2.550521,-2.794791 -4.089044,-3.873498 -1.366743,-0.557572 -2.496879,0.678367 -3.737523,1.021389 -1.011316,0.465484 -2.489556,0.54663 -2.883946,1.781821 -0.326577,1.242781 -0.05889,2.549482 -0.144956,3.821069 -0.06415,0.55226 0.128646,1.361458 -0.1,1.749219 -2.632031,0 -5.264063,0 -7.896094,0 -0.09058,-1.869955 0.168144,-3.773709 -0.14644,-5.620977 -0.587111,-1.403485 -2.337241,-1.295948 -3.479634,-1.980941 -1.017801,-0.414275 -2.160181,-1.348191 -3.278223,-0.685191 -1.092843,0.72685 -1.875593,1.825399 -2.852032,2.696377 -0.436538,0.232653 -0.873051,1.320415 -1.309318,0.884459 C 15.125506,50.480974 13.312753,48.668222 11.5,46.855469 12.748293,45.454692 14.294791,44.304948 15.373498,42.766425 15.93107,41.399682 14.695131,40.269546 14.352109,39.028902 13.886625,38.017586 13.805479,36.539346 12.570288,36.144956 11.327507,35.818379 10.020806,36.086067 8.7492187,36 8.1969588,35.935854 7.3877606,36.128646 7,35.9 c 0,-2.632031 0,-5.264063 0,-7.896094 1.869955,-0.09058 3.773709,0.168144 5.620977,-0.14644 1.403485,-0.587111 1.295948,-2.337241 1.980941,-3.479634 0.414275,-1.017801 1.348191,-2.160181 0.685191,-3.278223 -0.72685,-1.092843 -1.825399,-1.875593 -2.696377,-2.852032 -0.232653,-0.436538 -1.320415,-0.873051 -0.884459,-1.309318 1.812753,-1.812753 3.625505,-3.625506 5.438258,-5.438259 1.400777,1.248293 2.550521,2.794791 4.089044,3.873498 1.366743,0.557572 2.496879,-0.678367 3.737523,-1.021389 1.011316,-0.465484 2.489556,-0.54663 2.883946,-1.781821 C 28.181621,11.327507 27.913933,10.020806 28,8.7492187 28.064146,8.1969588 27.871354,7.3877606 28.1,7 c 0.133333,0 0.266667,0 0.4,0 z" /><circle
   cx="32"
   cy="32"
   r="9"
   stroke="#000000"
   stroke-width="6"
   stroke-linecap="round"
   stroke-linejoin="round"
   id="circle1"
   style="stroke-width:4.1;stroke-dasharray:none;fill:none" /></svg>
